STARTFONT 2.3
FONT -FontForge-Butcherman-Book-R-Normal--36-360-72-72-P-195-ISO10646-1
SIZE 36 72 72  2
FONTBOUNDINGBOX 54 71 -3 -25
COMMENT "Generated by fontforge, http://fontforge.sourceforge.net"
COMMENT "Copyright (c) 2011, Typomondo, with Reserved Font Name  "Butcherman"."
STARTPROPERTIES 41
FOUNDRY "FontForge"
FAMILY_NAME "Butcherman"
WEIGHT_NAME "Book"
SLANT "R"
SETWIDTH_NAME "Normal"
ADD_STYLE_NAME ""
PIXEL_SIZE 36
POINT_SIZE 360
RESOLUTION_X 72
RESOLUTION_Y 72
SPACING "P"
AVERAGE_WIDTH 195
CHARSET_REGISTRY "ISO10646"
CHARSET_ENCODING "1"
FONTNAME_REGISTRY ""
CHARSET_COLLECTIONS "ISO8859-2 ISO8859-9 ISO8859-4 ISO10646-1"
BITS_PER_PIXEL 2
FONT_NAME "Butcherman-Regular"
FACE_NAME "Butcherman Regular"
COPYRIGHT "Copyright (c) 2011, Typomondo, with Reserved Font Name  "Butcherman"."
FONT_VERSION "001.004"
FONT_ASCENT 29
FONT_DESCENT 7
UNDERLINE_POSITION -4
UNDERLINE_THICKNESS 2
X_HEIGHT 26
CAP_HEIGHT 26
DEFAULT_CHAR 3
RAW_ASCENT 799
RAW_DESCENT 200
NORM_SPACE 6
RELATIVE_WEIGHT 40
RELATIVE_SETWIDTH 50
SUPERSCRIPT_X 0
SUPERSCRIPT_Y 12
SUPERSCRIPT_SIZE 21
SUBSCRIPT_X 0
SUBSCRIPT_Y 2
SUBSCRIPT_SIZE 21
AVG_LOWERCASE_WIDTH 210
AVG_UPPERCASE_WIDTH 200
ENDPROPERTIES
CHARS 331
STARTCHAR NULL.dup1
ENCODING 0
SWIDTH 161 0
DWIDTH 6 0
BBX 1 1 0 0
BITMAP
00
ENDCHAR
STARTCHAR CR
ENCODING 13
SWIDTH 161 0
DWIDTH 6 0
BBX 1 1 0 0
BITMAP
00
ENDCHAR
STARTCHAR space
ENCODING 32
SWIDTH 161 0
DWIDTH 6 0
BBX 1 1 0 0
BITMAP
00
ENDCHAR
STARTCHAR exclam
ENCODING 33
SWIDTH 350 0
DWIDTH 13 0
BBX 11 44 1 1
BITMAP
014000
5FFF90
FFFFF4
FFFFF4
BFFFF0
7FFFD0
2FFFD0
1FFFD0
2FFFC0
2FFFC0
3FFFC0
3FFF80
2FFF80
1FFF40
0FFF40
0FFF00
0BFF40
07FF40
07FF40
07FF00
03FE00
03FE00
03FF00
03FF00
03FE00
03FE00
03FE00
03FD00
000900
000000
000000
000000
15AA90
BFFFF0
7FFFF0
3FFFE0
2FFFE0
2FFFF4
1FFFF0
1FFFF0
1FFFF0
1FFFF0
2FFAE0
154000
ENDCHAR
STARTCHAR quotedbl
ENCODING 34
SWIDTH 541 0
DWIDTH 20 0
BBX 17 14 1 13
BITMAP
1564056900
7FFE1FFF40
7FFE0FFF80
3FFE0FFF40
2FFE0BFF40
2FFD07FF00
1FFD03FF00
0FFC03FF00
0FFC02FE00
0BF801FE00
0BF801FD00
07F801FC00
03F400FC00
0240008000
ENDCHAR
STARTCHAR numbersign
ENCODING 35
SWIDTH 583 0
DWIDTH 21 0
BBX 21 32 0 -4
BITMAP
00003D007D00
00007C00BD00
0000B800BC00
0000F801F800
0001F402F800
0002F402F400
0002F002F000
02ABF56BF540
03FFFFFFFF40
03FFFFFFFE00
03FFFFFFFD00
03FFFFFFFD00
03FFFFFFFD00
016FF9FFBC00
003F007F0000
007E00BE0000
007D00BD0000
00BC00FC0000
00FC00FC0000
01F801F80000
BBFEAAFA9000
BFFFFFFF8000
BFFFFFFF4000
BFFFFFFF4000
67EAABEF4000
07C007C00000
0B800B800000
1F400F400000
2F001F000000
2F001F000000
26002E000000
010005000000
ENDCHAR
STARTCHAR dollar
ENCODING 36
SWIDTH 534 0
DWIDTH 19 0
BBX 17 45 1 -10
BITMAP
0000B00000
0001F00000
0002F00000
0002F00000
0002F00000
0002E00000
0002F00000
0002F00000
0001F50000
001FFF9000
01FFFFF800
07FFFFFE00
0FFFFFFF80
1FFFFFFF80
3FFFFFFF80
7FFFFFFF80
BFFFFFFF80
BFFFFFFF80
BFFFFFFF80
BFFFBFFF40
BFFE1FFF40
7FFD0FFF40
7FFF055680
3FFFF90000
2FFFFF8000
0BFFFFE000
02FFFFF400
005FFFF800
00006FFC00
05551FFD00
2FFE0FFD00
1FFE2FFC00
0FFFFFF400
07FFFFE000
02FFFFD000
00AAFE8000
0011E00000
0001E00000
0002E00000
0002E00000
0003E00000
0003E00000
0002E00000
0002E00000
0001500000
ENDCHAR
STARTCHAR percent
ENCODING 37
SWIDTH 828 0
DWIDTH 30 0
BBX 28 32 1 -4
BITMAP
000000007E0000
00000000BD0000
06A80001FC0000
2FFF0002FC0000
7FFF8003F40000
FFFFD003F00000
FFFFD007F00000
BFFFE007F00000
BFBFE007E00000
BE2FE00BD00000
BE1FE00FC01A80
BD1FD01F807FF0
BE1FC02F40BFF8
7E2F803F01FFFC
7F7F407E01FFFD
3FFF00FC00FFFD
17FD01FC00FFFD
00A402F800FEFD
000003F800FEFD
000007F401FEFD
00000FE002F5FE
000007E002F1FC
000007C002FAF8
00000B8001FFF4
00000F40002FE0
00001F00000640
00003F00000000
00007D00000000
00007D00000000
00007D00000000
00005C00000000
00000400000000
ENDCHAR
STARTCHAR ampersand
ENCODING 38
SWIDTH 522 0
DWIDTH 19 0
BBX 17 19 1 4
BITMAP
001AA40000
001FFD0000
001FFD0000
001FFD0000
001FFC0000
001FFC0000
6ABFFEAA40
BFFFFFFF40
BFFFFFFF40
BFFFFFFF40
BFFFFFFF00
BFFFFFFF00
1AAFFEAA00
001FFD0000
001FFD0000
001FFD0000
001FFC0000
001FFC0000
0005540000
ENDCHAR
STARTCHAR quotesingle
ENCODING 39
SWIDTH 300 0
DWIDTH 11 0
BBX 8 14 1 13
BITMAP
1554
7FFE
3FFE
2FFE
2FFE
1FFE
1FFD
0FFD
0FFC
0BFC
0BFC
07FC
07F8
0240
ENDCHAR
STARTCHAR parenleft
ENCODING 40
SWIDTH 372 0
DWIDTH 13 0
BBX 12 35 1 -4
BITMAP
000006
0000BE
000BFE
002FFE
00BFFD
01FFFD
02FFFD
07FFFC
0BFFFC
1FFFF8
2FFFF8
2FFFF8
3FFFE4
3FFF00
7FFD00
7FFC00
7FFC00
BFFC00
BFF800
BFF800
BFF800
BFF800
BFF800
7FFC00
7FFC00
3FFD00
2FFE00
1FFF00
0BFFD0
07FFF0
03FFF4
01FFF4
00BFF8
002FF8
0006F4
ENDCHAR
STARTCHAR parenright
ENCODING 41
SWIDTH 338 0
DWIDTH 12 0
BBX 11 35 0 -5
BITMAP
2A5000
3FF800
3FFE00
2FFF80
2FFFE0
2FFFF0
2FFFF4
1FFFF4
1FFFF4
1FFFF4
1FFFF4
1FFFF4
06FFF4
007FF4
003FF4
003FF4
002FF4
002FF0
002FF0
002FF0
002FF0
002FF0
003FE0
003FE0
003FD0
007FD0
00BFC0
00FF80
00FF40
06FF00
2FFD00
3FF800
7FE000
3FC000
294000
ENDCHAR
STARTCHAR asterisk
ENCODING 42
SWIDTH 513 0
DWIDTH 18 0
BBX 17 21 1 8
BITMAP
0000050000
00100B4000
00B00BC000
02F81FC000
02FD2FC000
01FE7F4000
00FFBF4000
00BFFF0000
007FFD0000
FABFFEA900
FFFFFFFF80
FFFFFFFF00
BFFFFFFF00
016FFD0000
002FFE0000
003FFF0000
007FBF4000
00BF3FC000
00FE2FC000
01FD0FC000
0118010000
ENDCHAR
STARTCHAR plus
ENCODING 43
SWIDTH 458 0
DWIDTH 17 0
BBX 14 15 1 6
BITMAP
006A9000
007FE000
007FE000
003FE000
157FE050
7FFFFFE0
7FFFFFE0
7FFFFFE0
7FFFFFE0
7FFFFFE0
007FE040
007FE000
007FE000
007FE000
006A9000
ENDCHAR
STARTCHAR comma
ENCODING 44
SWIDTH 361 0
DWIDTH 13 0
BBX 11 19 1 -6
BITMAP
050000
3FFFF0
3FFFF0
3FFFF0
3FFFF0
7FFFF0
7FFFF4
7FFFF0
7FFFF0
7FFFF0
7FFFF0
145BF0
000BF0
000FE0
000FE0
001FD0
001FD0
001FC0
000400
ENDCHAR
STARTCHAR hyphen
ENCODING 45
SWIDTH 478 0
DWIDTH 17 0
BBX 13 8 2 10
BITMAP
55454540
FFFFFFC0
FFFFFF80
FFFFFF40
FFFFFF40
FFFFFF40
FFFFFF40
06A15600
ENDCHAR
STARTCHAR period
ENCODING 46
SWIDTH 374 0
DWIDTH 13 0
BBX 11 12 1 1
BITMAP
056A90
7FFFF8
2FFFF8
2FFFF4
2FFFF4
1FFFF8
1FFFF8
1FFFF8
1FFFF8
1FFFF4
1FFAF4
054000
ENDCHAR
STARTCHAR slash
ENCODING 47
SWIDTH 291 0
DWIDTH 11 0
BBX 12 32 -1 -4
BITMAP
00007D
0000BC
0000FC
0001FC
0002F8
0003F0
0003F0
0003F0
0007E0
000BD0
000FC0
001F80
003F40
007F00
00BE00
00BD00
00FC00
01F800
02F800
02F400
03F000
03E000
03D000
07C000
0B8000
0F8000
1F4000
2F0000
3E0000
7E0000
290000
040000
ENDCHAR
STARTCHAR zero
ENCODING 48
SWIDTH 528 0
DWIDTH 19 0
BBX 17 30 1 -3
BITMAP
0016540000
00BFFF4000
03FFFFE000
0BFFFFF400
1FFFFFFD00
3FFFFFFF00
3FFFFFFF00
7FFFFFFF00
7FFFFFFF00
7FFFFFFF40
3FFFFFFF40
3FFFFFFF00
3FFD3FFF40
3FF82FFF40
3FF42FFF00
3FF41FFF00
3FF41FFF00
2FF40FFF00
2FF41FFE00
2FF41FFE00
1FF42FFC00
1FF82FF800
0FFC3FF400
0FFEBFF400
0FFFFFF000
07FFFFD000
027FFF8000
001AFE4000
0001F40000
0000100000
ENDCHAR
STARTCHAR one
ENCODING 49
SWIDTH 366 0
DWIDTH 13 0
BBX 12 28 0 -1
BITMAP
0001A4
001BFC
06FFFC
7FFFFC
BFFFFC
7FFFFC
39FFFE
00FFFE
00FFFD
00FFFD
00BFFC
00BFFC
00BFFC
00BFF4
007FF8
007FF8
007FF8
007FF8
003FF4
003FF0
003FF4
003FF4
002FF4
002FF0
002FF0
002FF0
0015F4
000014
ENDCHAR
STARTCHAR two
ENCODING 50
SWIDTH 575 0
DWIDTH 21 0
BBX 19 31 1 -4
BITMAP
001AA50000
00BFFFC000
06FFFFE000
0FFFFFFD00
2FFFFFFE00
3FFFFFFF40
3FFFFFFF80
3FFFFFFF80
3FFFFFFF80
3FFFFFFF80
3FFFFFFF80
3FFFFFFF80
3FFE6FFF40
2FFD0FFF40
2FFC1FFF00
1EF87FFF00
0000BFFE00
00007FFD00
0000BFF800
0000FFF400
0002FFE000
0007FFD000
002FFFFAAC
19BFFFFFFC
2FFFFFFFF8
3FFFFFFFF8
3FFFFFEFF4
7FFFFD5EF4
7FE99009E0
15400005C0
0000000080
ENDCHAR
STARTCHAR three
ENCODING 51
SWIDTH 517 0
DWIDTH 19 0
BBX 16 29 1 -2
BITMAP
00195400
01FFFE00
0BFFFF80
2FFFFFE0
BFFFFFF4
BFFFFFFC
BFFFFFFD
7FFFFFFE
7FFFFFFE
7FFFFFFE
7FFFFFFE
3FFFFFFE
3FFD3FFE
3FFC3FFE
3EA43FFD
14007FFC
0006FFFC
000BFFF8
000BFFF8
0006BFFD
00000BFE
00000BFE
01BF87FE
02FF87FD
01FFEFFC
00BFFFF4
007FFFE0
002FFFD0
000E9540
ENDCHAR
STARTCHAR four
ENCODING 52
SWIDTH 466 0
DWIDTH 17 0
BBX 15 35 1 -8
BITMAP
2AA95AF8
2FFFFFD0
07FFFE00
07FFFC00
0BFFF400
0FFFE000
0FFFF000
0FFFE000
0FFFD000
1FFFC000
1FFF8000
1FFF4000
1FFF4000
1FFF4000
0FFF0000
0FFE6A50
1FFDBFE0
1FFDBFD0
2FFCBFC0
2FFC7F80
2FF87F80
3FF97F80
3FFFFFFC
7FFFFFF8
7FFFFFF8
BFFFFFF8
BFFFFFF8
541AFFF8
00003F94
00003F00
00002F00
00002F00
00002F00
00002E00
00001600
ENDCHAR
STARTCHAR five
ENCODING 53
SWIDTH 583 0
DWIDTH 21 0
BBX 19 29 1 -2
BITMAP
2AAAA95400
3FFFFFFFFC
3FFFFFFFFC
3FFFFFFFF8
3FFFFFFFF8
2FFFFFFFF4
3FFFFFFFF4
3FFFFFFFF0
3FFFFFFFF0
3FFFFFFFF0
3FFFFFFFE0
2FFFFFFFE0
2FFEFFFFE0
7FFC015590
7FFC000000
2FFC000000
2FFEBFF800
2FFFFFF400
0FFFFFF800
055ABFFC00
00000BFD00
000007FD00
01BF87FD00
02FF87FC00
00FFEFF800
00BFFFF000
003FFFE000
002FFFD000
000A914000
ENDCHAR
STARTCHAR six
ENCODING 54
SWIDTH 582 0
DWIDTH 21 0
BBX 19 30 1 -3
BITMAP
0005540000
01FFFFE000
03FFFFFD00
2FFFFFFF40
7FFFFFFFD0
7FFFFFFFE0
BFFFFFFFF4
BFFFFFFFF8
BFFFFFFFF4
7FFFFFFFF4
7FFFFFFFF0
7FFFFFFFF0
3FFE6FFFE0
3FFE0BFFD0
2FFE07FFC0
2FFD03FFC0
1FFD016FC0
0FFE650140
0BFFFFE900
07FFFFFF80
07FF56FFC0
07FF00FFC0
03FF40FFC0
03FF81FF80
02FFD7FFC0
01FFFFFFC0
00FFFFFFC0
007FFFFF80
002EFFFE00
0004891400
ENDCHAR
STARTCHAR seven
ENCODING 55
SWIDTH 624 0
DWIDTH 22 0
BBX 22 31 0 -4
BITMAP
000556AAAAA0
6BFFFFFFFFF0
7FFFFFFFFFE0
3FFFFFFFFFE0
2FFFFFFFFFC0
2FFFFFFFFF80
1FFFFFFFFF80
1FFFFFFFFF40
0FFFFFFFFF00
0FFFFFFFFE00
0FFFFFFFFD00
0BFFFFFFFC00
0BFFFFBFF800
0655403FFC00
0000007FF400
000000BFF000
000000FFE000
000001FFC000
000002FF8000
000007FF4000
00000BFE0000
00000FFC0000
00001FF80000
00002FF40000
00003FF00000
00007FD00000
0000BFC00000
0000FF800000
0001FF400000
0003FF000000
000005000000
ENDCHAR
STARTCHAR eight
ENCODING 56
SWIDTH 459 0
DWIDTH 17 0
BBX 14 30 1 -3
BITMAP
01AA9400
1FFFFF40
3FFFFFD0
BFFFFFF0
BFFFFFF0
BFFFFFF0
BFFFFFF0
7FFFFFF0
7FFFFFE0
3FFFFFE0
3FFFFFD0
2FFAFFD0
2FF0BFC0
1FF4BFC0
1FF4BF80
0FF9BF80
0BFFFF40
07FFFE00
02FFFD00
07FFFF00
0BF5FF00
07E0BF00
07F0BF00
07F0FE00
07F9FE00
03FFFE00
02FFFD00
00FEF800
00145000
00040000
ENDCHAR
STARTCHAR nine
ENCODING 57
SWIDTH 584 0
DWIDTH 21 0
BBX 19 32 1 -5
BITMAP
0000594000
002FFFF000
00FFFFFE00
02FFFFFF80
0BFFFFFFE0
1FFFFFFFE0
2FFFFFFFE0
7FFFFFFFF0
7FFFFFFFF0
7FFFFFFFF4
BFFFFFFFF4
BFFFFFFFF4
7FFF4BFFF4
7FFF03FFF8
3FFF43FFF4
2FFFEBFFF4
1FFFFFFFF0
0BFFFFFFE0
02FFFFFFD0
001A57FFC0
000003FF80
06AA03FF40
1FFF47FF00
0FFF5FFE00
0BFFFFFC00
07FFFFF400
02FFFFF000
00BABEA000
0010545000
0000540000
0000500000
0000100000
ENDCHAR
STARTCHAR colon
ENCODING 58
SWIDTH 386 0
DWIDTH 14 0
BBX 11 30 1 1
BITMAP
001A50
6FFFF8
3FFFF8
2FFFF8
1FFFF4
1FFFF8
1FFFF8
1FFFF8
1FFFF8
0FFFF8
0FFFF8
0A4000
000000
000000
000000
000000
000000
000000
05AA90
7FFFF4
3FFFF4
3FFFF4
2FFFF4
2FFFF8
2FFFF8
1FFFF8
1FFFF4
0FFFF4
0FFAB4
054000
ENDCHAR
STARTCHAR semicolon
ENCODING 59
SWIDTH 375 0
DWIDTH 14 0
BBX 11 37 1 -6
BITMAP
016A90
7FFFF4
7FFFF4
3FFFF4
2FFFF4
2FFFF4
1FFFF4
2FFFF4
2FFFF4
1FFFF4
1FFFF4
1A0000
000000
000000
000000
000000
000000
000000
050040
3FEBF4
3FFFF4
2FFFF4
2FFFF4
2FFFF4
2FFFF4
3FFFF0
3FFFF4
3FFFF4
3FFFF4
145BF4
000BF0
000FF0
000FE0
001FE0
001FE0
001FD0
000550
ENDCHAR
STARTCHAR less
ENCODING 60
SWIDTH 459 0
DWIDTH 17 0
BBX 15 20 1 2
BITMAP
007FFFF4
007FFFE0
00BFFF80
00FFFE00
02FFFD00
07FFF400
1FFFF000
7FFFD000
BFFF4000
BFFF0000
7FFF8000
2FFFD000
1FFFD000
07FFF000
02FFF800
00BFFE00
003FFF80
000FFFE0
0002FFF4
00000580
ENDCHAR
STARTCHAR equal
ENCODING 61
SWIDTH 485 0
DWIDTH 17 0
BBX 13 12 2 10
BITMAP
AFEAAA80
BFFFFFC0
BFFFFFC0
BFFFFFC0
16955640
00000000
00000000
A96AAA80
BFFFFFC0
BFFFFFC0
BFFFFFC0
06A55640
ENDCHAR
STARTCHAR greater
ENCODING 62
SWIDTH 432 0
DWIDTH 16 0
BBX 14 20 1 3
BITMAP
00010000
BFFFC000
7FFFC000
2FFFD000
0BFFE000
03FFF400
01FFFC00
00BFFF00
003FFF80
000FFFD0
000BFFD0
002FFF80
002FFF80
007FFF40
00FFF800
03FFF400
1FFFE000
7FFFD000
BFFF4000
7FFE0000
ENDCHAR
STARTCHAR question
ENCODING 63
SWIDTH 577 0
DWIDTH 21 0
BBX 16 32 2 -4
BITMAP
01BFF900
07FFFF40
2FFFFFE0
7FFFFFF8
FFFFFFFD
FFFFFFFE
FFFFFFFF
FFFFFFFF
FFFFFFFF
FFFFFFFF
BFFDFFFF
BFF47FFE
7FF43FFE
00007FFD
0000BFFC
0001FFF0
0002FFE0
0003FFD0
0003FF80
0003FF00
0007FD00
000BE800
00010000
00000000
00004000
00BFFC00
007FFC00
003FFC00
003FFC00
003FFC00
002FFC00
002A6800
ENDCHAR
STARTCHAR at
ENCODING 64
SWIDTH 930 0
DWIDTH 33 0
BBX 32 39 1 -8
BITMAP
000001BEA5000000
00001FFFFF800000
0000BFFFFFF40000
0002FFFFFFFD0000
000BFFE95BFF4000
002FF90000BFD000
007F8000401FF400
00FD02FFFE07FC00
01F81FFFFF82FE00
03F03FFFFFE1FF40
0BD07FFFFFF0BFC0
0FC0BFFFFFF07FE0
1F80FFFFFFF03FF0
2F40FFFFFFE02FF4
3F40BFFFFFE02FF8
7F007FFFFFD01FFC
7F007FFDBFD01FFD
BF003FF47FD01FFD
FF002FF03FC01FFD
7E003FE03FC00FFD
7F0015057FC00FFD
7F0006BFFFC00BFD
7F002FFFFFD007FC
7F402FE03FE007FC
7F802FE03FF407F8
3F802FE07FFC03F4
3FC02FF9FFFF47F0
2FD02FFFFFFFFFE0
1FF02FFFFFAFFFD0
0FF40FFFFE1FFE40
07FC01599406A400
03FE000000000000
01FF400000000000
00BFD00000000000
002FF40001400000
000BFFEAFFC00000
0002FFFFFFE00000
00006FFFFFE00000
000006BFA9000000
ENDCHAR
STARTCHAR A
ENCODING 65
SWIDTH 494 0
DWIDTH 18 0
BBX 16 34 1 -8
BITMAP
ABFFFEA5
7FFFFFFD
0BFFFFF0
07FFFFD0
07FFFFC0
03FFFFC0
03FFFF80
03FFFF80
07FFFF80
07FFFF80
03FFFF40
03FFFF40
03FFFF40
03FEFF40
03FDFF40
07FCBF40
07FCBF40
07F8BF40
03F4BF40
03FFFF40
07FFFF40
0BFFFF40
07FFFF00
07FFFF00
03FDFE00
03F8BD00
03F4BD00
03F0BD00
02605C00
02100C00
01000800
00001400
00004000
00004000
ENDCHAR
STARTCHAR B
ENCODING 66
SWIDTH 517 0
DWIDTH 19 0
BBX 17 29 1 -2
BITMAP
0056AA4000
6FFFFFF800
BFFFFFFE00
2FFFFFFF40
0FFFFFFF40
0BFFFFFF40
07FFFFFF40
07FFFFFF00
07FFFFFF00
07FFFFFF00
03FFFFFE00
03FFAFFE00
03FF47FD00
02FF47FC00
02FF47FC00
02FF97F800
03FFFFF400
03FFFFE000
02FFFFD000
02FFFFF000
01FF5BF400
01FF0BF400
00FF0BF000
00FF0BF000
00FF9FF000
00FFFFF000
00FFFFD000
00C3EFC000
0001410000
ENDCHAR
STARTCHAR C
ENCODING 67
SWIDTH 504 0
DWIDTH 18 0
BBX 17 31 1 -4
BITMAP
001AA90000
00BFFF9000
06FFFFE400
1FFFFFFC00
3FFFFFFE00
7FFFFFFF40
BFFFFFFF40
FFFFFFFF40
FFFFFFFF40
FFFFFFFF40
FFFFFFFF40
BFFFFFFF00
BFFE6FFF00
7FFD0FFF00
7FFD0BFF00
3FFD0BEE00
3FFD000000
2FFC000000
2FFC000000
1FFC000000
1FFC0FE400
0FFC1FFC00
0FFD1FF400
0BFE7FF400
03FFFFF000
03FFFFD000
02FFFF8000
006DBF0000
0008A90000
0008940000
0004540000
ENDCHAR
STARTCHAR D
ENCODING 68
SWIDTH 522 0
DWIDTH 19 0
BBX 17 32 1 -5
BITMAP
0000054000
15ABFFE000
7FFFFFF800
7FFFFFFE00
3FFFFFFF80
2FFFFFFF80
1FFFFFFFC0
0FFFFFFFC0
0BFFFFFFC0
0BFFFFFFC0
0BFFFFFFC0
07FFFFFF80
07FFD7FF80
07FF81FF40
07FF40FF40
03FF40FF00
03FF40FE00
03FF40FE00
02FF40FD00
02FF41FD00
01FF42FC00
01FF82FC00
00FFDBFC00
00FFEFFC00
00FFFFF800
00FFFFF400
00F4BFE000
00D0BF4000
0090780000
0090680000
0040600000
0000500000
ENDCHAR
STARTCHAR E
ENCODING 69
SWIDTH 570 0
DWIDTH 21 0
BBX 18 29 1 -2
BITMAP
0155554000
BFFFFFFFA0
7FFFFFFFE0
2FFFFFFFC0
0FFFFFFFC0
0BFFFFFF80
0BFFFFFF80
0BFFFFFF40
0BFFFFFF00
0BFFFFFE00
07FFFFFD00
07FFFFFC00
07FF81BC00
07FF800000
03FF800000
03FFFF8000
03FFFFD000
03FFFFC000
02FFFFC000
02FFFFC000
01FF404000
01FF400000
01FFAA5000
00FFFFE000
00FFFFE000
00EBFFD000
00C2FAD000
00C2B08000
0042508000
ENDCHAR
STARTCHAR F
ENCODING 70
SWIDTH 559 0
DWIDTH 20 0
BBX 18 30 1 -3
BITMAP
0015410000
BFFFFFFE90
7FFFFFFFD0
1FFFFFFF80
0BFFFFFF40
03FFFFFF00
02FFFFFF00
02FFFFFE00
02FFFFFE00
02FFFFFE00
02FFFFFD00
02FFFFFD00
01FFEEFD00
00FFD01A00
00FFE00000
00FFFFF800
00FFFFF400
00FFFFF400
00FFFFF400
00BFFAB400
007FE00400
007FE00000
00BFE00000
00BFE00000
00FFE00000
00FFF00000
00FFF00000
009BA00000
0042100000
0041000000
ENDCHAR
STARTCHAR G
ENCODING 71
SWIDTH 499 0
DWIDTH 18 0
BBX 17 31 1 -4
BITMAP
0005500000
00BFFE0000
1BFFFFD000
3FFFFFF800
7FFFFFFC00
7FFFFFFE00
BFFFFFFF00
BFFFFFFF40
BFFFFFFF40
BFFFFFFF00
7FFFFFFF00
7FFFFFFE00
7FF87FFE00
3FF42FFD00
3FF42FFD00
2FF41FFD00
2FF4015500
1FF4955000
1FF4BFFD00
1FF8BFFD00
1FF87FFD00
0FFC5BFD00
0FFC0BFD00
0BFE1FFD00
07FFFFFC00
03FFFFF800
02FFFFF400
00B9FFE000
0015774000
0024120000
0014000000
ENDCHAR
STARTCHAR H
ENCODING 72
SWIDTH 726 0
DWIDTH 26 0
BBX 25 34 0 -7
BITMAP
00001505550000
005BFE07FFFE40
6FFFFD07FFFF80
0BFFF803FFFF00
03FFFC01FFFD00
03FFFC02FFFC00
02FFFC03FFF800
02FFF807FFF400
01FFF807FFF000
00FFF807FFE000
00FFF807FFE000
00BFF807FFD000
00BFF807FFC000
007FF807FF8000
007FF80BFF8000
003FFFFFFF4000
003FFFFFFF0000
002FFFFFFF0000
002FFFFFFF0000
002FFE5FFF0000
001FF80FFE0000
001FFC0FFD0000
001FFC1FFD0000
001FFC1FFD0000
000FFC1FFC0000
000FFC1FFC0000
000FFC2FF80000
001E540FF80000
0014000A680000
00000001100000
00000000000000
00000010000000
00000020000000
00000020000000
ENDCHAR
STARTCHAR I
ENCODING 73
SWIDTH 401 0
DWIDTH 14 0
BBX 14 29 0 -2
BITMAP
1AA6AA40
7FFFFFD0
2FFFFF40
0BFFFF40
02FFFE00
01FFFD00
00BFFF00
00BFFE00
00FFFE00
00FFFD00
00FFFD00
00FFFD00
00FFFC00
00FFF800
00FFF800
00BFF800
00BFF800
00BFF800
007FF400
007FF400
003FF400
003FF400
003FF400
002FF400
002FF400
001FF400
0018F400
00189400
00048000
ENDCHAR
STARTCHAR J
ENCODING 74
SWIDTH 455 0
DWIDTH 16 0
BBX 16 29 -1 -2
BITMAP
00015540
0007FFFE
0003FFFE
0002FFFC
0001FFFC
0000FFF8
0000BFF4
0000BFE0
0000FFE0
0001FFE0
0001FFE0
0001FFE0
0001FFE0
0001FFD0
0001FFC0
0001FFC0
0000FF80
0001FF80
16C1FF40
BFC1FF40
BFC1FF40
7FC2FF00
7FD3FF00
7FFBFE00
3FFFFD00
2FFFFC00
06E7E800
00538400
00010000
ENDCHAR
STARTCHAR K
ENCODING 75
SWIDTH 580 0
DWIDTH 21 0
BBX 20 29 0 -2
BITMAP
0564101400
7FFFF0BFE9
1FFFF0BFFD
07FFF0BFF4
03FFF0FFD0
01FFF1FF40
00FFF1FD00
00BFF2FC00
007FF7FC00
007FFFF800
003FFFF400
003FFFF400
003FFFF800
003FFFF800
002FFFF800
002FFFF800
001FFFF800
001FFFF800
000FFFFC00
000FFFF800
000FFFFC00
000FFBFD00
000FE1FE00
000BE0FE00
000BF0BF00
000BF07F40
000BF0BF40
0002247640
0000140100
ENDCHAR
STARTCHAR L
ENCODING 76
SWIDTH 416 0
DWIDTH 15 0
BBX 16 30 0 -3
BITMAP
55554540
6FFFFF00
0FFFF800
0BFFF400
0BFFE000
07FFE000
07FFF000
03FFF000
03FFE000
03FFE000
03FFE000
03FFD000
02FFE000
01FFE000
01FFE000
01FFE000
01FFE000
01FFE000
00BFE000
00BFE000
00FFE000
00BFF000
00BFFFAB
007FFFFE
007FFFFE
003FFFFD
002FFBFD
0019A7FD
00046128
00000010
ENDCHAR
STARTCHAR M
ENCODING 77
SWIDTH 740 0
DWIDTH 27 0
BBX 25 30 1 -2
BITMAP
00000014100000
016AF82EF94000
BFFFF41FFFFA40
7FFFF82FFFFE00
2FFFFC2FFFF400
0FFFFD3FFFF000
0BFFFE7FFFF000
0BFFFF7FFFF000
0BFFFFBFFFE000
07FFFFFFFFE000
03FFFFFFFFD000
03FFFFFFFFD000
03FFFFFFFFD000
02FFFFFFFFD000
03FFFFFFFFD000
02FFFFFFFFD000
01FFFFFEFFD000
01FFEFFEFFD000
00FFDFFAFFD000
00FFCFF9FFC000
00BFDBF5FFC000
00BFDBF5FFC000
007FEBF5FF8000
007FE7F1FF4000
003FE3E1FF4000
003FE2E2FF4000
003BE1D3EF0000
003611850B0000
00290000060000
00040000000000
ENDCHAR
STARTCHAR N
ENCODING 78
SWIDTH 610 0
DWIDTH 22 0
BBX 20 33 1 -6
BITMAP
0005825000
7FFFC2FFE5
BFFFC1FFFD
6FFFD0FFF8
0FFFE0FFE0
0FFFF0FFD0
0BFFF8FFD0
0BFFFCFFD0
0BFFFDFFD0
0BFFFEFFC0
07FFFFFFC0
07FFFFFFC0
07FFFFFF80
03FFFFFF80
03FFFFFF40
03FFFFFF40
02FFFFFF40
01FFFFFF00
01FFBFFF00
00FF7FFF00
00FF6FFF00
00FF5FFF00
00BF4FFE00
00BF4BFE00
00BF47FE00
00BF87FD00
007F83FD00
007F82ED00
007982E800
0060819800
0060410000
0020810000
0010400000
ENDCHAR
STARTCHAR O
ENCODING 79
SWIDTH 504 0
DWIDTH 18 0
BBX 17 30 1 -3
BITMAP
0005540000
00BFFE4000
07FFFFF000
1FFFFFF900
3FFFFFFE00
BFFFFFFF00
FFFFFFFF00
FFFFFFFF00
BFFFFFFF40
BFFFFFFF00
BFFFFFFF00
BFFFFFFF00
7FFD3FFF40
7FF82FFF40
3FF81FFF00
3FF41FFF00
2FF41FFF00
2FF41FFF00
2FF81FFD00
1FF81FFC00
1FF82FFC00
0FFC2FFC00
0BFD2FF400
0BFE7FF400
0BFFFFF000
03FFFFD000
01FFFFC000
002D3EC000
000C388000
0004340000
ENDCHAR
STARTCHAR P
ENCODING 80
SWIDTH 545 0
DWIDTH 20 0
BBX 18 29 1 -2
BITMAP
0055665400
BFFFFFFE00
7FFFFFFF80
1FFFFFFFC0
0BFFFFFFD0
07FFFFFFE0
03FFFFFFE0
03FFFFFFD0
03FFFFFFC0
02FFFFFFC0
02FFFFFFC0
02FFEAFFC0
01FFE0BF80
01FFE07F80
00FFE07F80
00FFE07F80
00BFE07F40
00BFFABF40
007FFFFF00
007FFFFE00
007FFFF800
007FF55000
003FF00000
003FF00000
003FF00000
002FF00000
002FF00000
001EF00000
0004500000
ENDCHAR
STARTCHAR Q
ENCODING 81
SWIDTH 520 0
DWIDTH 19 0
BBX 18 32 1 -5
BITMAP
0001540000
001FFF4000
01FFFFE000
1FFFFFFC00
3FFFFFFE00
3FFFFFFF40
7FFFFFFF80
FFFFFFFF80
FFFFFFFF80
FFFFFFFF80
FFFFFFFFC0
FFFF8BFF80
BFFF47FF80
BFFF07FF80
7FFF07FF80
3FFF03FF80
2FFE03FF80
1FFE03FF40
1FFE03FF40
1FFF03FF40
0FFF47FF00
0BFF8BFF00
03FFCFFE00
02FFFFFD00
00FFFFFC00
003FFFFE00
000FFFFF90
0007FFFFC0
000055FF40
0000007D00
0000001C00
0000000400
ENDCHAR
STARTCHAR R
ENCODING 82
SWIDTH 599 0
DWIDTH 22 0
BBX 20 30 1 -3
BITMAP
0006A95400
5BBFFFFE00
FFFFFFFFD0
2FFFFFFFF8
1FFFFFFFFD
07FFFFFFFE
03FFFFFFFE
01FFFFFFFE
01FFFFFFFE
01FFFFFFFE
01FFFFFFFE
01FFF5BFFE
00FFF02FFD
00FFF02FFD
00BFF02FFD
00BFF47FFC
007FFFFFF4
007FFFFFF0
003FFFFFF0
002FFFFF80
002FFEFF80
002FF4FFC0
002FF0BFD0
001FF4BFD0
001FF4BFD0
000FF47FD0
000FF47FE0
000AD42FE0
00008419A0
0000400000
ENDCHAR
STARTCHAR S
ENCODING 83
SWIDTH 504 0
DWIDTH 18 0
BBX 17 30 1 -3
BITMAP
0001640000
006FFF8000
02FFFFF400
0FFFFFFD00
2FFFFFFF40
2FFFFFFF40
7FFFFFFF40
BFFFFFFF40
FFFFFFFF00
FFFFFFFF00
FFFFFFFF00
FFFFFFFF00
FFFD2FFF00
FFFC2FFF00
BFFE055600
7FFFE40000
3FFFFF4000
1FFFFFE000
02FFFFF400
006FFFFC00
00017FFC00
06A82FFC00
3FFD1FF800
2FFE7FF800
1FFFFFF000
0BFFFFD000
07FFFFC000
01FAEA8000
0044510000
0000100000
ENDCHAR
STARTCHAR T
ENCODING 84
SWIDTH 622 0
DWIDTH 22 0
BBX 20 31 1 -4
BITMAP
0015555000
6BFFFFFF95
7FFFFFFFFF
2FFFFFFFFE
1FFFFFFFFC
0FFFFFFFF4
0BFFFFFFF8
07FFFFFFF8
07FFFFFFF8
07FFFFFFF4
07FFFFFFF4
03FFFFFFF0
03FFFFFBF0
0251FFE060
0000FFE000
0000FFE000
0000FFE000
0000FFE000
0000FFD000
0000FFE000
0000FFD000
0000FFD000
0000FFD000
0000BFD000
0000BFD000
0000BFD000
0000BFD000
0000BFD000
0000BFD000
0000BE4000
0000810000
ENDCHAR
STARTCHAR U
ENCODING 85
SWIDTH 637 0
DWIDTH 23 0
BBX 22 29 0 -2
BITMAP
005AA4100000
6FFFF02FFA40
0BFFF02FFFE0
07FFF02FFF80
03FFF03FFF40
03FFE02FFF00
03FFF02FFF00
02FFF43FFE00
02FFF43FFD00
01FFF43FFC00
01FFF43FFC00
00FFF43FF800
00FFF03FF400
00FFF03FF400
00BFE07FF000
00BFE07FF000
00FFE07FF000
00FFF07FF000
00BFF07FE000
00BFF4BFE000
007FF4BFE000
003FF4BFD000
003FFEFFD000
002FFFFFC000
002FFFFF8000
001FF6FF4000
0007B1540000
000241140000
000100200000
ENDCHAR
STARTCHAR V
ENCODING 86
SWIDTH 570 0
DWIDTH 21 0
BBX 21 30 0 -3
BITMAP
015A80655540
7FFF40BFFF00
0FFF80FFFD00
03FF80FFF800
03FFC1FFF000
02FF81FFE000
01FF82FFD000
01FFC2FFC000
01FFC3FF8000
00FFC3FF8000
00FFD7FF4000
00FFD7FF0000
00FFCBFE0000
00FFCBFE0000
00FFCFFD0000
00BFDFFD0000
00BFDFFC0000
007FDFFC0000
007FEFF80000
007FFFF40000
003FFFF00000
002FFFF00000
002FFFE00000
001FFFD00000
000FFFD00000
000FFF800000
000FFF800000
000BFF400000
0007FB400000
00005A000000
ENDCHAR
STARTCHAR W
ENCODING 87
SWIDTH 777 0
DWIDTH 28 0
BBX 28 29 0 -1
BITMAP
00000015000000
0000007F025400
005BE07F02FF90
1BFFF0BF42FFFE
6FFFE0FF43FFF4
07FFF0FF8BFFC0
01FFF1FFCBFF40
00BFF6FFCFFE00
003FF6FFEFFC00
002FFAFFFFF800
002FFBFFFFF000
001FFFFFFFE000
001FFFFFFFD000
000BFFFFFFC000
0003FFFFFF8000
0002FFFFFFC000
0001FFFFFFC000
0000FFFFFF8000
0000BFFFFF4000
0000BFFBFF0000
00007FEBFF0000
00003FEBFF0000
00003FD7FE0000
00002FD7FC0000
00001FC7F80000
00000FC3F40000
00000BC3F40000
00000595B00000
00000040000000
ENDCHAR
STARTCHAR X
ENCODING 88
SWIDTH 587 0
DWIDTH 21 0
BBX 21 29 0 -2
BITMAP
001540500000
5AFFE0BFA400
5FFFF0BFFF80
02FFF0FFFE00
00BFF5FFE000
003FFAFF8000
002FFFFF0000
000FFFFE0000
000BFFFD0000
0003FFFC0000
0003FFF80000
0002FFF80000
0002FFF80000
0002FFF40000
0002FFF00000
0001FFE00000
0001FFE00000
0000BFE00000
0000FFE00000
0001FFE00000
0001FFE00000
0002FFF00000
0002FFF00000
0003FBF80000
0003F3FC0000
0007F2FC0000
000BF2FD0000
000FE1AE0000
000900010000
ENDCHAR
STARTCHAR Y
ENCODING 89
SWIDTH 688 0
DWIDTH 25 0
BBX 25 29 0 -2
BITMAP
0056A001800000
6FFFF802FA5000
0BFFFC03FFFE40
01FFFE03FFFE40
002FFF47FFF400
000BFF8FFFD000
0007FFEFFF4000
0000FFFFFE0000
00007FFFF80000
00003FFFF40000
00002FFFF40000
00000FFFF00000
00000FFFF00000
00000BFFE00000
000003FFE00000
000002FFE00000
000001FFE00000
000000FFD00000
000000FFD00000
000000BFD00000
000000BFD00000
0000007FD00000
0000007FD00000
0000007FD00000
0000007FC00000
0000003FC00000
0000003FC00000
0000003E400000
00000010000000
ENDCHAR
STARTCHAR Z
ENCODING 90
SWIDTH 695 0
DWIDTH 25 0
BBX 24 28 1 -1
BITMAP
005A9AA54000
1BFFFFFFEA40
BFFFFFFFFFF9
7FFFFFFFFFF8
2FFFFFFFFFF0
1FFFFFFFFFE0
0BFFFFFFFFC0
07FFFFFFFF80
03FFFFFFFF40
02FFFFFFFE00
01FFFFFFFD00
01FFFFFFF800
01FE5BFFF000
01E00FFF8000
00402FFE0000
00007FF80000
0000BFF40000
0000FFD00000
0001FF800000
0001FF400000
0003FE000000
0007FC000000
000FFFFA0000
001FFFFF4000
002FFFFE0000
003FFFFD0000
002EBFFC0000
000411B40000
ENDCHAR
STARTCHAR bracketleft
ENCODING 91
SWIDTH 410 0
DWIDTH 15 0
BBX 13 32 2 -1
BITMAP
7FEAA400
7FFFFD00
7FFFFE00
7FFFFE00
7FFFFE00
7FFFFE00
7FFFFE00
7FF55500
7FF00000
BFE00000
BFE00000
BFE00000
BFE00000
BFE00000
BFE00000
FFE00000
BFE00000
BFF00000
FFF00000
FFF00000
FFF00000
FFF00000
FFF00000
BFF00000
BFF00000
7FF00000
7FF00000
3FFFFF40
3FFFFE00
3FFFFD00
2FF7F800
19129000
ENDCHAR
STARTCHAR backslash
ENCODING 92
SWIDTH 292 0
DWIDTH 11 0
BBX 11 31 0 -3
BITMAP
B80000
7D0000
7E0000
7F0000
3F4000
1F8000
1F8000
1F8000
0FC000
0BD000
07E000
03F000
02F800
01FC00
00FD00
00FD00
00BE00
003F00
003F00
002F40
001F80
001F40
000B80
0007C0
0007D0
0003E0
0002F0
0001F4
0000F8
0000F8
000098
ENDCHAR
STARTCHAR bracketright
ENCODING 93
SWIDTH 407 0
DWIDTH 15 0
BBX 13 32 0 -1
BITMAP
0BFFFA00
3FFFFF00
3FFFFF00
3FFFFF00
3FFFFF00
3FFFFF00
3FFFFF00
155BFF00
0007FF00
0003FF00
0003FF40
0003FF40
0003FF40
0003FF40
0003FF40
0002FF40
0002FF40
0002FF40
0002FF80
0002FF80
0002FF80
0002FF80
0002FF40
0003FF40
0003FF40
0003FF40
0003FF40
BFFFFF40
7FFFFF40
7FFFFF40
3FFFFF40
01551B40
ENDCHAR
STARTCHAR asciicircum
ENCODING 94
SWIDTH 523 0
DWIDTH 19 0
BBX 17 14 1 25
BITMAP
0010050000
007FFE0000
00BFFF4000
00FFFFC000
02FFFFD000
03FFFFF000
07FFBFF400
0FFD2FFC00
1FF81FFD00
2FF40BFF00
7FE003FF40
7FD001FE00
1F4000B800
0100001000
ENDCHAR
STARTCHAR underscore
ENCODING 95
SWIDTH 452 0
DWIDTH 16 0
BBX 14 6 1 -1
BITMAP
2A955690
7FFFFFD0
7FFFFFD0
7FFFFFD0
7FFFFFD0
6AABABD0
ENDCHAR
STARTCHAR grave
ENCODING 96
SWIDTH 444 0
DWIDTH 16 0
BBX 12 9 2 27
BITMAP
038000
0BE000
0BFC00
1FFF40
BFFFD0
6FFFF8
01BFFE
0005BE
000004
ENDCHAR
STARTCHAR a
ENCODING 97
SWIDTH 479 0
DWIDTH 17 0
BBX 18 30 0 -3
BITMAP
056AAAAF90
7FFFFFFF40
1FFFFFFD00
07FFFFFC00
01FFFFF800
01FFFFF800
01FFFFF800
00FFFFF800
00FFFFF800
00FFFFF800
01FFFFF400
01FFFFF400
00FFFFF400
00FFFFF000
00FFEFF400
00FFAFF400
01FF9FF800
01FF5FF400
01FF5FF800
02FF1FF800
02FF0FF400
01FFAFF400
01FFFFF400
02FFFFF400
02FFFFF000
01FF5FF000
01FF0BF000
01FE0BF000
01FD0BF000
00F8005000
ENDCHAR
STARTCHAR b
ENCODING 98
SWIDTH 610 0
DWIDTH 22 0
BBX 20 30 1 -3
BITMAP
0000555540
05BFFFFFE0
BFFFFFFFF8
3FFFFFFFFD
1FFFFFFFFE
0BFFFFFFFE
07FFFFFFFF
01FFFFFFFF
01FFFFFFFF
01FFFFFFFF
01FFFFFFFF
00FFFFFFFE
00FFF43FFD
00BFF42FFC
00BFF42FF8
00BFF43FF4
00BFFE7FF0
007FFFFFD0
007FFFFF40
007FFFFF80
003FFFFFD0
002FF43FE0
003FF03FE0
001FF43FE0
001FF43FD0
001FFEBFD0
000FFFFFC0
001FFFFF40
000826FF00
0000001900
ENDCHAR
STARTCHAR c
ENCODING 99
SWIDTH 534 0
DWIDTH 19 0
BBX 18 29 1 -2
BITMAP
0006AA4000
00BFFFE000
02FFFFFD00
1FFFFFFF40
3FFFFFFF80
7FFFFFFFE0
BFFFFFFFD0
FFFFFFFFD0
FFFFFFFFD0
FFFFFFFFD0
FFFFFFFFD0
BFFFFFFFD0
7FFF8FFFC0
7FFF07FFC0
3FFE03FFC0
2FFF03FF80
2FFF005540
2FFE000000
1FFE000000
0FFE000000
0FFF03E400
0BFF07FD00
07FF4BFC00
07FF8FFC00
02FFEFF800
01FFFFF400
00FFFFE000
006AEF4000
0005160000
ENDCHAR
STARTCHAR d
ENCODING 100
SWIDTH 573 0
DWIDTH 21 0
BBX 20 31 1 -4
BITMAP
0005A50000
6AFFFFF800
7FFFFFFE00
3FFFFFFF80
3FFFFFFFE0
1FFFFFFFF8
0FFFFFFFFC
0BFFFFFFFC
07FFFFFFFD
07FFFFFFFD
03FFFFFFFC
02FFFFFFFC
01FFFFFFF8
01FFF4BFF8
00FFF03FF4
00BFE03FF0
00BFE02FE0
007FE02FD0
007FE02FC0
007FE03FC0
003FE03F80
003FE07F40
003FE0BF40
002FF0BF00
002FF6FF00
002FFFFE00
002FFFFD00
002FFFFC00
001E1FF800
001C0FE000
0014010000
ENDCHAR
STARTCHAR e
ENCODING 101
SWIDTH 632 0
DWIDTH 23 0
BBX 21 29 1 -2
BITMAP
000555550000
1AFFFFFFFA40
FFFFFFFFFF40
7FFFFFFFFE00
2FFFFFFFFC00
0FFFFFFFF800
0BFFFFFFF000
0BFFFFFFF000
07FFFFFFE000
07FFFFFFE000
03FFFFFFE000
03FFFFFFD000
02FFF6AFD000
02FFF0018000
01FFF0000000
01FFF0000000
00FFFFFD0000
00BFFFFD0000
00BFFFFD0000
00BFFFFD0000
007FFEBC0000
007FF0040000
007FF0000000
003FF6950000
003FFFFE0000
002FFFFE0000
001FFFFD0000
001D2FAD0000
000804050000
ENDCHAR
STARTCHAR f
ENCODING 102
SWIDTH 559 0
DWIDTH 20 0
BBX 18 30 1 -3
BITMAP
0115410000
BFFFFFFE90
7FFFFFFFD0
1FFFFFFF80
0BFFFFFF40
03FFFFFF00
02FFFFFF00
02FFFFFE00
02FFFFFE00
02FFFFFE00
02FFFFFD00
02FFFFFD00
01FFEEFD00
00FFD01A00
00FFD00000
00FFFFF000
00FFFFF000
00FFFFF000
00FFFFE000
00BFFAB400
007FE00000
00BFE00000
00BFE00000
00BFE00000
00FFE00000
00FFE00000
00FFE00000
00DBA00000
0083100000
0002100000
ENDCHAR
STARTCHAR g
ENCODING 103
SWIDTH 546 0
DWIDTH 20 0
BBX 18 30 1 -3
BITMAP
0005540000
01FFFFD000
07FFFFFC00
2FFFFFFF00
7FFFFFFF80
BFFFFFFFD0
BFFFFFFFE0
FFFFFFFFF0
FFFFFFFFF0
BFFFFFFFF0
BFFFFFFFF0
7FFFFFFFE0
7FFE6FFFD0
3FFD0FFFD0
3FFD07FFC0
2FFD07FFC0
2FFC01AFC0
1FFC100000
0FFC2F9400
0BFE1FFF80
07FE1FFF80
07FF1FFF80
07FF15FF40
03FF41FF40
03FFDBFF40
02FFFFFF40
01FFFFFF40
00BFFFFF00
002EFFBD00
0008891000
ENDCHAR
STARTCHAR h
ENCODING 104
SWIDTH 730 0
DWIDTH 26 0
BBX 25 29 1 -2
BITMAP
0006A81AA95000
56BFF80FFFFF40
7FFFF00FFFFE00
1FFFF00BFFFC00
0BFFF003FFF800
0BFFF00BFFF000
0BFFF00FFFE000
07FFF00FFFD000
07FFF00FFFC000
07FFF00FFFC000
03FFF00FFFC000
02FFF00FFF8000
02FFF00FFF4000
01FFE00FFF0000
00FFF56FFE0000
00FFFFFFFE0000
00BFFFFFFD0000
00BFFFFFFD0000
00BFFFFFFD0000
00BFF42FFC0000
007FF03FFC0000
007FF03FF80000
007FF03FF80000
007FF03FF40000
003FF03FF40000
003FF07FF00000
003FF06FF00000
0078003FF00000
0000000C600000
ENDCHAR
STARTCHAR i
ENCODING 105
SWIDTH 412 0
DWIDTH 15 0
BBX 14 28 0 -1
BITMAP
0169A400
7FFFFFE0
1FFFFFC0
0BFFFF80
02FFFF00
00FFFE00
00BFFE00
00BFFE00
00BFFD00
00BFFD00
00BFFC00
00BFFC00
00BFF800
00BFF800
00BFF800
007FF800
007FF800
003FF800
003FF400
002FF400
002FF000
002FF400
002FF000
001FF000
001FF000
001FF000
001DF000
0004B000
ENDCHAR
STARTCHAR j
ENCODING 106
SWIDTH 458 0
DWIDTH 17 0
BBX 17 29 -1 -2
BITMAP
0016A50000
001FFFE900
000FFFFE40
0007FFFD00
0003FFFD00
0003FFFC00
0002FFFC00
0001FFF400
0001FFF400
0001FFF400
0001FFF400
0001FFF400
0001FFF400
0001FFF400
0001FFF000
0000FFF000
0000FFE000
0010FFE000
1690FFE000
BFD0FFE000
BFE0BFE000
3FF0FFD000
2FF5FFD000
2FFFFFC000
1FFFFF8000
0BFFFF4000
02FFFF4000
0005B60000
0000010000
ENDCHAR
STARTCHAR k
ENCODING 107
SWIDTH 636 0
DWIDTH 23 0
BBX 22 29 0 -2
BITMAP
00014915A500
16FFEC1FFFE0
6FFFFC2FFF40
07FFF83FFD00
03FFF87FF400
02FFF87FE000
00FFFCBF8000
00BFFCBF8000
007FFCBF4000
003FFDFF4000
002FFDFF0000
002FFDFD0000
002FFEFC0000
001FFEF80000
001FFFF40000
001FFFF40000
001FFFF40000
000FFFF80000
000BFFFC0000
0007FFFE0000
0007FFFE0000
0007FDFF0000
0003FCBF8000
0003F83FC000
0003F82FD000
0003FC0FE000
0002FC1FF000
0001980AA000
000000010000
ENDCHAR
STARTCHAR l
ENCODING 108
SWIDTH 438 0
DWIDTH 16 0
BBX 16 30 1 -3
BITMAP
01556BE0
6FFFFF40
3FFFFC00
1FFFF800
0BFFF000
0FFFE000
0BFFF000
07FFF000
07FFE000
07FFE000
03FFE000
03FFE000
02FFE000
01FFE000
00FFE000
00FFE000
00FFE000
00FFD000
00FFD000
00BFD000
00BFE000
00BFE400
007FFFAE
007FFFFD
007FFFFC
003FFFF8
003FDBF8
003846F4
002400A0
00100040
ENDCHAR
STARTCHAR m
ENCODING 109
SWIDTH 770 0
DWIDTH 28 0
BBX 26 30 1 -3
BITMAP
0000590A6A9000
006BFD0BFFFF90
6FFFFD0BFFFF80
BFFFFE0FFFFE00
2FFFFE1FFFF800
0BFFFF2FFFF800
0BFFFF2FFFF400
0BFFFF7FFFE000
0BFFFFFFFFE000
0FFFFFFFFFE000
07FFFFFFFFD000
03FFFFFFFFD000
03FFFFFFFFC000
03FFFFFFFFC000
03FFFFFFFF8000
02FFFFFFFF8000
02FFFFFFFF4000
01FFEFFBFF4000
01FFDFF7FF0000
01FFDFF7FF0000
00FFCBE7FE0000
00FFCFDBFD0000
00BFDBDBFC0000
00BFD7CBF80000
00BFC78FF40000
00BFC74FF40000
0075C34DF00000
00300004500000
00700000000000
00100000000000
ENDCHAR
STARTCHAR n
ENCODING 110
SWIDTH 664 0
DWIDTH 24 0
BBX 22 31 1 -4
BITMAP
556AA0540050
FFFFF03FFFF0
7FFFF43FFFD0
3FFFF82FFFC0
1FFFFC1FFF40
0FFFFD1FFF00
0FFFFE2FFE00
0FFFFF2FFD00
0FFFFF2FFD00
0BFFFF7FFC00
0BFFFFFFFC00
0BFFFFFFF800
0BFFFFFFF800
07FFFFFFF800
07FFFFFFF400
07FFFFFFF400
03FFFFFFF000
03FFFFFFF000
02FFBFFFE000
01FFAFFFE000
01FF9FFFD000
01FF4FFFD000
01FF4FFFC000
00FF4BFF8000
00FF4BFF8000
00FF47FF0000
00BF43FF0000
00BF43FE0000
00A843F50000
000001590000
000000100000
ENDCHAR
STARTCHAR o
ENCODING 111
SWIDTH 545 0
DWIDTH 20 0
BBX 18 30 1 -3
BITMAP
0006554000
00BFFFE000
07FFFFFD00
1FFFFFFF00
3FFFFFFF80
BFFFFFFFE0
BFFFFFFFE0
FFFFFFFFE0
FFFFFFFFE0
BFFFFFFFF0
BFFFFFFFE0
7FFFFFFFE0
7FFE1FFFF0
7FFD0FFFE0
3FFC0BFFE0
3FFC0BFFD0
2FFC0BFFD0
2FFC07FFC0
1FFC0BFF80
1FFC0BFF40
0FFC0FFF00
0BFD0FFE00
07FE1FFD00
07FF6FFD00
03FFFFFC00
02FFFFF400
015FFFF000
000A2FD000
00001D5000
0000045000
ENDCHAR
STARTCHAR p
ENCODING 112
SWIDTH 557 0
DWIDTH 20 0
BBX 19 29 1 -2
BITMAP
0055555000
BFFFFFFE00
7FFFFFFF80
1FFFFFFFD0
0BFFFFFFF0
07FFFFFFF0
03FFFFFFF4
03FFFFFFF0
03FFFFFFE0
03FFFFFFE0
03FFFFFFE0
02FFEBFFE0
02FFE0BFD0
02FFE07FD0
01FFD07FC0
01FFE07FC0
00FFD0BF80
00FFEABF40
00FFFFFF40
00BFFFFE00
00BFFFFD00
007FF16400
007FF00000
007FF00000
007FE00000
007FF00000
003FF00000
003FF00000
0014500000
ENDCHAR
STARTCHAR q
ENCODING 113
SWIDTH 562 0
DWIDTH 20 0
BBX 19 32 1 -5
BITMAP
0001A94000
002FFFF400
02FFFFFD00
1FFFFFFF80
3FFFFFFFD0
3FFFFFFFE0
7FFFFFFFF0
FFFFFFFFF0
FFFFFFFFF4
FFFFFFFFF4
FFFFFFFFF4
FFFFC2FFF4
BFFF80FFF0
7FFF41FFF0
7FFF40FFF0
3FFF40BFF0
2FFF00BFF0
1FFF007FF0
2FFF40BFE0
0FFF80BFE0
0FFF83FFE0
07FFD7FFD0
03FFEBFFC0
01FFFFFF80
00BFFFFF80
002FFFFFD0
000BFFFFF8
0002FFFFF4
0000142FD0
0000000780
0000000240
0000000100
ENDCHAR
STARTCHAR r
ENCODING 114
SWIDTH 616 0
DWIDTH 22 0
BBX 21 30 1 -3
BITMAP
000665500000
5AFFFFFE4000
BFFFFFFFF400
3FFFFFFFFE00
1FFFFFFFFF40
07FFFFFFFF80
02FFFFFFFF40
01FFFFFFFF40
01FFFFFFFF40
01FFFFFFFF00
01FFFFFFFE00
00FFF9BFFE00
00FFF42FFD00
00FFF41FFD00
00BFF42FFC00
00FFF42FFC00
00BFFEBFF800
00BFFFFFF400
007FFFFFF000
003FFFFFE000
007FFFFF4000
003FF5FF4000
003FF0FF4000
003FF0FF8000
003FF4FF8000
003FF4FF4000
003FF0FF8000
003FA0FF8000
0025006B8000
000000018000
ENDCHAR
STARTCHAR s
ENCODING 115
SWIDTH 481 0
DWIDTH 17 0
BBX 16 29 1 -2
BITMAP
00059400
00BFFF40
03FFFFE0
0FFFFFF8
2FFFFFFD
3FFFFFFE
BFFFFFFD
BFFFFFFD
FFFFFFFD
FFFFFFFC
FFFFFFFC
FFFFFFFC
FFFCBFFC
FFF83FF8
BFFC1AB8
7FFE5014
3FFFFD00
2FFFFF40
0BFFFF80
01BFFFC0
000AFFD0
00007FE0
1BF83FE0
2FFC7FD0
0FFEBFC0
0BFFFF40
03FFFF00
02FFFD00
00B91400
ENDCHAR
STARTCHAR t
ENCODING 116
SWIDTH 683 0
DWIDTH 25 0
BBX 22 32 1 -5
BITMAP
0016AAAA9400
1AFFFFFFFFA0
FFFFFFFFFFF0
7FFFFFFFFFD0
2FFFFFFFFFC0
0FFFFFFFFF40
0BFFFFFFFF40
07FFFFFFFF40
03FFFFFFFF00
03FFFFFFFF00
02FFFFFFFF00
02FFFFFFFF00
02FFBFFDFE00
02A47FFC0500
01003FFC0000
00003FFD0000
00003FFD0000
00002FFD0000
00002FFD0000
00002FFD0000
00002FFD0000
00002FFC0000
00001FFC0000
00001FFC0000
00000FFC0000
00000FFC0000
00001FFC0000
00000FFC0000
00000FFC0000
00000FFC0000
000000680000
000000040000
ENDCHAR
STARTCHAR u
ENCODING 117
SWIDTH 708 0
DWIDTH 26 0
BBX 25 28 1 -1
BITMAP
00155400000000
6BFFF40BE64000
3FFFF40BFFF900
1FFFF40BFFFF40
0FFFF40FFFFC00
0BFFF40FFFF400
0BFFF40FFFF000
07FFF80BFFE000
03FFF80BFFD000
03FFF80FFFC000
02FFFC0FFF8000
01FFFC0FFF4000
01FFFC0FFF4000
00FFF80FFF0000
00FFF40FFF0000
00FFF41FFE0000
00FFF41FFE0000
00FFF81FFE0000
00FFF81FFE0000
007FFC2FFD0000
007FFC2FFC0000
002FFC3FFC0000
001FFEBFFC0000
001FFFFFF80000
000FFFFFF40000
000BFDBFE00000
0000A82A900000
00000004000000
ENDCHAR
STARTCHAR v
ENCODING 118
SWIDTH 644 0
DWIDTH 23 0
BBX 22 30 1 -3
BITMAP
015580155000
7FFFC03FFFD0
1FFFC03FFF40
0BFFC07FFE00
07FFD0BFFC00
03FFD0FFF800
02FFE0BFF400
01FFE0FFF000
01FFE0FFE000
00FFF0FFE000
00BFF0FFD000
00BFF4FFD000
007FF4FFC000
007FF5FF8000
003FF5FF8000
002FF9FF4000
001FF9FF0000
001FFAFF0000
000FFAFE0000
0007FFFE0000
0007FFFD0000
0003FFFD0000
0002FFFC0000
0001FFF40000
0000FFF40000
00007FF40000
00003FF00000
00003FE00000
00003B400000
000010000000
ENDCHAR
STARTCHAR w
ENCODING 119
SWIDTH 704 0
DWIDTH 25 0
BBX 26 27 0 0
BITMAP
000001A4100000
06AF82F42BA400
7FFFC2F81FFF90
1FFFC3FC2FFE00
02FFD3FD3FFC00
00FFD7FE3FF800
00BFD7FE3FF400
007FE7FF7FE000
003FFBFFFFD000
003FFBFFFFC000
002FFFFFFF8000
001FFFFFFF4000
000FFFFFFF0000
0007FFFFFF0000
0003FFFFFE0000
0002FFFFFF0000
0002FFFFFD0000
0001FFFFFD0000
0000FFEFFD0000
0000BFDFFD0000
0000BFDFFD0000
00007FDBFD0000
00003FCBF80000
00002FCBF80000
00001F87F80000
00000FC7F80000
00000506B40000
ENDCHAR
STARTCHAR x
ENCODING 120
SWIDTH 599 0
DWIDTH 22 0
BBX 22 29 0 -2
BITMAP
001540540000
5BFFF47FE900
1BFFF4BFFFD0
02FFF4FFFD00
007FF5FFE000
003FFEFF8000
001FFFFF0000
000BFFFE0000
0007FFFD0000
0003FFFC0000
0002FFFC0000
0002FFF80000
0001FFF80000
0002FFF40000
0001FFF40000
0001FFE00000
0000BFF00000
0000BFE00000
0000FFE00000
0001FFE00000
0001FFF00000
0001FFF00000
0002FFF40000
0002FBF80000
0003F6FC0000
0007F1FD0000
000BF1FE0000
000FE59A0000
000900010000
ENDCHAR
STARTCHAR y
ENCODING 121
SWIDTH 604 0
DWIDTH 22 0
BBX 20 29 1 -2
BITMAP
0115005000
6FFF00BE50
2FFF81FFFD
0BFFC1FFF8
01FFD2FFE0
007FE7FF80
003FFBFF00
002FFFFD00
000BFFF800
000BFFF400
0007FFF400
0003FFF000
0003FFF000
0002FFF000
0001FFE000
0000FFE000
0000FFE000
0000BFE000
0000BFD000
00007FD000
00007FD000
0000BFD000
0000BFD000
0000BFD000
0000BFC000
0000BF8000
0000BF8000
00007F8000
0000744000
ENDCHAR
STARTCHAR z
ENCODING 122
SWIDTH 622 0
DWIDTH 22 0
BBX 20 29 1 -2
BITMAP
006A6AA500
6FFFFFFFF9
BFFFFFFFFF
3FFFFFFFFE
2FFFFFFFFD
0FFFFFFFF8
0BFFFFFFF4
03FFFFFFF0
02FFFFFFE0
02FFFFFFE0
01FFFFFFD0
01FFFFFFC0
00FE5FFF40
00E02FFD00
00403FF400
00007FE000
0000BFD000
0000BF8000
0001FF4000
0001FE0000
0002FD0000
0007FD0000
0007FAA400
000BFFFE00
001FFFFD00
001FFFFC00
001FFFFD00
000A2ABC00
0004000800
ENDCHAR
STARTCHAR braceleft
ENCODING 123
SWIDTH 372 0
DWIDTH 13 0
BBX 12 35 1 -4
BITMAP
000006
0000BE
000BFE
002FFE
00BFFD
01FFFD
02FFFD
07FFFC
0BFFFC
1FFFF8
2FFFF8
2FFFF8
3FFFE4
3FFF00
7FFD00
7FFC00
7FFC00
BFFC00
BFF800
BFF800
BFF800
BFF800
BFF800
7FFC00
7FFC00
3FFD00
2FFE00
1FFF00
0BFFD0
07FFF0
03FFF4
01FFF4
00BFF8
002FF8
0006F4
ENDCHAR
STARTCHAR bar
ENCODING 124
SWIDTH 208 0
DWIDTH 8 0
BBX 4 33 2 -4
BITMAP
2C
BC
BD
BD
BD
FC
FC
BD
7D
BC
BC
B8
BC
BC
BC
BC
BC
BC
BC
BD
BC
BC
BC
78
78
78
BC
BC
B8
B8
BC
BC
54
ENDCHAR
STARTCHAR braceright
ENCODING 125
SWIDTH 338 0
DWIDTH 12 0
BBX 11 35 0 -5
BITMAP
2A5000
3FF800
3FFE00
2FFF80
2FFFE0
2FFFF0
2FFFF4
1FFFF4
1FFFF4
1FFFF4
1FFFF4
1FFFF4
06FFF4
007FF4
003FF4
003FF4
002FF4
002FF0
002FF0
002FF0
002FF0
002FF0
003FE0
003FE0
003FD0
007FD0
00BFC0
00FF80
00FF40
06FF00
2FFD00
3FF800
7FE000
3FC000
294000
ENDCHAR
STARTCHAR asciitilde
ENCODING 126
SWIDTH 535 0
DWIDTH 19 0
BBX 17 8 1 20
BITMAP
020006D000
1FC01FF800
7FF5FFFE00
7FFFFFFF40
2FFFFFFF80
0FFFFFFF00
07FF91B800
0069001000
ENDCHAR
STARTCHAR exclamdown
ENCODING 161
SWIDTH 347 0
DWIDTH 13 0
BBX 11 44 1 1
BITMAP
154000
1FFAE0
1FFFF0
1FFFF0
1FFFF0
1FFFF4
1FFFF4
1FFFF0
3FFFF0
7FFFF0
BFFFF0
15ABA0
000000
000000
000000
000900
02FD00
03FE00
03FF00
03FF00
03FF00
03FF00
03FF00
03FE00
03FF00
07FF40
07FF80
0BFF40
0BFF00
0FFF40
1FFF80
2FFF80
3FFFC0
3FFFC0
2FFFC0
2FFFD0
1FFFD0
2FFFD0
7FFFE0
BFFFF0
BFFFF4
FFFFF4
5FFF90
014000
ENDCHAR
STARTCHAR cent
ENCODING 162
SWIDTH 552 0
DWIDTH 20 0
BBX 18 51 1 -13
BITMAP
0000100000
0000700000
0000B00000
0000B00000
0000F00000
0000F00000
0000F00000
0000F00000
0000F00000
0000F00000
0000F00000
0005FA4000
007FFFF400
02FFFFFD00
1FFFFFFF40
3FFFFFFF80
7FFFFFFFE0
BFFFFFFFD0
FFFFFFFFD0
FFFFFFFFD0
FFFFFFFFD0
BFFFFFFFD0
7FFFFFFFD0
7FFF9FFFD0
3FFF07FFC0
2FFF02FFC0
1FFF02FFC0
1FFF001580
1FFE000000
1FFE000000
0FFF000000
0BFF03E400
07FF47FD00
07FF4BFC00
07FF8FFC00
02FFEFFC00
01FFFFF800
00FFFFE000
006AFF8000
0006B70000
0000A00000
0000A00000
0000A00000
0000A00000
0000A00000
0000B00000
0000B00000
0000B00000
0000B00000
0000B00000
0000A00000
ENDCHAR
STARTCHAR sterling
ENCODING 163
SWIDTH 589 0
DWIDTH 21 0
BBX 19 30 1 -3
BITMAP
0005540000
01FFFFE000
03FFFFFD00
1FFFFFFF80
3FFFFFFFD0
3FFFFFFFF0
7FFFFFFFF4
7FFFFFFFF8
7FFFFFFFFC
7FFFFFFFFC
3FFFFFFFFC
3FFFFFFFF8
3FFF5FFFF4
2FFF07FFF0
2FFE03FFE0
1FFE02FFD0
1FFD01AFD0
7FFFA00040
7FFFF40000
6BFFB00000
02FF400000
02FF940140
03FFFFEF40
03FFFFFF00
07FFFFFF00
07FFFFFD00
07FF7FFC00
064A3BF800
000920A400
0000005000
ENDCHAR
STARTCHAR yen
ENCODING 165
SWIDTH 692 0
DWIDTH 25 0
BBX 26 29 -1 2
BITMAP
6AAAA400A50000
2FFFF801FFFFA0
06FFFD01FFFF80
007FFF02FFFD00
000FFF47FFF800
000BFF8FFFE000
0002FFEFFFC000
0000BFFFFF0000
00003FFFFD0000
00002FFFFC0000
00001FFFFC0000
00001FFFFEAA40
02FFFFFFFFFF40
02FFFFFFFEBF00
015557FFF40000
000002FFF00000
005501FFF55500
01FFFFFFFFFF80
02FFFFFFFFFF80
00555AFFF55500
000001FFE00000
000000FFE00000
000000FFE00000
000000FFE00000
000000BFE00000
0000007FE00000
0000007FE00000
0000003A600000
00000010000000
ENDCHAR
STARTCHAR brokenbar
ENCODING 166
SWIDTH 201 0
DWIDTH 7 0
BBX 4 33 2 -4
BITMAP
A4
B8
FC
FC
FC
BD
BD
FC
F8
B8
BC
BC
00
00
00
00
00
00
00
00
BC
BC
BC
B8
B8
B8
B8
BC
7C
7C
BC
BC
54
ENDCHAR
STARTCHAR section
ENCODING 167
SWIDTH 477 0
DWIDTH 17 0
BBX 16 34 1 -7
BITMAP
000AF900
007FFFD0
01FFFFF4
07FFFFFC
0BFFFFFD
0FFFFFFC
1FFFFFF8
1FFFFFF4
0FFFFFF4
0FFFFFF0
0FFE3FE0
0BFD1FD0
0BFE0540
0BFFE400
07FFFF80
1FFFFFC0
3FFFFFC0
BFF17FE0
FFF02FE0
FFF02FD0
FFF07FC0
FFF47F40
BFFEBF00
7FFFFE00
2FFFFD00
0BFFFC00
006BFE00
0052FE00
3FF1FE00
2FF6FD00
1FFFF800
0FFFF400
07FFF000
01D44000
ENDCHAR
STARTCHAR dieresis
ENCODING 168
SWIDTH 633 0
DWIDTH 23 0
BBX 18 10 2 28
BITMAP
0400001A90
7FFD07FFF0
7FFD07FFF0
BFFD07FFF0
BFFD07FFE0
BFFE07FFF0
BFFD07FFF0
BFFD07FFF0
7FFD07FAE0
0040000000
ENDCHAR
STARTCHAR copyright
ENCODING 169
SWIDTH 783 0
DWIDTH 28 0
BBX 26 31 1 -3
BITMAP
000006A9000000
0001BFFFE00000
000BFEFFFE0000
003F90001B8000
00FD01AA01F000
03F41FFFC07800
0BE07FFFE01D00
0FC0FFFFF80B00
2F41FFFFFC0780
3F02FFFFFC02C0
7D02FFFFFC01D0
7C03FFFFFC01E0
BC03FFFFFC00E0
B802FFEFFC00E0
B802FF8BFC00F0
B801FF47FC01E0
BC01FF46B801E0
BC01FF400001E0
7C00FF000001E0
7D00FF000002D0
3D00BF47E003C0
2E00BF4BF00780
1F007F9FF00F40
0F803FFFE02F00
07D03FFFC07D00
02F01BFF41F800
00FD021607F000
007F90007FD000
001BFEABFF4000
0002FFFFF80000
00001AAA400000
ENDCHAR
STARTCHAR guillemotleft
ENCODING 171
SWIDTH 759 0
DWIDTH 27 0
BBX 25 20 1 2
BITMAP
001EAA907FEA80
002FFF80BFFF40
003FFE01FFFD00
00BFFC03FFF800
02FFF40BFFF000
07FFF01FFFD000
1FFFD03FFF8000
2FFF807FFF4000
7FFF40BFFE0000
BFFD00FFF80000
BFFD00BFFD0000
3FFF007FFF0000
1FFF801FFF4000
07FF800FFF8000
02FFE007FFD000
00BFF801FFF400
003FFD00BFFC00
001FFF402FFE00
0007FFD00FFF80
00015550051640
ENDCHAR
STARTCHAR uni00AD
ENCODING 173
SWIDTH 446 0
DWIDTH 16 0
BBX 12 5 2 10
BITMAP
BFAAAB
FFFFFF
FFFFFF
FFFFFF
069559
ENDCHAR
STARTCHAR registered
ENCODING 174
SWIDTH 780 0
DWIDTH 28 0
BBX 26 31 1 -3
BITMAP
00000554000000
0001BFFF900000
000BFE55BD0000
007FD0000B4000
01FE055001E000
03FFBFFF407400
0BEFFFFFE02D00
0FC7FFFFF80E00
2F42FFFFFC0740
3F01FFFFFC0380
7D01FFFFFC02D0
BD01FFFFFC02D0
BC00FFAFFC02E0
FC00FF47F802E0
B800FF47F802F0
7400BF87F402F0
74007FFFF002E0
78007FFFF002D0
38003FFFD001C0
3C002FEFD001C0
2E001FE3F001C0
1F000FE2F80280
0F800FF2FC0340
07E00BF2FC0B00
02F80A90BD1D00
00FE004044B800
007FE00007F000
001FFE96BFC000
0002FFFFFE0000
00006FFFE40000
00000155000000
ENDCHAR
STARTCHAR macron
ENCODING 175
SWIDTH 446 0
DWIDTH 16 0
BBX 12 5 2 10
BITMAP
BFAAAB
FFFFFF
FFFFFF
FFFFFF
069559
ENDCHAR
STARTCHAR acute
ENCODING 180
SWIDTH 439 0
DWIDTH 16 0
BBX 12 9 2 27
BITMAP
000280
000FD0
007FD0
01FFF4
0BFFFE
6FFFF9
FFFE40
BE4000
500000
ENDCHAR
STARTCHAR mu
ENCODING 181
SWIDTH 679 0
DWIDTH 24 0
BBX 25 28 0 -1
BITMAP
00155400000000
6BFFF807F94000
2FFFF807FFF900
0BFFF807FFFF40
0BFFF80BFFFD00
0BFFF80BFFF800
07FFF80BFFF400
03FFFC07FFF000
02FFFC07FFE000
02FFFD0BFFD000
01FFFD0BFFC000
01FFFD0BFF8000
00FFFC0BFF8000
00FFFC0BFF4000
00BFF80BFF4000
00BFF80FFF0000
00BFF80FFF0000
00BFFC0FFF0000
007FFC0FFF0000
003FFC1FFE0000
003FFC2FFD0000
001FFC3FFC0000
001FFEBFFC0000
000FFFFFF80000
000BFFFFF40000
000BFDBFF00000
0000986A900000
00000004000000
ENDCHAR
STARTCHAR paragraph
ENCODING 182
SWIDTH 591 0
DWIDTH 21 0
BBX 21 29 1 -2
BITMAP
001556950000
07FFFFFFFA40
2FFFFFFFFE00
BFFFFFFFF800
FFFFFFFFE000
FFFFFFAFD000
FFFFFE0BD000
BFFFFE0BD000
BFFFFE0FD000
7FFFFE0FC000
7FFFFE0FC000
3FFFFE0FC000
2FFFFE0FC000
1FFFFE0FC000
0FFFFE0FC000
07FFFE0F8000
02FFBE0F8000
00542D0F4000
00002D0F0000
00002D0F0000
00002D0E0000
00002D0E0000
00002D0E0000
00002D0E0000
00002D0E0000
00002D0E0000
00002D0D0000
00002D0D0000
000014090000
ENDCHAR
STARTCHAR periodcentered
ENCODING 183
SWIDTH 388 0
DWIDTH 14 0
BBX 11 12 1 8
BITMAP
000540
5AFFF8
2FFFF8
2FFFF8
1FFFF8
1FFFF8
1FFFF8
1FFFF8
0FFFF8
0FFFF8
0FFFF8
0A9450
ENDCHAR
STARTCHAR cedilla
ENCODING 184
SWIDTH 270 0
DWIDTH 10 0
BBX 8 12 1 -12
BITMAP
0FC0
1F80
2F40
3E00
3E54
7FFD
2AFD
00BC
00BC
1AFC
7FFC
2AFC
ENDCHAR
STARTCHAR guillemotright
ENCODING 187
SWIDTH 767 0
DWIDTH 28 0
BBX 26 21 1 2
BITMAP
00010000000000
BFFF806A540000
7FFFC03FFD0000
2FFFC01FFF4000
0BFFE00BFFD000
03FFF402FFF000
01FFF800BFF800
00BFFE007FFD00
003FFF403FFF40
001FFFC02FFFC0
000FFFC00BFFD0
002FFF400BFFE0
003FFF402FFFD0
007FFE007FFF80
01FFF800BFFF40
07FFF001FFFD00
1FFFE002FFF800
7FFFC007FFF000
BFFF401FFFD000
7FFD003FFF8000
0000006AAA0000
ENDCHAR
STARTCHAR Agrave
ENCODING 192
SWIDTH 494 0
DWIDTH 18 0
BBX 19 45 -2 -8
BITMAP
01D0000000
03F4000000
03FE000000
0BFF800000
6FFFE00000
6FFFFD0000
016FFF4000
0001BF0000
0000050000
0000000000
0000000000
02AFFFFA94
01FFFFFFF4
002FFFFFC0
001FFFFF40
001FFFFF00
000FFFFF00
000FFFFE00
000FFFFE00
001FFFFE00
001FFFFE00
000FFFFD00
000FFFFD00
000FFFFD00
000FFBFD00
000FF7FD00
001FF2FD00
001FF2FD00
001FE2FD00
000FD2FD00
000FFFFD00
001FFFFD00
002FFFFD00
001FFFFC00
001FFFFC00
000FF7F800
000FE2F400
000FD2F400
000FC2F400
0009817000
0008403000
0004002000
0000005000
0000010000
0000010000
ENDCHAR
STARTCHAR Aacute
ENCODING 193
SWIDTH 494 0
DWIDTH 18 0
BBX 20 45 1 -8
BITMAP
00000002C0
0000000BE0
0000002FE0
000001FFF4
000007FFFE
00002FFFF9
0000BFFE40
00007E9000
0000100000
0000000000
0000000000
ABFFFEA500
7FFFFFFD00
0BFFFFF000
07FFFFD000
07FFFFC000
03FFFFC000
03FFFF8000
03FFFF8000
07FFFF8000
07FFFF8000
03FFFF4000
03FFFF4000
03FFFF4000
03FEFF4000
03FDFF4000
07FCBF4000
07FCBF4000
07F8BF4000
03F4BF4000
03FFFF4000
07FFFF4000
0BFFFF4000
07FFFF0000
07FFFF0000
03FDFE0000
03F8BD0000
03F4BD0000
03F0BD0000
02605C0000
02100C0000
0100080000
0000140000
0000400000
0000400000
ENDCHAR
STARTCHAR Acircumflex
ENCODING 194
SWIDTH 494 0
DWIDTH 18 0
BBX 16 49 1 -8
BITMAP
00556800
00FFFD00
02FFFE00
03FFFF40
07FFFF80
0FFFFFD0
1FFDFFE0
2FF47FF4
7FD01FFC
BF4007FD
FE0002FE
B80000B8
10000010
00000000
00000000
ABFFFEA5
7FFFFFFD
0BFFFFF0
07FFFFD0
07FFFFC0
03FFFFC0
03FFFF80
03FFFF80
07FFFF80
07FFFF80
03FFFF40
03FFFF40
03FFFF40
03FEFF40
03FDFF40
07FCBF40
07FCBF40
07F8BF40
03F4BF40
03FFFF40
07FFFF40
0BFFFF40
07FFFF00
07FFFF00
03FDFE00
03F8BD00
03F4BD00
03F0BD00
02605C00
02100C00
01000800
00001400
00004000
00004000
ENDCHAR
STARTCHAR Atilde
ENCODING 195
SWIDTH 494 0
DWIDTH 18 0
BBX 17 45 0 -8
BITMAP
014006E000
0BD01BFD00
7FF5BFFF00
3FFFFFFF80
1FFFFFFFC0
0BFFFFFF40
02FF90BD00
0069001000
0000000000
0000000000
0000000000
2AFFFFA940
1FFFFFFF40
02FFFFFC00
01FFFFF400
01FFFFF000
00FFFFF000
00FFFFE000
00FFFFE000
01FFFFE000
01FFFFE000
00FFFFD000
00FFFFD000
00FFFFD000
00FFBFD000
00FF7FD000
01FF2FD000
01FF2FD000
01FE2FD000
00FD2FD000
00FFFFD000
01FFFFD000
02FFFFD000
01FFFFC000
01FFFFC000
00FF7F8000
00FE2F4000
00FD2F4000
00FC2F4000
0098170000
0084030000
0040020000
0000050000
0000100000
0000100000
ENDCHAR
STARTCHAR Adieresis
ENCODING 196
SWIDTH 494 0
DWIDTH 18 0
BBX 18 46 0 -8
BITMAP
0400001A40
BFFD0BFFE0
BFFD0BFFE0
BFFD0BFFE0
BFFD0BFFE0
BFFD0BFFE0
BFFD0BFFE0
BFFD0BFFE0
BFFC07FAE0
0040000000
0000000000
0000000000
2AFFFFA940
1FFFFFFF40
02FFFFFC00
01FFFFF400
01FFFFF000
00FFFFF000
00FFFFE000
00FFFFE000
01FFFFE000
01FFFFE000
00FFFFD000
00FFFFD000
00FFFFD000
00FFBFD000
00FF7FD000
01FF2FD000
01FF2FD000
01FE2FD000
00FD2FD000
00FFFFD000
01FFFFD000
02FFFFD000
01FFFFC000
01FFFFC000
00FF7F8000
00FE2F4000
00FD2F4000
00FC2F4000
0098170000
0084030000
0040020000
0000050000
0000100000
0000100000
ENDCHAR
STARTCHAR Aring
ENCODING 197
SWIDTH 494 0
DWIDTH 18 0
BBX 16 46 1 -8
BITMAP
00069000
007FFD00
01FFFF40
02F9BF80
02F00F80
01F00BC0
01F00F40
00FD6E00
00FFFD00
005FF800
00019000
00000000
ABFFFEA5
7FFFFFFD
0BFFFFF0
07FFFFD0
07FFFFC0
03FFFFC0
03FFFF80
03FFFF80
07FFFF80
07FFFF80
03FFFF40
03FFFF40
03FFFF40
03FEFF40
03FDFF40
07FCBF40
07FCBF40
07F8BF40
03F4BF40
03FFFF40
07FFFF40
0BFFFF40
07FFFF00
07FFFF00
03FDFE00
03F8BD00
03F4BD00
03F0BD00
02605C00
02100C00
01000800
00001400
00004000
00004000
ENDCHAR
STARTCHAR AE
ENCODING 198
SWIDTH 733 0
DWIDTH 26 0
BBX 24 35 1 -8
BITMAP
000055555400
6AFFFFFFFFFA
7FFFFFFFFFFE
07FFFFFFFFFD
07FFFFFFFFFC
07FFFFFFFFF4
07FFFFFFFFF0
07FFFFFFFFE0
07FFFFFFFFD0
03FFFFFFFFD0
03FFFFFFFFC0
03FFFFFFFFC0
03FFFFF41BC0
03FFFFF40000
07FEFFF40000
03FDFFFFF800
07FCBFFFFC00
07FCBFFFFC00
07F8BFFFFC00
07F4BFFFF800
03FFFFF40400
07FFFFF40000
0BFFFFFAA400
07FFFFFFFE00
07FFFFFFFD00
03F9FFBFFD00
03F8BD2FAD00
03F4BC2B0800
02F0BC250800
026068240800
021008240800
010014201400
000010100000
000040000000
000040000000
ENDCHAR
STARTCHAR Ccedilla
ENCODING 199
SWIDTH 504 0
DWIDTH 18 0
BBX 17 43 1 -16
BITMAP
001AA90000
00BFFF9000
06FFFFE400
1FFFFFFC00
3FFFFFFE00
7FFFFFFF40
BFFFFFFF40
FFFFFFFF40
FFFFFFFF40
FFFFFFFF40
FFFFFFFF40
BFFFFFFF00
BFFE6FFF00
7FFD0FFF00
7FFD0BFF00
3FFD0BEE00
3FFD000000
2FFC000000
2FFC000000
1FFC000000
1FFC0FE400
0FFC1FFC00
0FFD1FF400
0BFE7FF400
03FFFFF000
03FFFFD000
02FFFF8000
006DBF0000
0008A90000
0008940000
0004540000
00000BD000
00000BC000
00000F8000
00001F4000
00002F5400
00002FFE00
00001AFE00
0000007E00
0000007E00
000016BD00
00002FFD00
00002ABD00
ENDCHAR
STARTCHAR Egrave
ENCODING 200
SWIDTH 570 0
DWIDTH 21 0
BBX 19 39 0 -2
BITMAP
0380000000
0BE0000000
0BFC000000
1FFF400000
BFFFD00000
6FFFF80000
01BFFE0000
0005BE0000
0000040000
0000000000
0055555000
2FFFFFFFE8
1FFFFFFFF8
0BFFFFFFF0
03FFFFFFF0
02FFFFFFE0
02FFFFFFE0
02FFFFFFD0
02FFFFFFC0
02FFFFFF80
01FFFFFF40
01FFFFFF00
01FFE06F00
01FFE00000
00FFE00000
00FFFFE000
00FFFFF400
00FFFFF000
00BFFFF000
00BFFFF000
007FD01000
007FD00000
007FEA9400
003FFFF800
003FFFF800
003AFFF400
0030BEB400
0030AC2000
0010942000
ENDCHAR
STARTCHAR Eacute
ENCODING 201
SWIDTH 570 0
DWIDTH 21 0
BBX 22 39 1 -2
BITMAP
000000007800
00000001FC00
00000007FC00
0000002FFE00
000000BFFF90
000007FFFF90
00000FFF9400
00000FE40000
000005000000
000000000000
015555400000
BFFFFFFFA000
7FFFFFFFE000
2FFFFFFFC000
0FFFFFFFC000
0BFFFFFF8000
0BFFFFFF8000
0BFFFFFF4000
0BFFFFFF0000
0BFFFFFE0000
07FFFFFD0000
07FFFFFC0000
07FF81BC0000
07FF80000000
03FF80000000
03FFFF800000
03FFFFD00000
03FFFFC00000
02FFFFC00000
02FFFFC00000
01FF40400000
01FF40000000
01FFAA500000
00FFFFE00000
00FFFFE00000
00EBFFD00000
00C2FAD00000
00C2B0800000
004250800000
ENDCHAR
STARTCHAR Ecircumflex
ENCODING 202
SWIDTH 570 0
DWIDTH 21 0
BBX 18 43 1 -2
BITMAP
0005564000
002FFF8000
003FFFD000
00BFFFE000
00FFFFF400
01FFFFF800
03FF5FFD00
07FE0BFE00
0BF802FF40
1FE000FF80
2FC0007FC0
2F40001F40
0500000500
0000000000
0155554000
BFFFFFFFA0
7FFFFFFFE0
2FFFFFFFC0
0FFFFFFFC0
0BFFFFFF80
0BFFFFFF80
0BFFFFFF40
0BFFFFFF00
0BFFFFFE00
07FFFFFD00
07FFFFFC00
07FF81BC00
07FF800000
03FF800000
03FFFF8000
03FFFFD000
03FFFFC000
02FFFFC000
02FFFFC000
01FF404000
01FF400000
01FFAA5000
00FFFFE000
00FFFFE000
00EBFFD000
00C2FAD000
00C2B08000
0042508000
ENDCHAR
STARTCHAR Edieresis
ENCODING 203
SWIDTH 570 0
DWIDTH 21 0
BBX 19 40 1 -2
BITMAP
0500001A90
7FFE07FFF4
7FFE03FFF4
7FFE03FFF0
7FFE03FFF0
7FFE03FFF4
7FFE03FFF4
7FFE03FFF4
7FFE02FAE0
0040000000
0000000000
0155554000
BFFFFFFFA0
7FFFFFFFE0
2FFFFFFFC0
0FFFFFFFC0
0BFFFFFF80
0BFFFFFF80
0BFFFFFF40
0BFFFFFF00
0BFFFFFE00
07FFFFFD00
07FFFFFC00
07FF81BC00
07FF800000
03FF800000
03FFFF8000
03FFFFD000
03FFFFC000
02FFFFC000
02FFFFC000
01FF404000
01FF400000
01FFAA5000
00FFFFE000
00FFFFE000
00EBFFD000
00C2FAD000
00C2B08000
0042508000
ENDCHAR
STARTCHAR Igrave
ENCODING 204
SWIDTH 401 0
DWIDTH 14 0
BBX 17 40 -3 -2
BITMAP
0740000000
0BE0000000
0FF8000000
2FFE000000
BFFFD00000
AFFFF80000
01BFFD0000
0006BD0000
0000040000
0000000000
0000000000
006A9AA900
01FFFFFF40
00BFFFFD00
002FFFFD00
000BFFF800
0007FFF400
0002FFFC00
0002FFF800
0003FFF800
0003FFF400
0003FFF400
0003FFF400
0003FFF000
0003FFE000
0003FFE000
0002FFE000
0002FFE000
0002FFE000
0001FFD000
0001FFD000
0000FFD000
0000FFD000
0000FFD000
0000BFD000
0000BFD000
00007FD000
000063D000
0000625000
0000120000
ENDCHAR
STARTCHAR Iacute
ENCODING 205
SWIDTH 401 0
DWIDTH 14 0
BBX 19 41 0 -2
BITMAP
0000000100
0000000740
0000002FC0
000000BFC0
000002FFE0
00001FFFF8
0000BFFFE8
0001FFF900
0001FE4000
0000500000
0000000000
0000000000
1AA6AA4000
7FFFFFD000
2FFFFF4000
0BFFFF4000
02FFFE0000
01FFFD0000
00BFFF0000
00BFFE0000
00FFFE0000
00FFFD0000
00FFFD0000
00FFFD0000
00FFFC0000
00FFF80000
00FFF80000
00BFF80000
00BFF80000
00BFF80000
007FF40000
007FF40000
003FF40000
003FF40000
003FF40000
002FF40000
002FF40000
001FF40000
0018F40000
0018940000
0004800000
ENDCHAR
STARTCHAR Icircumflex
ENCODING 206
SWIDTH 401 0
DWIDTH 14 0
BBX 16 44 -1 -2
BITMAP
00556800
00FFFD00
01FFFF00
02FFFF40
07FFFFC0
0BFFFFD0
0FFDBFF0
2FF43FF8
3FD00FFC
7F8007FE
FE0001FF
B80000BC
10000010
00000000
00000000
06A9AA90
1FFFFFF4
0BFFFFD0
02FFFFD0
00BFFF80
007FFF40
002FFFC0
002FFF80
003FFF80
003FFF40
003FFF40
003FFF40
003FFF00
003FFE00
003FFE00
002FFE00
002FFE00
002FFE00
001FFD00
001FFD00
000FFD00
000FFD00
000FFD00
000BFD00
000BFD00
0007FD00
00063D00
00062500
00012000
ENDCHAR
STARTCHAR Idieresis
ENCODING 207
SWIDTH 401 0
DWIDTH 14 0
BBX 18 40 -2 -2
BITMAP
0400001A90
7FFD07FFF0
BFFD07FFF0
BFFD07FFF0
BFFD07FFE0
BFFD07FFF0
BFFD07FFF0
BFFD07FFF0
7FFD07FAE0
0040000000
0000000000
01AA6AA400
07FFFFFD00
02FFFFF400
00BFFFF400
002FFFE000
001FFFD000
000BFFF000
000BFFE000
000FFFE000
000FFFD000
000FFFD000
000FFFD000
000FFFC000
000FFF8000
000FFF8000
000BFF8000
000BFF8000
000BFF8000
0007FF4000
0007FF4000
0003FF4000
0003FF4000
0003FF4000
0002FF4000
0002FF4000
0001FF4000
00018F4000
0001894000
0000480000
ENDCHAR
STARTCHAR Eth
ENCODING 208
SWIDTH 530 0
DWIDTH 19 0
BBX 19 32 1 -5
BITMAP
000015A400
016BFFFC00
0FFFFFFF00
0FFFFFFFD0
0BFFFFFFF0
07FFFFFFF0
03FFFFFFF4
02FFFFFFF8
01FFFFFFF8
00FFFFFFF8
00FFFFFFF8
00FFFFFFF8
00FFF87FF4
00BFF03FF0
00BFF02FF0
55BFF52FE0
BFFFFF2FD0
6AFFFA2FC0
007FF02FC0
007FE03F80
003FE07F40
002FF07F40
002FF5BF00
001FFFFF00
002FFFFF00
002FFFFD00
002E0FF800
002C0FE400
00180E4000
00180D4000
0004080000
0000080000
ENDCHAR
STARTCHAR Ntilde
ENCODING 209
SWIDTH 610 0
DWIDTH 22 0
BBX 20 44 1 -6
BITMAP
0000004000
008001F400
07F007FE00
1FF97FFF80
2FFFFFFFD0
0BFFFFFFE0
03FFFFFF80
01FFE46E00
001A400400
0000000000
0000000000
0005825000
7FFFC2FFE5
BFFFC1FFFD
6FFFD0FFF8
0FFFE0FFE0
0FFFF0FFD0
0BFFF8FFD0
0BFFFCFFD0
0BFFFDFFD0
0BFFFEFFC0
07FFFFFFC0
07FFFFFFC0
07FFFFFF80
03FFFFFF80
03FFFFFF40
03FFFFFF40
02FFFFFF40
01FFFFFF00
01FFBFFF00
00FF7FFF00
00FF6FFF00
00FF5FFF00
00BF4FFE00
00BF4BFE00
00BF47FE00
00BF87FD00
007F83FD00
007F82ED00
007982E800
0060819800
0060410000
0020810000
0010400000
ENDCHAR
STARTCHAR Ograve
ENCODING 210
SWIDTH 504 0
DWIDTH 18 0
BBX 20 40 -2 -3
BITMAP
02D0000000
03F4000000
07FD000000
0BFF800000
6FFFE00000
6FFFFD0000
016FFF0000
0001BF0000
0000050000
0000000000
0000155000
0002FFF900
001FFFFFC0
007FFFFFE4
00FFFFFFF8
02FFFFFFFC
03FFFFFFFC
03FFFFFFFC
02FFFFFFFD
02FFFFFFFC
02FFFFFFFC
02FFFFFFFC
01FFF4FFFD
01FFE0BFFD
00FFE07FFC
00FFD07FFC
00BFD07FFC
00BFD07FFC
00BFE07FF4
007FE07FF0
007FE0BFF0
003FF0BFF0
002FF4BFD0
002FF9FFD0
002FFFFFC0
000FFFFF40
0007FFFF00
0000B4FB00
000030E200
000010D000
ENDCHAR
STARTCHAR Oacute
ENCODING 211
SWIDTH 504 0
DWIDTH 18 0
BBX 20 40 1 -3
BITMAP
00000002C0
0000000BE0
0000003FE0
000001FFF4
000007FFFE
00002FFFF9
0000BFFE40
0000BE5000
0000100000
0000000000
0005540000
00BFFE4000
07FFFFF000
1FFFFFF900
3FFFFFFE00
BFFFFFFF00
FFFFFFFF00
FFFFFFFF00
BFFFFFFF40
BFFFFFFF00
BFFFFFFF00
BFFFFFFF00
7FFD3FFF40
7FF82FFF40
3FF81FFF00
3FF41FFF00
2FF41FFF00
2FF41FFF00
2FF81FFD00
1FF81FFC00
1FF82FFC00
0FFC2FFC00
0BFD2FF400
0BFE7FF400
0BFFFFF000
03FFFFD000
01FFFFC000
002D3EC000
000C388000
0004340000
ENDCHAR
STARTCHAR Ocircumflex
ENCODING 212
SWIDTH 504 0
DWIDTH 18 0
BBX 18 44 0 -3
BITMAP
0015590000
007FFF0000
00BFFF8000
00FFFFD000
02FFFFE000
03FFFFF400
07FF7FF800
0BFC1FFD00
1FF407FE00
2FD002FF40
3F4000BF80
7E00002E00
0400000400
0000000000
0001550000
002FFF9000
01FFFFFC00
07FFFFFE40
0FFFFFFF80
2FFFFFFFC0
3FFFFFFFC0
3FFFFFFFC0
2FFFFFFFD0
2FFFFFFFC0
2FFFFFFFC0
2FFFFFFFC0
1FFF4FFFD0
1FFE0BFFD0
0FFE07FFC0
0FFD07FFC0
0BFD07FFC0
0BFD07FFC0
0BFE07FF40
07FE07FF00
07FE0BFF00
03FF0BFF00
02FF4BFD00
02FF9FFD00
02FFFFFC00
00FFFFF400
007FFFF000
000B4FB000
00030E2000
00010D0000
ENDCHAR
STARTCHAR Otilde
ENCODING 213
SWIDTH 504 0
DWIDTH 18 0
BBX 18 40 0 -3
BITMAP
0600079000
2F806FF400
BFE6FFFD00
FFFFFFFF40
3FFFFFFF40
1FFFFFFE00
07FF81F400
01A4004000
0000000000
0000000000
0001550000
002FFF9000
01FFFFFC00
07FFFFFE40
0FFFFFFF80
2FFFFFFFC0
3FFFFFFFC0
3FFFFFFFC0
2FFFFFFFD0
2FFFFFFFC0
2FFFFFFFC0
2FFFFFFFC0
1FFF4FFFD0
1FFE0BFFD0
0FFE07FFC0
0FFD07FFC0
0BFD07FFC0
0BFD07FFC0
0BFE07FF40
07FE07FF00
07FE0BFF00
03FF0BFF00
02FF4BFD00
02FF9FFD00
02FFFFFC00
00FFFFF400
007FFFF000
000B4FB000
00030E2000
00010D0000
ENDCHAR
STARTCHAR Odieresis
ENCODING 214
SWIDTH 504 0
DWIDTH 18 0
BBX 18 41 0 -3
BITMAP
0400001A40
BFFC0BFFE0
BFFD0BFFE0
BFFD0BFFE0
BFFD0BFFD0
FFFD0BFFE0
FFFD0BFFE0
BFFC0BFFE0
BFFC0BFAD0
0000000000
0000000000
0001550000
002FFF9000
01FFFFFC00
07FFFFFE40
0FFFFFFF80
2FFFFFFFC0
3FFFFFFFC0
3FFFFFFFC0
2FFFFFFFD0
2FFFFFFFC0
2FFFFFFFC0
2FFFFFFFC0
1FFF4FFFD0
1FFE0BFFD0
0FFE07FFC0
0FFD07FFC0
0BFD07FFC0
0BFD07FFC0
0BFE07FF40
07FE07FF00
07FE0BFF00
03FF0BFF00
02FF4BFD00
02FF9FFD00
02FFFFFC00
00FFFFF400
007FFFF000
000B4FB000
00030E2000
00010D0000
ENDCHAR
STARTCHAR multiply
ENCODING 215
SWIDTH 359 0
DWIDTH 13 0
BBX 13 14 0 7
BITMAP
00001000
02C0B400
0BE1FD00
2FF7FF00
7FFFFF40
1FFFFE00
07FFF800
02FFF000
07FFFC00
1FFFFE00
7FFFFF40
2FFBFF40
0BE1FD00
03807400
ENDCHAR
STARTCHAR Oslash
ENCODING 216
SWIDTH 658 0
DWIDTH 24 0
BBX 25 30 -1 -3
BITMAP
00001550000000
0002FFFE400000
001FFFFFE00000
007FFFFFF80280
00FFFFFFFD0B00
01FFFFFFFE2C00
02FFFFFFFEB000
03FFFFFFFFC000
02FFFFFFFF4000
02FFFFFFFE0000
02FFFFFFFE0000
01FFFEFFFE0000
01FFF4BFFF0000
01FFE07FFF0000
00FFE07FFE0000
00BFD1FFFE0000
00BFD7AFFE0000
00BFEE2FFE0000
00BFF82FFD0000
007FE02FF80000
003FE07FF80000
003FF07FF80000
002FF47FF00000
00BFFDFFF00000
02AFFFFFE00000
0A0FFFFFD00000
2807FFFF800000
6000B8BE800000
400030B5400000
00001060000000
ENDCHAR
STARTCHAR Ugrave
ENCODING 217
SWIDTH 637 0
DWIDTH 23 0
BBX 22 39 0 -2
BITMAP
00A000000000
01FD00000000
01FF40000000
03FFD0000000
1FFFF8000000
1BFFFF400000
006FFFC00000
00006F800000
000001400000
000000000000
005AA4100000
6FFFF02FFA40
0BFFF02FFFE0
07FFF02FFF80
03FFF03FFF40
03FFE02FFF00
03FFF02FFF00
02FFF43FFE00
02FFF43FFD00
01FFF43FFC00
01FFF43FFC00
00FFF43FF800
00FFF03FF400
00FFF03FF400
00BFE07FF000
00BFE07FF000
00FFE07FF000
00FFF07FF000
00BFF07FE000
00BFF4BFE000
007FF4BFE000
003FF4BFD000
003FFEFFD000
002FFFFFC000
002FFFFF8000
001FF6FF4000
0007B1540000
000241140000
000100200000
ENDCHAR
STARTCHAR Uacute
ENCODING 218
SWIDTH 637 0
DWIDTH 23 0
BBX 24 40 0 -2
BITMAP
000000000280
000000000FD0
000000007FD0
00000001FFF4
00000007FFFE
0000006FFFF9
000000BFFE40
000000BE5000
000000500000
000000000000
000000000000
005AA4100000
6FFFF02FFA40
0BFFF02FFFE0
07FFF02FFF80
03FFF03FFF40
03FFE02FFF00
03FFF02FFF00
02FFF43FFE00
02FFF43FFD00
01FFF43FFC00
01FFF43FFC00
00FFF43FF800
00FFF03FF400
00FFF03FF400
00BFE07FF000
00BFE07FF000
00FFE07FF000
00FFF07FF000
00BFF07FE000
00BFF4BFE000
007FF4BFE000
003FF4BFD000
003FFEFFD000
002FFFFFC000
002FFFFF8000
001FF6FF4000
0007B1540000
000241140000
000100200000
ENDCHAR
STARTCHAR Ucircumflex
ENCODING 219
SWIDTH 637 0
DWIDTH 23 0
BBX 22 44 0 -2
BITMAP
000055640000
0001FFFC0000
0002FFFD0000
0007FFFF0000
000BFFFF8000
000FFFFFC000
002FF9FFE000
003FE07FF000
007FC02FF800
00FF400BFC00
01FD0002FD00
01F40000F800
001000001000
000000000000
000000000000
005AA4100000
6FFFF02FFA40
0BFFF02FFFE0
07FFF02FFF80
03FFF03FFF40
03FFE02FFF00
03FFF02FFF00
02FFF43FFE00
02FFF43FFD00
01FFF43FFC00
01FFF43FFC00
00FFF43FF800
00FFF03FF400
00FFF03FF400
00BFE07FF000
00BFE07FF000
00FFE07FF000
00FFF07FF000
00BFF07FE000
00BFF4BFE000
007FF4BFE000
003FF4BFD000
003FFEFFD000
002FFFFFC000
002FFFFF8000
001FF6FF4000
0007B1540000
000241140000
000100200000
ENDCHAR
STARTCHAR Udieresis
ENCODING 220
SWIDTH 637 0
DWIDTH 23 0
BBX 22 40 0 -2
BITMAP
00100001A900
02FFF03FFF40
03FFF03FFF40
03FFF03FFF40
03FFF03FFF40
03FFF03FFF80
03FFF03FFF80
03FFF03FFF40
02FFF02FEA40
000000000000
000000000000
005AA4100000
6FFFF02FFA40
0BFFF02FFFE0
07FFF02FFF80
03FFF03FFF40
03FFE02FFF00
03FFF02FFF00
02FFF43FFE00
02FFF43FFD00
01FFF43FFC00
01FFF43FFC00
00FFF43FF800
00FFF03FF400
00FFF03FF400
00BFE07FF000
00BFE07FF000
00FFE07FF000
00FFF07FF000
00BFF07FE000
00BFF4BFE000
007FF4BFE000
003FF4BFD000
003FFEFFD000
002FFFFFC000
002FFFFF8000
001FF6FF4000
0007B1540000
000241140000
000100200000
ENDCHAR
STARTCHAR Yacute
ENCODING 221
SWIDTH 688 0
DWIDTH 25 0
BBX 25 40 0 -2
BITMAP
0000000000B000
0000000002F400
000000001FF800
000000007FFD00
00000001FFFF80
0000000BFFFE40
0000002FFF9000
0000002F940000
00000004000000
00000000000000
00000000000000
0056A001800000
6FFFF802FA5000
0BFFFC03FFFE40
01FFFE03FFFE40
002FFF47FFF400
000BFF8FFFD000
0007FFEFFF4000
0000FFFFFE0000
00007FFFF80000
00003FFFF40000
00002FFFF40000
00000FFFF00000
00000FFFF00000
00000BFFE00000
000003FFE00000
000002FFE00000
000001FFE00000
000000FFD00000
000000FFD00000
000000BFD00000
000000BFD00000
0000007FD00000
0000007FD00000
0000007FD00000
0000007FC00000
0000003FC00000
0000003FC00000
0000003E400000
00000010000000
ENDCHAR
STARTCHAR Thorn
ENCODING 222
SWIDTH 521 0
DWIDTH 19 0
BBX 18 38 0 -5
BITMAP
16AAA80000
BFFFF40000
3FFFF00000
3FFFF00000
3FFFE00000
3FFFD00000
2FFFE65400
2FFFFFFF00
1FFFFFFF80
1FFFFFFFD0
1FFFFFFFD0
0FFFFFFFE0
0FFFFFFFE0
0FFFFFFFE0
0FFFFFFFE0
0FFFFFFFE0
0BFFFFFFD0
0BFFEAFFD0
07FFE0BFD0
07FFD07FC0
03FFE07FC0
03FFE07F80
02FFE03F80
02FFFABF40
01FFFFFF00
01FFFFFE00
00FFFFFC00
00BFE15000
00BFE00000
00FFE00000
00FFE00000
00BFE00000
007FE00000
007AF00000
0030900000
0030900000
0024800000
0010400000
ENDCHAR
STARTCHAR germandbls
ENCODING 223
SWIDTH 546 0
DWIDTH 20 0
BBX 18 30 1 -3
BITMAP
0000040000
02BFFFF900
0FFFFFFF40
2FFFFFFFC0
3FFFFFFFD0
7FFFFFFFE0
BFFFFFFFE0
BFFFFFFFE0
7FFFFFFFE0
BFFFFFFFE0
BFFFFFFFD0
BFFFFFFFC0
7FFE0BFF80
7FFE07FF40
3FFE07FF00
3FFE07FD00
3FFD6BFC00
2FFD7FFC00
2FFD7FE400
1FFD7FF400
1FFD3FFC00
0FFD0BFD00
0FFE0BFC00
0FFD0BFC00
0FFD0BF800
0BFD6FF800
07FD7FF400
07FD7FF000
06196FD000
0000054000
ENDCHAR
STARTCHAR agrave
ENCODING 224
SWIDTH 479 0
DWIDTH 17 0
BBX 19 41 -1 -3
BITMAP
0380000000
0BE0000000
0BF8000000
1FFF400000
BFFFD00000
6FFFF80000
01BFFE0000
0005BD0000
0000040000
0000000000
0000000000
015AAAABE4
1FFFFFFFD0
07FFFFFF40
01FFFFFF00
007FFFFE00
007FFFFE00
007FFFFE00
003FFFFE00
003FFFFE00
003FFFFE00
007FFFFD00
007FFFFD00
003FFFFD00
003FFFFC00
003FFBFD00
003FEBFD00
007FE7FE00
007FD7FD00
007FD7FE00
00BFC7FE00
00BFC3FD00
007FEBFD00
007FFFFD00
00BFFFFD00
00BFFFFC00
007FD7FC00
007FC2FC00
007F82FC00
007F42FC00
003E001400
ENDCHAR
STARTCHAR aacute
ENCODING 225
SWIDTH 479 0
DWIDTH 17 0
BBX 22 41 0 -3
BITMAP
000000007400
00000001FC00
0000000BFC00
0000002FFE00
000000BFFF90
000007FFFF90
00001FFF9400
00000FE40000
000005000000
000000000000
000000000000
056AAAAF9000
7FFFFFFF4000
1FFFFFFD0000
07FFFFFC0000
01FFFFF80000
01FFFFF80000
01FFFFF80000
00FFFFF80000
00FFFFF80000
00FFFFF80000
01FFFFF40000
01FFFFF40000
00FFFFF40000
00FFFFF00000
00FFEFF40000
00FFAFF40000
01FF9FF80000
01FF5FF40000
01FF5FF80000
02FF1FF80000
02FF0FF40000
01FFAFF40000
01FFFFF40000
02FFFFF40000
02FFFFF00000
01FF5FF00000
01FF0BF00000
01FE0BF00000
01FD0BF00000
00F800500000
ENDCHAR
STARTCHAR acircumflex
ENCODING 226
SWIDTH 479 0
DWIDTH 17 0
BBX 18 45 0 -3
BITMAP
0015560000
002FFF8000
003FFFC000
00BFFFE000
00FFFFF400
01FFFFF800
03FF6FFD00
07FE0BFE00
0BF803FF40
1FE000FF80
2FC0007FC0
2F00001F40
0500000400
0000000000
0000000000
056AAAAF90
7FFFFFFF40
1FFFFFFD00
07FFFFFC00
01FFFFF800
01FFFFF800
01FFFFF800
00FFFFF800
00FFFFF800
00FFFFF800
01FFFFF400
01FFFFF400
00FFFFF400
00FFFFF000
00FFEFF400
00FFAFF400
01FF9FF800
01FF5FF400
01FF5FF800
02FF1FF800
02FF0FF400
01FFAFF400
01FFFFF400
02FFFFF400
02FFFFF000
01FF5FF000
01FF0BF000
01FE0BF000
01FD0BF000
00F8005000
ENDCHAR
STARTCHAR atilde
ENCODING 227
SWIDTH 479 0
DWIDTH 17 0
BBX 18 40 0 -3
BITMAP
024006E000
1FD01FFC00
7FF5FFFE00
7FFFFFFF80
2FFFFFFF80
0BFFFFFF00
03FF90B800
0069001000
0000000000
0000000000
056AAAAF90
7FFFFFFF40
1FFFFFFD00
07FFFFFC00
01FFFFF800
01FFFFF800
01FFFFF800
00FFFFF800
00FFFFF800
00FFFFF800
01FFFFF400
01FFFFF400
00FFFFF400
00FFFFF000
00FFEFF400
00FFAFF400
01FF9FF800
01FF5FF400
01FF5FF800
02FF1FF800
02FF0FF400
01FFAFF400
01FFFFF400
02FFFFF400
02FFFFF000
01FF5FF000
01FF0BF000
01FE0BF000
01FD0BF000
00F8005000
ENDCHAR
STARTCHAR adieresis
ENCODING 228
SWIDTH 479 0
DWIDTH 17 0
BBX 19 41 0 -3
BITMAP
0500001A90
7FFE07FFF0
7FFE07FFF0
7FFE07FFF0
7FFE07FFF0
7FFE07FFF4
7FFE07FFF4
7FFE07FFF0
7FFE06FAE0
0040000000
0000000000
056AAAAF90
7FFFFFFF40
1FFFFFFD00
07FFFFFC00
01FFFFF800
01FFFFF800
01FFFFF800
00FFFFF800
00FFFFF800
00FFFFF800
01FFFFF400
01FFFFF400
00FFFFF400
00FFFFF000
00FFEFF400
00FFAFF400
01FF9FF800
01FF5FF400
01FF5FF800
02FF1FF800
02FF0FF400
01FFAFF400
01FFFFF400
02FFFFF400
02FFFFF000
01FF5FF000
01FF0BF000
01FE0BF000
01FD0BF000
00F8005000
ENDCHAR
STARTCHAR aring
ENCODING 229
SWIDTH 479 0
DWIDTH 17 0
BBX 18 43 0 -3
BITMAP
0001A50000
001FFF8000
003FFFD000
007F9BF000
007D02F000
007D02F000
003D02E000
002F9BC000
002FFF8000
001AFE0000
0000640000
0000000000
0000000000
056AAAAF90
7FFFFFFF40
1FFFFFFD00
07FFFFFC00
01FFFFF800
01FFFFF800
01FFFFF800
00FFFFF800
00FFFFF800
00FFFFF800
01FFFFF400
01FFFFF400
00FFFFF400
00FFFFF000
00FFEFF400
00FFAFF400
01FF9FF800
01FF5FF400
01FF5FF800
02FF1FF800
02FF0FF400
01FFAFF400
01FFFFF400
02FFFFF400
02FFFFF000
01FF5FF000
01FF0BF000
01FE0BF000
01FD0BF000
00F8005000
ENDCHAR
STARTCHAR ae
ENCODING 230
SWIDTH 755 0
DWIDTH 27 0
BBX 26 30 0 -3
BITMAP
056AAAAEA94000
7FFFFFFFFFFE90
1FFFFFFFFFFFE0
07FFFFFFFFFFC0
01FFFFFFFFFF40
00FFFFFFFFFF00
00FFFFFFFFFE00
00FFFFFFFFFD00
00BFFFFFFFFC00
00BFFFFFFFFC00
00FFFFFFFFFC00
00FFFFFFFFFC00
00FFFFFF6BF800
00BFFFFF006400
00BFEFFF000000
00FFDFFF000000
00FF9FFFFF8000
00FF8FFFFF8000
01FF4FFFFF8000
01FF4FFFFF8000
01FF4FFFEB4000
01FFAFFF010000
00FFFFFF000000
01FFFFFF694000
01FFFFFFFFD000
00FF5FFFFFC000
01FF4BFFFFC000
01FE0BE2FAC000
01FD0BE0408000
00FD0050004000
ENDCHAR
STARTCHAR ccedilla
ENCODING 231
SWIDTH 534 0
DWIDTH 19 0
BBX 18 41 1 -14
BITMAP
0006AA4000
00BFFFE000
02FFFFFD00
1FFFFFFF40
3FFFFFFF80
7FFFFFFFE0
BFFFFFFFD0
FFFFFFFFD0
FFFFFFFFD0
FFFFFFFFD0
FFFFFFFFD0
BFFFFFFFD0
7FFF8FFFC0
7FFF07FFC0
3FFE03FFC0
2FFF03FF80
2FFF005540
2FFE000000
1FFE000000
0FFE000000
0FFF03E400
0BFF07FD00
07FF4BFC00
07FF8FFC00
02FFEFF800
01FFFFF400
00FFFFE000
006AEF4000
0005160000
00001F4000
00002F0000
00003E0000
00007D0000
0000BD5400
0000BFF800
00006BF800
000001F800
000001F800
00005AF800
0000BFF800
00006AF400
ENDCHAR
STARTCHAR egrave
ENCODING 232
SWIDTH 632 0
DWIDTH 23 0
BBX 21 39 1 -2
BITMAP
038000000000
0BE000000000
0BF800000000
1FFF40000000
BFFFD0000000
6FFFF8000000
01BFFE000000
0005BD000000
000004000000
000000000000
000555550000
1AFFFFFFFA40
FFFFFFFFFF40
7FFFFFFFFE00
2FFFFFFFFC00
0FFFFFFFF800
0BFFFFFFF000
0BFFFFFFF000
07FFFFFFE000
07FFFFFFE000
03FFFFFFE000
03FFFFFFD000
02FFF6AFD000
02FFF0018000
01FFF0000000
01FFF0000000
00FFFFFD0000
00BFFFFD0000
00BFFFFD0000
00BFFFFD0000
007FFEBC0000
007FF0040000
007FF0000000
003FF6950000
003FFFFE0000
002FFFFE0000
001FFFFD0000
001D2FAD0000
000804050000
ENDCHAR
STARTCHAR eacute
ENCODING 233
SWIDTH 632 0
DWIDTH 23 0
BBX 23 40 1 -2
BITMAP
000000001D00
000000007F00
00000002FF00
0000000BFF80
0000002FFFE4
000001FFFFE4
000007FFE400
000003F90000
000001400000
000000000000
000000000000
000555550000
1AFFFFFFFA40
FFFFFFFFFF40
7FFFFFFFFE00
2FFFFFFFFC00
0FFFFFFFF800
0BFFFFFFF000
0BFFFFFFF000
07FFFFFFE000
07FFFFFFE000
03FFFFFFE000
03FFFFFFD000
02FFF6AFD000
02FFF0018000
01FFF0000000
01FFF0000000
00FFFFFD0000
00BFFFFD0000
00BFFFFD0000
00BFFFFD0000
007FFEBC0000
007FF0040000
007FF0000000
003FF6950000
003FFFFE0000
002FFFFE0000
001FFFFD0000
001D2FAD0000
000804050000
ENDCHAR
STARTCHAR ecircumflex
ENCODING 234
SWIDTH 632 0
DWIDTH 23 0
BBX 21 44 1 -2
BITMAP
000555800000
000BFFE00000
001FFFF00000
002FFFF80000
003FFFFC0000
00BFFFFE0000
00FFDBFF0000
01FF42FF8000
03FE00FFD000
07F8007FE000
0BE0001FF000
0BC00007D000
010000010000
000000000000
000000000000
000555550000
1AFFFFFFFA40
FFFFFFFFFF40
7FFFFFFFFE00
2FFFFFFFFC00
0FFFFFFFF800
0BFFFFFFF000
0BFFFFFFF000
07FFFFFFE000
07FFFFFFE000
03FFFFFFE000
03FFFFFFD000
02FFF6AFD000
02FFF0018000
01FFF0000000
01FFF0000000
00FFFFFD0000
00BFFFFD0000
00BFFFFD0000
00BFFFFD0000
007FFEBC0000
007FF0040000
007FF0000000
003FF6950000
003FFFFE0000
002FFFFE0000
001FFFFD0000
001D2FAD0000
000804050000
ENDCHAR
STARTCHAR edieresis
ENCODING 235
SWIDTH 632 0
DWIDTH 23 0
BBX 21 40 1 -2
BITMAP
01000006A400
1FFF81FFFC00
1FFF81FFFC00
1FFF81FFFC00
1FFF81FFFC00
1FFF81FFFD00
1FFF81FFFC00
1FFF81FFFC00
1FFF41BEB800
001000000000
000000000000
000555550000
1AFFFFFFFA40
FFFFFFFFFF40
7FFFFFFFFE00
2FFFFFFFFC00
0FFFFFFFF800
0BFFFFFFF000
0BFFFFFFF000
07FFFFFFE000
07FFFFFFE000
03FFFFFFE000
03FFFFFFD000
02FFF6AFD000
02FFF0018000
01FFF0000000
01FFF0000000
00FFFFFD0000
00BFFFFD0000
00BFFFFD0000
00BFFFFD0000
007FFEBC0000
007FF0040000
007FF0000000
003FF6950000
003FFFFE0000
002FFFFE0000
001FFFFD0000
001D2FAD0000
000804050000
ENDCHAR
STARTCHAR igrave
ENCODING 236
SWIDTH 411 0
DWIDTH 15 0
BBX 17 39 -3 -1
BITMAP
0380000000
0BE0000000
0BF8000000
1FFF400000
BFFFD00000
6FFFF80000
01BFFE0000
0005BD0000
0000040000
0000000000
0000000000
0005A69000
01FFFFFF80
007FFFFF00
002FFFFE00
000BFFFC00
0003FFF800
0002FFF800
0002FFF800
0002FFF400
0002FFF400
0002FFF000
0002FFF000
0002FFE000
0002FFE000
0002FFE000
0001FFE000
0001FFE000
0000FFE000
0000FFD000
0000BFD000
0000BFC000
0000BFC000
0000BFC000
00007FC000
00007FC000
00007FC000
000077C000
000012C000
ENDCHAR
STARTCHAR iacute
ENCODING 237
SWIDTH 411 0
DWIDTH 15 0
BBX 20 39 0 -1
BITMAP
0000000740
0000001FC0
000000BFC0
000002FFE0
00000BFFF9
00007FFFF9
0001FFF940
0000FE4000
0000500000
0000000000
0000000000
0169A40000
7FFFFFE000
1FFFFFC000
0BFFFF8000
02FFFF0000
00FFFE0000
00BFFE0000
00BFFE0000
00BFFD0000
00BFFD0000
00BFFC0000
00BFFC0000
00BFF80000
00BFF80000
00BFF80000
007FF80000
007FF80000
003FF80000
003FF40000
002FF40000
002FF00000
002FF00000
002FF00000
001FF00000
001FF00000
001FF00000
001DF00000
0004B00000
ENDCHAR
STARTCHAR icircumflex
ENCODING 238
SWIDTH 411 0
DWIDTH 15 0
BBX 16 43 0 -1
BITMAP
00555800
00BFFE00
01FFFF00
02FFFF80
03FFFFC0
0BFFFFE0
0FFDBFF0
1FF42FF8
3FE00FFD
7F8007FE
BE0001FF
BC00007D
10000010
00000000
00000000
0169A400
7FFFFFE0
1FFFFFC0
0BFFFF80
02FFFF00
00FFFE00
00BFFE00
00BFFE00
00BFFD00
00BFFD00
00BFFC00
00BFFC00
00BFF800
00BFF800
00BFF800
007FF800
007FF800
003FF800
003FF400
002FF400
002FF000
002FF000
002FF000
001FF000
001FF000
001FF000
001DF000
0004B000
ENDCHAR
STARTCHAR idieresis
ENCODING 239
SWIDTH 411 0
DWIDTH 15 0
BBX 19 39 -2 -1
BITMAP
0500001A90
7FFE07FFF0
7FFE07FFF0
7FFE07FFF0
7FFE07FFF0
7FFE07FFF4
7FFE07FFF4
7FFE07FFF0
7FFE06FAE0
0040000000
0000000000
00169A4000
07FFFFFE00
01FFFFFC00
00BFFFF800
002FFFF000
000FFFE000
000BFFE000
000BFFE000
000BFFD000
000BFFD000
000BFFC000
000BFFC000
000BFF8000
000BFF8000
000BFF8000
0007FF8000
0007FF8000
0003FF8000
0003FF4000
0002FF4000
0002FF0000
0002FF0000
0002FF0000
0001FF0000
0001FF0000
0001FF0000
0001DF0000
00004B0000
ENDCHAR
STARTCHAR eth
ENCODING 240
SWIDTH 530 0
DWIDTH 19 0
BBX 19 32 1 -5
BITMAP
000015A400
016BFFFC00
0FFFFFFF00
0FFFFFFFD0
0BFFFFFFF0
07FFFFFFF0
03FFFFFFF4
02FFFFFFF8
01FFFFFFF8
00FFFFFFF8
00FFFFFFF8
00FFFFFFF8
00FFF87FF4
00BFF03FF0
00BFF02FF0
55BFF52FE0
BFFFFF2FD0
6AFFFA2FC0
007FF02FC0
007FE03F80
003FE07F40
002FF07F40
002FF5BF00
001FFFFF00
002FFFFF00
002FFFFD00
002E0FF800
002C0FE400
00180E4000
00180D4000
0004080000
0000080000
ENDCHAR
STARTCHAR ntilde
ENCODING 241
SWIDTH 664 0
DWIDTH 24 0
BBX 22 41 1 -4
BITMAP
0024006E0000
01FD01FF8000
07FF5FFFE000
07FFFFFFF800
02FFFFFFF800
00BFFFFFF000
003FF90B8000
000690010000
000000000000
000000000000
556AA0540050
FFFFF03FFFF0
7FFFF43FFFD0
3FFFF82FFFC0
1FFFFC1FFF40
0FFFFD1FFF00
0FFFFE2FFE00
0FFFFF2FFD00
0FFFFF2FFD00
0BFFFF7FFC00
0BFFFFFFFC00
0BFFFFFFF800
0BFFFFFFF800
07FFFFFFF800
07FFFFFFF400
07FFFFFFF400
03FFFFFFF000
03FFFFFFF000
02FFBFFFE000
01FFAFFFE000
01FF9FFFD000
01FF4FFFD000
01FF4FFFC000
00FF4BFF8000
00FF4BFF8000
00FF47FF0000
00BF43FF0000
00BF43FE0000
00A843F50000
000001590000
000000100000
ENDCHAR
STARTCHAR ograve
ENCODING 242
SWIDTH 545 0
DWIDTH 20 0
BBX 20 40 -1 -3
BITMAP
0280000000
07F4000000
07FD000000
1FFF400000
7FFFE00000
6FFFFD0000
01BFFF0000
0001BE0000
0000050000
0000000000
0000655400
000BFFFE00
007FFFFFD0
01FFFFFFF0
03FFFFFFF8
0BFFFFFFFE
0BFFFFFFFE
0FFFFFFFFE
0FFFFFFFFE
0BFFFFFFFF
0BFFFFFFFE
07FFFFFFFE
07FFE1FFFF
07FFD0FFFE
03FFC0BFFE
03FFC0BFFD
02FFC0BFFD
02FFC07FFC
01FFC0BFF8
01FFC0BFF4
00FFC0FFF0
00BFD0FFE0
007FE1FFD0
007FF6FFD0
003FFFFFC0
002FFFFF40
0015FFFF00
0000A2FD00
000001D500
0000004500
ENDCHAR
STARTCHAR oacute
ENCODING 243
SWIDTH 545 0
DWIDTH 20 0
BBX 21 41 1 -3
BITMAP
00000000A000
00000003F400
0000001FF400
0000007FFD00
000002FFFF80
00001BFFFE40
00003FFF9000
00002F900000
000014000000
000000000000
000000000000
000655400000
00BFFFE00000
07FFFFFD0000
1FFFFFFF0000
3FFFFFFF8000
BFFFFFFFE000
BFFFFFFFE000
FFFFFFFFE000
FFFFFFFFE000
BFFFFFFFF000
BFFFFFFFE000
7FFFFFFFE000
7FFE1FFFF000
7FFD0FFFE000
3FFC0BFFE000
3FFC0BFFD000
2FFC0BFFD000
2FFC07FFC000
1FFC0BFF8000
1FFC0BFF4000
0FFC0FFF0000
0BFD0FFE0000
07FE1FFD0000
07FF6FFD0000
03FFFFFC0000
02FFFFF40000
015FFFF00000
000A2FD00000
00001D500000
000004500000
ENDCHAR
STARTCHAR ocircumflex
ENCODING 244
SWIDTH 545 0
DWIDTH 20 0
BBX 18 45 1 -3
BITMAP
0015590000
007FFF0000
00BFFF4000
01FFFFC000
02FFFFD000
03FFFFF000
0BFE7FF800
0FF81FFC00
1FF00BFE00
3FD002FF00
7F4000BF40
7D00003D00
0400000400
0000000000
0000000000
0006554000
00BFFFE000
07FFFFFD00
1FFFFFFF00
3FFFFFFF80
BFFFFFFFE0
BFFFFFFFE0
FFFFFFFFE0
FFFFFFFFE0
BFFFFFFFF0
BFFFFFFFE0
7FFFFFFFE0
7FFE1FFFF0
7FFD0FFFE0
3FFC0BFFE0
3FFC0BFFD0
2FFC0BFFD0
2FFC07FFC0
1FFC0BFF80
1FFC0BFF40
0FFC0FFF00
0BFD0FFE00
07FE1FFD00
07FF6FFD00
03FFFFFC00
02FFFFF400
015FFFF000
000A2FD000
00001D5000
0000045000
ENDCHAR
STARTCHAR otilde
ENCODING 245
SWIDTH 545 0
DWIDTH 20 0
BBX 18 40 1 -3
BITMAP
05001B9000
2F806FF400
FFD6FFFC00
FFFFFFFE00
7FFFFFFF00
2FFFFFFD00
0BFF42F400
01A4004000
0000000000
0000000000
0006554000
00BFFFE000
07FFFFFD00
1FFFFFFF00
3FFFFFFF80
BFFFFFFFE0
BFFFFFFFE0
FFFFFFFFE0
FFFFFFFFE0
BFFFFFFFF0
BFFFFFFFE0
7FFFFFFFE0
7FFE1FFFF0
7FFD0FFFE0
3FFC0BFFE0
3FFC0BFFD0
2FFC0BFFD0
2FFC07FFC0
1FFC0BFF80
1FFC0BFF40
0FFC0FFF00
0BFD0FFE00
07FE1FFD00
07FF6FFD00
03FFFFFC00
02FFFFF400
015FFFF000
000A2FD000
00001D5000
0000045000
ENDCHAR
STARTCHAR odieresis
ENCODING 246
SWIDTH 545 0
DWIDTH 20 0
BBX 18 41 1 -3
BITMAP
0400006A40
FFFC0FFFD0
FFFC0FFFD0
FFFC0FFFD0
FFFC0FFFD0
FFFC0FFFE0
FFFC0FFFE0
FFFC0FFFD0
FFFC0BFA90
0000000000
0000000000
0006554000
00BFFFE000
07FFFFFD00
1FFFFFFF00
3FFFFFFF80
BFFFFFFFE0
BFFFFFFFE0
FFFFFFFFE0
FFFFFFFFE0
BFFFFFFFF0
BFFFFFFFE0
7FFFFFFFE0
7FFE1FFFF0
7FFD0FFFE0
3FFC0BFFE0
3FFC0BFFD0
2FFC0BFFD0
2FFC07FFC0
1FFC0BFF80
1FFC0BFF40
0FFC0FFF00
0BFD0FFE00
07FE1FFD00
07FF6FFD00
03FFFFFC00
02FFFFF400
015FFFF000
000A2FD000
00001D5000
0000045000
ENDCHAR
STARTCHAR oslash
ENCODING 248
SWIDTH 676 0
DWIDTH 24 0
BBX 23 30 0 -3
BITMAP
000165500000
001FFFF80004
00BFFFFF402C
02FFFFFFC0B0
07FFFFFFE2D0
0FFFFFFFFF00
1FFFFFFFFD00
1FFFFFFFF800
1FFFFFFFF400
1FFFFFFFF800
0FFFFFFFF800
0FFFFFFFF400
0BFFC3FFF800
0BFF43FFF800
0BFF4BFFF400
07FF2EFFF400
07FFB5FFF000
03FFD1FFE000
03FF41FFE000
02FF02FFD000
01FF42FFC000
01FF83FF8000
02FF87FF4000
0ABFDBFF4000
28BFFFFF0000
A07FFFFE0000
8027FFFC0000
00018BF80000
000007540000
000001140000
ENDCHAR
STARTCHAR ugrave
ENCODING 249
SWIDTH 708 0
DWIDTH 26 0
BBX 25 38 1 -1
BITMAP
00740000000000
00FD0000000000
00FF8000000000
02FFE000000000
1BFFF800000000
1BFFFF40000000
005BFFD0000000
00006FC0000000
00000140000000
00000000000000
00155400000000
6BFFF40BE64000
3FFFF40BFFF900
1FFFF40BFFFF40
0FFFF40FFFFC00
0BFFF40FFFF400
0BFFF40FFFF000
07FFF80BFFE000
03FFF80BFFD000
03FFF80FFFC000
02FFFC0FFF8000
01FFFC0FFF4000
01FFFC0FFF4000
00FFF80FFF0000
00FFF40FFF0000
00FFF41FFE0000
00FFF41FFE0000
00FFF81FFE0000
00FFF81FFE0000
007FFC2FFD0000
007FFC2FFC0000
002FFC3FFC0000
001FFEBFFC0000
001FFFFFF80000
000FFFFFF40000
000BFDBFE00000
0000A82A900000
00000004000000
ENDCHAR
STARTCHAR uacute
ENCODING 250
SWIDTH 708 0
DWIDTH 26 0
BBX 25 39 1 -1
BITMAP
0000000002C000
000000000BE000
000000002FE000
00000001FFF400
00000007FFFE00
0000002FFFF900
000000BFFE4000
0000007E900000
00000010000000
00000000000000
00000000000000
00155400000000
6BFFF40BE64000
3FFFF40BFFF900
1FFFF40BFFFF40
0FFFF40FFFFC00
0BFFF40FFFF400
0BFFF40FFFF000
07FFF80BFFE000
03FFF80BFFD000
03FFF80FFFC000
02FFFC0FFF8000
01FFFC0FFF4000
01FFFC0FFF4000
00FFF80FFF0000
00FFF40FFF0000
00FFF41FFE0000
00FFF41FFE0000
00FFF81FFE0000
00FFF81FFE0000
007FFC2FFD0000
007FFC2FFC0000
002FFC3FFC0000
001FFEBFFC0000
001FFFFFF80000
000FFFFFF40000
000BFDBFE00000
0000A82A900000
00000004000000
ENDCHAR
STARTCHAR ucircumflex
ENCODING 251
SWIDTH 708 0
DWIDTH 26 0
BBX 25 43 1 -1
BITMAP
00005568000000
0000FFFD000000
0002FFFE000000
0003FFFF400000
0007FFFF800000
000FFFFFD00000
001FFDFFE00000
002FF43FF40000
003FD01FFC0000
00BF4007FD0000
00FE0002FE0000
00B80000B80000
00100000100000
00000000000000
00000000000000
00155400000000
6BFFF40BE64000
3FFFF40BFFF900
1FFFF40BFFFF40
0FFFF40FFFFC00
0BFFF40FFFF400
0BFFF40FFFF000
07FFF80BFFE000
03FFF80BFFD000
03FFF80FFFC000
02FFFC0FFF8000
01FFFC0FFF4000
01FFFC0FFF4000
00FFF80FFF0000
00FFF40FFF0000
00FFF41FFE0000
00FFF41FFE0000
00FFF81FFE0000
00FFF81FFE0000
007FFC2FFD0000
007FFC2FFC0000
002FFC3FFC0000
001FFEBFFC0000
001FFFFFF80000
000FFFFFF40000
000BFDBFE00000
0000A82A900000
00000004000000
ENDCHAR
STARTCHAR udieresis
ENCODING 252
SWIDTH 708 0
DWIDTH 26 0
BBX 25 39 1 -1
BITMAP
00100000690000
02FFF42FFF8000
02FFF42FFF8000
02FFF42FFF8000
02FFF42FFF8000
02FFF42FFFC000
02FFF42FFFC000
02FFF42FFF8000
02FFF41FEB8000
00010000000000
00000000000000
00155400000000
6BFFF40BE64000
3FFFF40BFFF900
1FFFF40BFFFF40
0FFFF40FFFFC00
0BFFF40FFFF400
0BFFF40FFFF000
07FFF80BFFE000
03FFF80BFFD000
03FFF80FFFC000
02FFFC0FFF8000
01FFFC0FFF4000
01FFFC0FFF4000
00FFF80FFF0000
00FFF40FFF0000
00FFF41FFE0000
00FFF41FFE0000
00FFF81FFE0000
00FFF81FFE0000
007FFC2FFD0000
007FFC2FFC0000
002FFC3FFC0000
001FFEBFFC0000
001FFFFFF80000
000FFFFFF40000
000BFDBFE00000
0000A82A900000
00000004000000
ENDCHAR
STARTCHAR yacute
ENCODING 253
SWIDTH 604 0
DWIDTH 22 0
BBX 22 41 1 -2
BITMAP
000000000400
000000002C00
00000000BE00
00000002FE00
0000000FFF40
0000007FFFE0
000002FFFF90
00000BFFE400
000007E90000
000001000000
000000000000
000000000000
011500500000
6FFF00BE5000
2FFF81FFFD00
0BFFC1FFF800
01FFD2FFE000
007FE7FF8000
003FFBFF0000
002FFFFD0000
000BFFF80000
000BFFF40000
0007FFF40000
0003FFF00000
0003FFF00000
0002FFF00000
0001FFE00000
0000FFE00000
0000FFE00000
0000BFE00000
0000BFD00000
00007FD00000
00007FD00000
0000BFD00000
0000BFD00000
0000BFD00000
0000BFC00000
0000BF800000
0000BF800000
00007F800000
000074400000
ENDCHAR
STARTCHAR thorn
ENCODING 254
SWIDTH 498 0
DWIDTH 18 0
BBX 17 38 0 -5
BITMAP
16AAB00000
BFFFE00000
3FFFD00000
3FFFD00000
3FFFC00000
3FFFC00000
2FFFD55000
2FFFFFFD00
1FFFFFFF00
1FFFFFFF40
1FFFFFFF80
0FFFFFFF80
0FFFFFFF80
0FFFFFFF80
0FFFFFFF80
0FFFFFFF80
0BFFFFFF80
0BFFEBFF80
07FFC1FF80
07FFC0FF40
03FFC0FF40
03FFC0FF00
02FFC0FF00
02FFEAFE00
01FFFFFD00
01FFFFFC00
00FFFFF800
00BFE55000
00BFE00000
00FFE00000
00FFE00000
00BFE00000
007FE00000
007AE00000
0030900000
0030900000
0024800000
0010400000
ENDCHAR
STARTCHAR ydieresis
ENCODING 255
SWIDTH 604 0
DWIDTH 22 0
BBX 20 40 1 -2
BITMAP
00400001A4
0BFFD0BFFE
0BFFD0BFFE
0BFFD0BFFE
0BFFD0BFFE
0BFFD0BFFF
0BFFD0BFFF
0BFFD0BFFE
07FFD07FAE
0004000000
0000000000
0115005000
6FFF00BE50
2FFF81FFFD
0BFFC1FFF8
01FFD2FFE0
007FE7FF80
003FFBFF00
002FFFFD00
000BFFF800
000BFFF400
0007FFF400
0003FFF000
0003FFF000
0002FFF000
0001FFE000
0000FFE000
0000FFE000
0000BFE000
0000BFD000
00007FD000
00007FD000
0000BFD000
0000BFD000
0000BFD000
0000BFC000
0000BF8000
0000BF8000
00007F8000
0000744000
ENDCHAR
STARTCHAR Amacron
ENCODING 256
SWIDTH 494 0
DWIDTH 18 0
BBX 16 42 1 -8
BITMAP
1FFAAAA0
1FFFFFE0
1FFFFFE0
1FFFFFE0
00A95590
00000000
00000000
00000000
ABFFFEA5
7FFFFFFD
0BFFFFF0
07FFFFD0
07FFFFC0
03FFFFC0
03FFFF80
03FFFF80
07FFFF80
07FFFF80
03FFFF40
03FFFF40
03FFFF40
03FEFF40
03FDFF40
07FCBF40
07FCBF40
07F8BF40
03F4BF40
03FFFF40
07FFFF40
0BFFFF40
07FFFF00
07FFFF00
03FDFE00
03F8BD00
03F4BD00
03F0BD00
02605C00
02100C00
01000800
00001400
00004000
00004000
ENDCHAR
STARTCHAR amacron
ENCODING 257
SWIDTH 479 0
DWIDTH 17 0
BBX 18 37 0 -3
BITMAP
02FEAAAC00
03FFFFFD00
03FFFFFC00
03FFFFFC00
001A556800
0000000000
0000000000
056AAAAF90
7FFFFFFF40
1FFFFFFD00
07FFFFFC00
01FFFFF800
01FFFFF800
01FFFFF800
00FFFFF800
00FFFFF800
00FFFFF800
01FFFFF400
01FFFFF400
00FFFFF400
00FFFFF000
00FFEFF400
00FFAFF400
01FF9FF800
01FF5FF400
01FF5FF800
02FF1FF800
02FF0FF400
01FFAFF400
01FFFFF400
02FFFFF400
02FFFFF000
01FF5FF000
01FF0BF000
01FE0BF000
01FD0BF000
00F8005000
ENDCHAR
STARTCHAR Abreve
ENCODING 258
SWIDTH 494 0
DWIDTH 18 0
BBX 17 48 1 -8
BITMAP
06A8000000
07FC00AA40
03FC01FF40
02FD02FF00
02FF97FE00
01FFFFFD00
00FFFFFC00
005BFFF400
00034FF000
00000A2000
0000001000
0000000000
0000000000
0000000000
ABFFFEA500
7FFFFFFD00
0BFFFFF000
07FFFFD000
07FFFFC000
03FFFFC000
03FFFF8000
03FFFF8000
07FFFF8000
07FFFF8000
03FFFF4000
03FFFF4000
03FFFF4000
03FEFF4000
03FDFF4000
07FCBF4000
07FCBF4000
07F8BF4000
03F4BF4000
03FFFF4000
07FFFF4000
0BFFFF4000
07FFFF0000
07FFFF0000
03FDFE0000
03F8BD0000
03F4BD0000
03F0BD0000
02605C0000
02100C0000
0100080000
0000140000
0000400000
0000400000
ENDCHAR
STARTCHAR abreve
ENCODING 259
SWIDTH 479 0
DWIDTH 17 0
BBX 18 43 0 -3
BITMAP
01AA000000
01FF002A90
00FF007FD0
00BF40BFC0
00BFE5FF80
007FFFFF40
003FFFFF00
0016FFFD00
0000D3FC00
0000028800
0000000400
0000000000
0000000000
056AAAAF90
7FFFFFFF40
1FFFFFFD00
07FFFFFC00
01FFFFF800
01FFFFF800
01FFFFF800
00FFFFF800
00FFFFF800
00FFFFF800
01FFFFF400
01FFFFF400
00FFFFF400
00FFFFF000
00FFEFF400
00FFAFF400
01FF9FF800
01FF5FF400
01FF5FF800
02FF1FF800
02FF0FF400
01FFAFF400
01FFFFF400
02FFFFF400
02FFFFF000
01FF5FF000
01FF0BF000
01FE0BF000
01FD0BF000
00F8005000
ENDCHAR
STARTCHAR Aogonek
ENCODING 260
SWIDTH 494 0
DWIDTH 18 0
BBX 16 41 1 -15
BITMAP
ABFFFEA5
7FFFFFFD
0BFFFFF0
07FFFFD0
07FFFFC0
03FFFFC0
03FFFF80
03FFFF80
07FFFF80
07FFFF80
03FFFF40
03FFFF40
03FFFF40
03FEFF40
03FDFF40
07FCBF40
07FCBF40
07F8BF40
03F4BF40
03FFFF40
07FFFF40
0BFFFF40
07FFFF00
07FFFF00
03FDFE00
03F8BD00
03F4BD00
03F0FD00
0261FC00
0212FC00
0103FC00
0003F800
0007F800
0007F800
0007FC00
0007FE00
0003FFE5
0002FFFF
0001FFFF
00007FFF
00001BFE
ENDCHAR
STARTCHAR aogonek
ENCODING 261
SWIDTH 479 0
DWIDTH 17 0
BBX 19 40 0 -13
BITMAP
056AAAAF90
7FFFFFFF40
1FFFFFFD00
07FFFFFC00
01FFFFF800
01FFFFF800
01FFFFF800
00FFFFF800
00FFFFF800
00FFFFF800
01FFFFF400
01FFFFF400
00FFFFF400
00FFFFF000
00FFEFF400
00FFAFF400
01FF9FF800
01FF5FF400
01FF5FF800
02FF1FF800
02FF0FF400
01FFAFF400
01FFFFF400
02FFFFF400
02FFFFF000
01FF5FF000
01FF0BF000
01FE0BF000
01FD0BE000
00F80FE000
00000FE000
00001FD000
00001FD000
00001FD000
00001FF000
00000FFEA4
00000BFFF8
000007FFF8
000001FFF8
0000001BE4
ENDCHAR
STARTCHAR Cacute
ENCODING 262
SWIDTH 504 0
DWIDTH 18 0
BBX 19 41 1 -4
BITMAP
0000001E00
0000007F00
000001FF00
00000BFF80
00002FFFE4
0001FFFFE4
0003FFE500
0003F90000
0001400000
0000000000
001AA90000
00BFFF9000
06FFFFE400
1FFFFFFC00
3FFFFFFE00
7FFFFFFF40
BFFFFFFF40
FFFFFFFF40
FFFFFFFF40
FFFFFFFF40
FFFFFFFF40
BFFFFFFF00
BFFE6FFF00
7FFD0FFF00
7FFD0BFF00
3FFD0BEE00
3FFD000000
2FFC000000
2FFC000000
1FFC000000
1FFC0FE400
0FFC1FFC00
0FFD1FF400
0BFE7FF400
03FFFFF000
03FFFFD000
02FFFF8000
006DBF0000
0008A90000
0008940000
0004540000
ENDCHAR
STARTCHAR cacute
ENCODING 263
SWIDTH 534 0
DWIDTH 19 0
BBX 19 41 1 -2
BITMAP
0000000100
0000000B40
0000002F80
000000BF80
000003FFE0
00001FFFF8
0000BFFFE4
0001FFF900
0001FA4000
0000400000
0000000000
0000000000
0006AA4000
00BFFFE000
02FFFFFD00
1FFFFFFF40
3FFFFFFF80
7FFFFFFFE0
BFFFFFFFD0
FFFFFFFFD0
FFFFFFFFD0
FFFFFFFFD0
FFFFFFFFD0
BFFFFFFFD0
7FFF8FFFC0
7FFF07FFC0
3FFE03FFC0
2FFF03FF80
2FFF005540
2FFE000000
1FFE000000
0FFE000000
0FFF03E400
0BFF07FD00
07FF4BFC00
07FF8FFC00
02FFEFF800
01FFFFF400
00FFFFE000
006AEF4000
0005160000
ENDCHAR
STARTCHAR Ccircumflex
ENCODING 264
SWIDTH 504 0
DWIDTH 18 0
BBX 17 46 1 -4
BITMAP
00155A0000
003FFF4000
00BFFF8000
00FFFFD000
01FFFFE000
03FFFFF400
07FF7FF800
0BFD0FFD00
0FF407FF00
2FD001FF40
3F8000BF80
2E00002E00
0400000400
0000000000
0000000000
001AA90000
00BFFF9000
06FFFFE400
1FFFFFFC00
3FFFFFFE00
7FFFFFFF40
BFFFFFFF40
FFFFFFFF40
FFFFFFFF40
FFFFFFFF40
FFFFFFFF40
BFFFFFFF00
BFFE6FFF00
7FFD0FFF00
7FFD0BFF00
3FFD0BEE00
3FFD000000
2FFC000000
2FFC000000
1FFC000000
1FFC0FE400
0FFC1FFC00
0FFD1FF400
0BFE7FF400
03FFFFF000
03FFFFD000
02FFFF8000
006DBF0000
0008A90000
0008940000
0004540000
ENDCHAR
STARTCHAR ccircumflex
ENCODING 265
SWIDTH 534 0
DWIDTH 19 0
BBX 18 44 1 -2
BITMAP
0005568000
000FFFD000
001FFFF000
003FFFF400
007FFFFC00
00BFFFFD00
01FFDBFF00
02FF43FF40
03FD01FFC0
0BF8007FD0
0FE0001FE0
0B80000B80
0100000100
0000000000
0000000000
0006AA4000
00BFFFE000
02FFFFFD00
1FFFFFFF40
3FFFFFFF80
7FFFFFFFE0
BFFFFFFFD0
FFFFFFFFD0
FFFFFFFFD0
FFFFFFFFD0
FFFFFFFFD0
BFFFFFFFD0
7FFF8FFFC0
7FFF07FFC0
3FFE03FFC0
2FFF03FF80
2FFF005540
2FFE000000
1FFE000000
0FFE000000
0FFF03E400
0BFF07FD00
07FF4BFC00
07FF8FFC00
02FFEFF800
01FFFFF400
00FFFFE000
006AEF4000
0005160000
ENDCHAR
STARTCHAR Cdotaccent
ENCODING 266
SWIDTH 504 0
DWIDTH 18 0
BBX 17 45 1 -4
BITMAP
0000540000
01ABFFD000
01FFFFD000
00FFFFD000
00FFFFC000
00BFFFD000
00BFFFD000
00BFFFD000
00BFFFD000
00BFFFD000
007FFFC000
006A414000
0000000000
0000000000
001AA90000
00BFFF9000
06FFFFE400
1FFFFFFC00
3FFFFFFE00
7FFFFFFF40
BFFFFFFF40
FFFFFFFF40
FFFFFFFF40
FFFFFFFF40
FFFFFFFF40
BFFFFFFF00
BFFE6FFF00
7FFD0FFF00
7FFD0BFF00
3FFD0BEE00
3FFD000000
2FFC000000
2FFC000000
1FFC000000
1FFC0FE400
0FFC1FFC00
0FFD1FF400
0BFE7FF400
03FFFFF000
03FFFFD000
02FFFF8000
006DBF0000
0008A90000
0008940000
0004540000
ENDCHAR
STARTCHAR cdotaccent
ENCODING 267
SWIDTH 534 0
DWIDTH 19 0
BBX 18 43 1 -2
BITMAP
0000150000
006AFFF000
007FFFF000
007FFFF000
003FFFF000
003FFFF000
003FFFF000
003FFFF000
002FFFF000
002FFFF000
002FFFF000
002A515000
0000000000
0000000000
0006AA4000
00BFFFE000
02FFFFFD00
1FFFFFFF40
3FFFFFFF80
7FFFFFFFE0
BFFFFFFFD0
FFFFFFFFD0
FFFFFFFFD0
FFFFFFFFD0
FFFFFFFFD0
BFFFFFFFD0
7FFF8FFFC0
7FFF07FFC0
3FFE03FFC0
2FFF03FF80
2FFF005540
2FFE000000
1FFE000000
0FFE000000
0FFF03E400
0BFF07FD00
07FF4BFC00
07FF8FFC00
02FFEFF800
01FFFFF400
00FFFFE000
006AEF4000
0005160000
ENDCHAR
STARTCHAR Ccaron
ENCODING 268
SWIDTH 504 0
DWIDTH 18 0
BBX 17 46 1 -4
BITMAP
1F00007400
7F8001FD00
7FE003FF40
3FF00BFF00
2FF81FFD00
0FFC2FFC00
0BFE7FF400
07FFFFF000
02FFFFD000
01FFFF8000
00FFFF4000
007FFE0000
0015590000
0000000000
0000000000
001AA90000
00BFFF9000
06FFFFE400
1FFFFFFC00
3FFFFFFE00
7FFFFFFF40
BFFFFFFF40
FFFFFFFF40
FFFFFFFF40
FFFFFFFF40
FFFFFFFF40
BFFFFFFF00
BFFE6FFF00
7FFD0FFF00
7FFD0BFF00
3FFD0BEE00
3FFD000000
2FFC000000
2FFC000000
1FFC000000
1FFC0FE400
0FFC1FFC00
0FFD1FF400
0BFE7FF400
03FFFFF000
03FFFFD000
02FFFF8000
006DBF0000
0008A90000
0008940000
0004540000
ENDCHAR
STARTCHAR ccaron
ENCODING 269
SWIDTH 534 0
DWIDTH 19 0
BBX 18 44 1 -2
BITMAP
02D0001E00
1FF0003F80
1FF800BFE0
0BFD01FFD0
07FE03FF80
03FF4BFF00
01FFDFFE00
00FFFFFC00
00BFFFF800
003FFFF000
002FFFE000
001FFFC000
0005554000
0000000000
0000000000
0006AA4000
00BFFFE000
02FFFFFD00
1FFFFFFF40
3FFFFFFF80
7FFFFFFFE0
BFFFFFFFD0
FFFFFFFFD0
FFFFFFFFD0
FFFFFFFFD0
FFFFFFFFD0
BFFFFFFFD0
7FFF8FFFC0
7FFF07FFC0
3FFE03FFC0
2FFF03FF80
2FFF005540
2FFE000000
1FFE000000
0FFE000000
0FFF03E400
0BFF07FD00
07FF4BFC00
07FF8FFC00
02FFEFF800
01FFFFF400
00FFFFE000
006AEF4000
0005160000
ENDCHAR
STARTCHAR Dcaron
ENCODING 270
SWIDTH 522 0
DWIDTH 19 0
BBX 18 46 1 -5
BITMAP
01E0000B40
0BF8002FD0
0BFD007FF0
07FE00BFE0
03FF41FFC0
01FF83FF80
00FFDBFF00
00BFFFFE00
003FFFFC00
002FFFF800
001FFFF000
000BFFD000
0005558000
0000000000
0000054000
15ABFFE000
7FFFFFF800
7FFFFFFE00
3FFFFFFF80
2FFFFFFF80
1FFFFFFFC0
0FFFFFFFC0
0BFFFFFFC0
0BFFFFFFC0
0BFFFFFFC0
07FFFFFF80
07FFD7FF80
07FF81FF40
07FF40FF40
03FF40FF00
03FF40FE00
03FF40FE00
02FF40FD00
02FF41FD00
01FF42FC00
01FF82FC00
00FFDBFC00
00FFEFFC00
00FFFFF800
00FFFFF400
00F4BFE000
00D0BF4000
0090780000
0090680000
0040600000
0000500000
ENDCHAR
STARTCHAR dcaron
ENCODING 271
SWIDTH 522 0
DWIDTH 19 0
BBX 18 46 1 -5
BITMAP
01E0000B40
0BF8002FD0
0BFD007FF0
07FE00BFE0
03FF41FFC0
01FF83FF80
00FFDBFF00
00BFFFFE00
003FFFFC00
002FFFF800
001FFFF000
000BFFD000
0005558000
0000000000
0000054000
15ABFFE000
7FFFFFF800
7FFFFFFE00
3FFFFFFF80
2FFFFFFF80
1FFFFFFFC0
0FFFFFFFC0
0BFFFFFFC0
0BFFFFFFC0
0BFFFFFFC0
07FFFFFF80
07FFD7FF80
07FF81FF40
07FF40FF40
03FF40FF00
03FF40FE00
03FF40FE00
02FF40FD00
02FF41FD00
01FF42FC00
01FF82FC00
00FFDBFC00
00FFEFFC00
00FFFFF800
00FFFFF400
00F4BFE000
00D0BF4000
0090780000
0090680000
0040600000
0000500000
ENDCHAR
STARTCHAR Eth.dup2
ENCODING 272
SWIDTH 530 0
DWIDTH 19 0
BBX 19 32 1 -5
BITMAP
000015A400
016BFFFC00
0FFFFFFF00
0FFFFFFFD0
0BFFFFFFF0
07FFFFFFF0
03FFFFFFF4
02FFFFFFF8
01FFFFFFF8
00FFFFFFF8
00FFFFFFF8
00FFFFFFF8
00FFF87FF4
00BFF03FF0
00BFF02FF0
55BFF52FE0
BFFFFF2FD0
6AFFFA2FC0
007FF02FC0
007FE03F80
003FE07F40
002FF07F40
002FF5BF00
001FFFFF00
002FFFFF00
002FFFFD00
002E0FF800
002C0FE400
00180E4000
00180D4000
0004080000
0000080000
ENDCHAR
STARTCHAR Emacron
ENCODING 274
SWIDTH 570 0
DWIDTH 21 0
BBX 18 36 1 -2
BITMAP
02FEAAAD00
03FFFFFD00
03FFFFFC00
03FFFFFC00
001A556800
0000000000
0000000000
0155554000
BFFFFFFFA0
7FFFFFFFE0
2FFFFFFFC0
0FFFFFFFC0
0BFFFFFF80
0BFFFFFF80
0BFFFFFF40
0BFFFFFF00
0BFFFFFE00
07FFFFFD00
07FFFFFC00
07FF81BC00
07FF800000
03FF800000
03FFFF8000
03FFFFD000
03FFFFC000
02FFFFC000
02FFFFC000
01FF404000
01FF400000
01FFAA5000
00FFFFE000
00FFFFE000
00EBFFD000
00C2FAD000
00C2B08000
0042508000
ENDCHAR
STARTCHAR emacron
ENCODING 275
SWIDTH 632 0
DWIDTH 23 0
BBX 21 36 1 -2
BITMAP
00BFAAAB0000
00FFFFFF0000
00FFFFFF0000
00FFFFFF0000
0006955A0000
000000000000
000000000000
000555550000
1AFFFFFFFA40
FFFFFFFFFF40
7FFFFFFFFE00
2FFFFFFFFC00
0FFFFFFFF800
0BFFFFFFF000
0BFFFFFFF000
07FFFFFFE000
07FFFFFFE000
03FFFFFFE000
03FFFFFFD000
02FFF6AFD000
02FFF0018000
01FFF0000000
01FFF0000000
00FFFFFD0000
00BFFFFD0000
00BFFFFD0000
00BFFFFD0000
007FFEBC0000
007FF0040000
007FF0000000
003FF6950000
003FFFFE0000
002FFFFE0000
001FFFFD0000
001D2FAD0000
000804050000
ENDCHAR
STARTCHAR Ebreve
ENCODING 276
SWIDTH 570 0
DWIDTH 21 0
BBX 18 42 1 -2
BITMAP
00AA400000
00FF402A90
00BF403FE0
007F807FD0
003FE5BFC0
003FFFFF80
002FFFFF40
0005FFFE00
0000A2FD00
000001D800
0000004400
0000000000
0000000000
0155554000
BFFFFFFFA0
7FFFFFFFE0
2FFFFFFFC0
0FFFFFFFC0
0BFFFFFF80
0BFFFFFF80
0BFFFFFF40
0BFFFFFF00
0BFFFFFE00
07FFFFFD00
07FFFFFC00
07FF81BC00
07FF800000
03FF800000
03FFFF8000
03FFFFD000
03FFFFC000
02FFFFC000
02FFFFC000
01FF404000
01FF400000
01FFAA5000
00FFFFE000
00FFFFE000
00EBFFD000
00C2FAD000
00C2B08000
0042508000
ENDCHAR
STARTCHAR ebreve
ENCODING 277
SWIDTH 632 0
DWIDTH 23 0
BBX 21 42 1 -2
BITMAP
001AA0000000
001FF002A900
000FF403FD00
000BF807FC00
0007FE5FF800
0007FFFFF400
0003FFFFF000
00015FFFD000
00000D3FC000
000000288000
000000004000
000000000000
000000000000
000555550000
1AFFFFFFFA40
FFFFFFFFFF40
7FFFFFFFFE00
2FFFFFFFFC00
0FFFFFFFF800
0BFFFFFFF000
0BFFFFFFF000
07FFFFFFE000
07FFFFFFE000
03FFFFFFE000
03FFFFFFD000
02FFF6AFD000
02FFF0018000
01FFF0000000
01FFF0000000
00FFFFFD0000
00BFFFFD0000
00BFFFFD0000
00BFFFFD0000
007FFEBC0000
007FF0040000
007FF0000000
003FF6950000
003FFFFE0000
002FFFFE0000
001FFFFD0000
001D2FAD0000
000804050000
ENDCHAR
STARTCHAR Edotaccent
ENCODING 278
SWIDTH 570 0
DWIDTH 21 0
BBX 18 43 1 -2
BITMAP
0000150000
006BFFE000
00BFFFE000
007FFFE000
007FFFE000
007FFFE000
007FFFF000
003FFFF000
003FFFE000
003FFFE000
003FFFE000
002A515000
0000000000
0000000000
0155554000
BFFFFFFFA0
7FFFFFFFE0
2FFFFFFFC0
0FFFFFFFC0
0BFFFFFF80
0BFFFFFF80
0BFFFFFF40
0BFFFFFF00
0BFFFFFE00
07FFFFFD00
07FFFFFC00
07FF81BC00
07FF800000
03FF800000
03FFFF8000
03FFFFD000
03FFFFC000
02FFFFC000
02FFFFC000
01FF404000
01FF400000
01FFAA5000
00FFFFE000
00FFFFE000
00EBFFD000
00C2FAD000
00C2B08000
0042508000
ENDCHAR
STARTCHAR edotaccent
ENCODING 279
SWIDTH 632 0
DWIDTH 23 0
BBX 21 43 1 -2
BITMAP
000005400000
006AFFF80000
002FFFF80000
002FFFF80000
002FFFF40000
001FFFF80000
001FFFF80000
001FFFF80000
001FFFF80000
000FFFF80000
000FFFF80000
000A94500000
000000000000
000000000000
000555550000
1AFFFFFFFA40
FFFFFFFFFF40
7FFFFFFFFE00
2FFFFFFFFC00
0FFFFFFFF800
0BFFFFFFF000
0BFFFFFFF000
07FFFFFFE000
07FFFFFFE000
03FFFFFFE000
03FFFFFFD000
02FFF6AFD000
02FFF0018000
01FFF0000000
01FFF0000000
00FFFFFD0000
00BFFFFD0000
00BFFFFD0000
00BFFFFD0000
007FFEBC0000
007FF0040000
007FF0000000
003FF6950000
003FFFFE0000
002FFFFE0000
001FFFFD0000
001D2FAD0000
000804050000
ENDCHAR
STARTCHAR Eogonek
ENCODING 280
SWIDTH 513 0
DWIDTH 19 0
BBX 18 39 1 -12
BITMAP
0155554000
BFFFFFFFA0
7FFFFFFFE0
2FFFFFFFC0
0FFFFFFFC0
0BFFFFFF80
0BFFFFFF80
0BFFFFFF40
0BFFFFFF00
0BFFFFFE00
07FFFFFD00
07FFFFFC00
07FF81BC00
07FF800000
03FF800000
03FFFF8000
03FFFFD000
03FFFFC000
02FFFFC000
02FFFFC000
01FF404000
01FF400000
01FFAA5000
00FFFFE000
00FFFFE000
00FFFFD000
00FABFD000
00D07FC000
0040BF8000
0000FE0000
0000FD0000
0000FD0000
0000FF0000
0000FF8000
0000BFFFD0
00007FFFD0
00002FFFC0
00000BFFC0
0000006A40
ENDCHAR
STARTCHAR eogonek
ENCODING 281
SWIDTH 632 0
DWIDTH 23 0
BBX 21 39 1 -12
BITMAP
000555550000
1AFFFFFFFA40
FFFFFFFFFF40
7FFFFFFFFE00
2FFFFFFFFC00
0FFFFFFFF800
0BFFFFFFF000
0BFFFFFFF000
07FFFFFFE000
07FFFFFFE000
03FFFFFFE000
03FFFFFFD000
02FFF6AFD000
02FFF0018000
01FFF0000000
01FFF0000000
00FFFFFD0000
00BFFFFD0000
00BFFFFD0000
00BFFFFD0000
007FFEBC0000
007FF0040000
007FF0000000
003FF6950000
003FFFFE0000
002FFFFE0000
001FFFFC0000
001D2FF40000
00080FF00000
00000FE00000
00000FE00000
00000FE00000
00000FF00000
00000FF80000
00000BFFA900
000007FFFD00
000002FFFC00
000000BFFC00
0000001AA800
ENDCHAR
STARTCHAR Ecaron
ENCODING 282
SWIDTH 570 0
DWIDTH 21 0
BBX 18 43 1 -2
BITMAP
01E0000B00
0BF4002FD0
0BFD007FF0
07FE00FFE0
03FF41FFC0
01FF83FF80
00FFDBFF00
00BFFFFE00
003FFFFC00
002FFFF400
001FFFF000
000BFFD000
0005558000
0000000000
0155554000
BFFFFFFFA0
7FFFFFFFE0
2FFFFFFFC0
0FFFFFFFC0
0BFFFFFF80
0BFFFFFF80
0BFFFFFF40
0BFFFFFF00
0BFFFFFE00
07FFFFFD00
07FFFFFC00
07FF81BC00
07FF800000
03FF800000
03FFFF8000
03FFFFD000
03FFFFC000
02FFFFC000
02FFFFC000
01FF404000
01FF400000
01FFAA5000
00FFFFE000
00FFFFE000
00EBFFD000
00C2FAD000
00C2B08000
0042508000
ENDCHAR
STARTCHAR ecaron
ENCODING 283
SWIDTH 632 0
DWIDTH 23 0
BBX 21 44 1 -2
BITMAP
002D0000E000
01FF4002F800
00FFC00BFE00
00BFD00FFD00
007FF02FF800
002FF87FF400
001FFDFFE000
000FFFFFD000
0007FFFF8000
0003FFFF4000
0002FFFE0000
0000FFFD0000
000055540000
000000000000
000000000000
000555550000
1AFFFFFFFA40
FFFFFFFFFF40
7FFFFFFFFE00
2FFFFFFFFC00
0FFFFFFFF800
0BFFFFFFF000
0BFFFFFFF000
07FFFFFFE000
07FFFFFFE000
03FFFFFFE000
03FFFFFFD000
02FFF6AFD000
02FFF0018000
01FFF0000000
01FFF0000000
00FFFFFD0000
00BFFFFD0000
00BFFFFD0000
00BFFFFD0000
007FFEBC0000
007FF0040000
007FF0000000
003FF6950000
003FFFFE0000
002FFFFE0000
001FFFFD0000
001D2FAD0000
000804050000
ENDCHAR
STARTCHAR Gcircumflex
ENCODING 284
SWIDTH 499 0
DWIDTH 18 0
BBX 17 45 1 -4
BITMAP
0055680000
00FFFD0000
01FFFE0000
03FFFF4000
07FFFFC000
0BFFFFD000
1FFDBFF000
2FF43FF400
3FD01FFC00
BF8007FD00
FE0002FE00
B80000B800
1000001000
0000000000
0005500000
00BFFE0000
1BFFFFD000
3FFFFFF800
7FFFFFFC00
7FFFFFFE00
BFFFFFFF00
BFFFFFFF40
BFFFFFFF40
BFFFFFFF00
7FFFFFFF00
7FFFFFFE00
7FF87FFE00
3FF42FFD00
3FF42FFD00
2FF41FFD00
2FF4015500
1FF4955000
1FF4BFFD00
1FF8BFFD00
1FF87FFD00
0FFC5BFD00
0FFC0BFD00
0BFE1FFD00
07FFFFFC00
03FFFFF800
02FFFFF400
00B9FFE000
0015774000
0024120000
0014000000
ENDCHAR
STARTCHAR gcircumflex
ENCODING 285
SWIDTH 546 0
DWIDTH 20 0
BBX 18 45 1 -3
BITMAP
0015590000
007FFF0000
00BFFF8000
01FFFFC000
02FFFFE000
03FFFFF000
07FE7FF800
0FFC1FFC00
1FF007FE00
2FD002FF40
7F4000BF40
7D00002E00
0400000400
0000000000
0000000000
0005540000
01FFFFD000
07FFFFFC00
2FFFFFFF00
7FFFFFFF80
BFFFFFFFD0
BFFFFFFFE0
FFFFFFFFF0
FFFFFFFFF0
BFFFFFFFF0
BFFFFFFFF0
7FFFFFFFE0
7FFE6FFFD0
3FFD0FFFD0
3FFD07FFC0
2FFD07FFC0
2FFC01AFC0
1FFC100000
0FFC2F9400
0BFE1FFF80
07FE1FFF80
07FF1FFF80
07FF15FF40
03FF41FF40
03FFDBFF40
02FFFFFF40
01FFFFFF40
00BFFFFF00
002EFFBD00
0008891000
ENDCHAR
STARTCHAR Gbreve
ENCODING 286
SWIDTH 499 0
DWIDTH 18 0
BBX 17 44 1 -4
BITMAP
1AA0000000
1FF002A900
0FF403FD00
0BF807FC00
07FE5FF800
07FFFFF400
03FFFFF000
016FFFD000
000D3FC000
0000288000
0000004000
0000000000
0000000000
0005500000
00BFFE0000
1BFFFFD000
3FFFFFF800
7FFFFFFC00
7FFFFFFE00
BFFFFFFF00
BFFFFFFF40
BFFFFFFF40
BFFFFFFF00
7FFFFFFF00
7FFFFFFE00
7FF87FFE00
3FF42FFD00
3FF42FFD00
2FF41FFD00
2FF4015500
1FF4955000
1FF4BFFD00
1FF8BFFD00
1FF87FFD00
0FFC5BFD00
0FFC0BFD00
0BFE1FFD00
07FFFFFC00
03FFFFF800
02FFFFF400
00B9FFE000
0015774000
0024120000
0014000000
ENDCHAR
STARTCHAR gbreve
ENCODING 287
SWIDTH 546 0
DWIDTH 20 0
BBX 18 43 1 -3
BITMAP
06A8000000
07FC00AA00
03FC01FF40
02FD02FF00
02FF97FE00
01FFFFFD00
00FFFFF800
005BFFF400
00034FE000
00000E2000
0000041000
0000000000
0000000000
0005540000
01FFFFD000
07FFFFFC00
2FFFFFFF00
7FFFFFFF80
BFFFFFFFD0
BFFFFFFFE0
FFFFFFFFF0
FFFFFFFFF0
BFFFFFFFF0
BFFFFFFFF0
7FFFFFFFE0
7FFE6FFFD0
3FFD0FFFD0
3FFD07FFC0
2FFD07FFC0
2FFC01AFC0
1FFC100000
0FFC2F9400
0BFE1FFF80
07FE1FFF80
07FF1FFF80
07FF15FF40
03FF41FF40
03FFDBFF40
02FFFFFF40
01FFFFFF40
00BFFFFF00
002EFFBD00
0008891000
ENDCHAR
STARTCHAR Gdotaccent
ENCODING 288
SWIDTH 499 0
DWIDTH 18 0
BBX 17 45 1 -4
BITMAP
0000540000
06AFFF4000
03FFFF4000
03FFFF4000
02FFFF4000
02FFFF4000
02FFFF8000
01FFFF4000
01FFFF4000
01FFFF4000
01FFFF4000
01A9450000
0000000000
0000000000
0005500000
00BFFE0000
1BFFFFD000
3FFFFFF800
7FFFFFFC00
7FFFFFFE00
BFFFFFFF00
BFFFFFFF40
BFFFFFFF40
BFFFFFFF00
7FFFFFFF00
7FFFFFFE00
7FF87FFE00
3FF42FFD00
3FF42FFD00
2FF41FFD00
2FF4015500
1FF4955000
1FF4BFFD00
1FF8BFFD00
1FF87FFD00
0FFC5BFD00
0FFC0BFD00
0BFE1FFD00
07FFFFFC00
03FFFFF800
02FFFFF400
00B9FFE000
0015774000
0024120000
0014000000
ENDCHAR
STARTCHAR gdotaccent
ENCODING 289
SWIDTH 546 0
DWIDTH 20 0
BBX 18 44 1 -3
BITMAP
0000540000
01ABFFC000
01FFFFC000
00FFFFC000
00FFFFC000
00FFFFC000
00BFFFD000
00BFFFD000
00BFFFC000
00BFFFC000
00BFFFC000
006A414000
0000000000
0000000000
0005540000
01FFFFD000
07FFFFFC00
2FFFFFFF00
7FFFFFFF80
BFFFFFFFD0
BFFFFFFFE0
FFFFFFFFF0
FFFFFFFFF0
BFFFFFFFF0
BFFFFFFFF0
7FFFFFFFE0
7FFE6FFFD0
3FFD0FFFD0
3FFD07FFC0
2FFD07FFC0
2FFC01AFC0
1FFC100000
0FFC2F9400
0BFE1FFF80
07FE1FFF80
07FF1FFF80
07FF15FF40
03FF41FF40
03FFDBFF40
02FFFFFF40
01FFFFFF40
00BFFFFF00
002EFFBD00
0008891000
ENDCHAR
STARTCHAR Gcommaaccent
ENCODING 290
SWIDTH 499 0
DWIDTH 18 0
BBX 17 49 1 -22
BITMAP
0005500000
00BFFE0000
1BFFFFD000
3FFFFFF800
7FFFFFFC00
7FFFFFFE00
BFFFFFFF00
BFFFFFFF40
BFFFFFFF40
BFFFFFFF00
7FFFFFFF00
7FFFFFFE00
7FF87FFE00
3FF42FFD00
3FF42FFD00
2FF41FFD00
2FF4015500
1FF4955000
1FF4BFFD00
1FF8BFFD00
1FF87FFD00
0FFC5BFD00
0FFC0BFD00
0BFE1FFD00
07FFFFFC00
03FFFFF800
02FFFFF400
00B9FFE000
0015774000
0024120000
0014000000
0000000000
0005000000
003FFFD000
003FFFD000
003FFFD000
003FFFE000
003FFFE000
003FFFD000
007FFFD000
007FFFD000
0029AFD000
00001FD000
00001FC000
00002FC000
00003FC000
00003F8000
00003F8000
0000150000
ENDCHAR
STARTCHAR Hcircumflex
ENCODING 292
SWIDTH 726 0
DWIDTH 26 0
BBX 25 49 0 -7
BITMAP
00001559000000
00007FFF000000
0000BFFF800000
0000FFFFD00000
0002FFFFE00000
0003FFFFF40000
0007FF7FF80000
000BFC1FFD0000
001FF407FE0000
002FD002FF4000
003F4000BF8000
007E00002E0000
00040000040000
00000000000000
00000000000000
00001505550000
005BFE07FFFE40
6FFFFD07FFFF80
0BFFF803FFFF00
03FFFC01FFFD00
03FFFC02FFFC00
02FFFC03FFF800
02FFF807FFF400
01FFF807FFF000
00FFF807FFE000
00FFF807FFE000
00BFF807FFD000
00BFF807FFC000
007FF807FF8000
007FF80BFF8000
003FFFFFFF4000
003FFFFFFF0000
002FFFFFFF0000
002FFFFFFF0000
002FFE5FFF0000
001FF80FFE0000
001FFC0FFD0000
001FFC1FFD0000
001FFC1FFD0000
000FFC1FFC0000
000FFC1FFC0000
000FFC2FF80000
001E540FF80000
0014000A680000
00000001100000
00000000000000
00000010000000
00000020000000
00000020000000
ENDCHAR
STARTCHAR hcircumflex
ENCODING 293
SWIDTH 730 0
DWIDTH 26 0
BBX 25 44 1 -2
BITMAP
00005568000000
0000FFFD000000
0001FFFE000000
0003FFFF400000
0007FFFFC00000
000BFFFFD00000
001FFDBFF00000
002FF43FF40000
003FD01FFC0000
00BF4007FD0000
00FE0002FE0000
00B80000B80000
00100000100000
00000000000000
00000000000000
0006A81AA95000
56BFF80FFFFF40
7FFFF00FFFFE00
1FFFF00BFFFC00
0BFFF003FFF800
0BFFF00BFFF000
0BFFF00FFFE000
07FFF00FFFD000
07FFF00FFFC000
07FFF00FFFC000
03FFF00FFFC000
02FFF00FFF8000
02FFF00FFF4000
01FFE00FFF0000
00FFF56FFE0000
00FFFFFFFE0000
00BFFFFFFD0000
00BFFFFFFD0000
00BFFFFFFD0000
00BFF42FFC0000
007FF03FFC0000
007FF03FF80000
007FF03FF80000
007FF03FF40000
003FF03FF40000
003FF07FF00000
003FF06FF00000
0078003FF00000
0000000C600000
ENDCHAR
STARTCHAR hbar
ENCODING 295
SWIDTH 704 0
DWIDTH 25 0
BBX 24 29 1 -2
BITMAP
0006A82AA540
56BFF42FFFFD
7FFFF02FFFF8
1FFFE02FFFF0
0BFFE02FFFE0
0BFFEABFFFD0
0BFFFFFFFFC0
07FFFFFFFF40
07FFFFFFFF40
07FFFFFFFF00
03FFFFFFFF00
02FFEABFFE00
02FFD01FFD00
01FFD02FFC00
00FFE5BFF800
00FFFFFFF800
00BFFFFFF400
00BFFFFFF400
00BFFFFFF400
00BFF42FF800
007FF03FFC00
007FF03FF800
007FF03FF800
007FF03FF400
003FF03FF400
003FF07FF000
003FF06FF000
0078003FF000
0000000C6000
ENDCHAR
STARTCHAR Itilde
ENCODING 296
SWIDTH 401 0
DWIDTH 14 0
BBX 17 40 -2 -2
BITMAP
0000010000
020007D000
1FC02FF800
BFE6FFFE00
BFFFFFFF40
2FFFFFFF40
0FFFFFFE00
07FF81B800
0069001000
0000000000
0000000000
01AA6AA400
07FFFFFD00
02FFFFF400
00BFFFF400
002FFFE000
001FFFD000
000BFFF000
000BFFE000
000FFFE000
000FFFD000
000FFFD000
000FFFD000
000FFFC000
000FFF8000
000FFF8000
000BFF8000
000BFF8000
000BFF8000
0007FF4000
0007FF4000
0003FF4000
0003FF4000
0003FF4000
0002FF4000
0002FF4000
0001FF4000
00018F4000
0001894000
0000480000
ENDCHAR
STARTCHAR itilde
ENCODING 297
SWIDTH 411 0
DWIDTH 15 0
BBX 17 38 -2 -1
BITMAP
024006E000
1FD01FFC00
7FF5FFFE00
7FFFFFFF80
2FFFFFFF80
0BFFFFFF00
03FF90B800
0069001000
0000000000
0000000000
00169A4000
07FFFFFE00
01FFFFFC00
00BFFFF800
002FFFF000
000FFFE000
000BFFE000
000BFFE000
000BFFD000
000BFFD000
000BFFC000
000BFFC000
000BFF8000
000BFF8000
000BFF8000
0007FF8000
0007FF8000
0003FF8000
0003FF4000
0002FF4000
0002FF0000
0002FF0000
0002FF0000
0001FF0000
0001FF0000
0001FF0000
0001DF0000
00004B0000
ENDCHAR
STARTCHAR Imacron
ENCODING 298
SWIDTH 401 0
DWIDTH 14 0
BBX 14 36 0 -2
BITMAP
3FEAAA80
3FFFFFC0
7FFFFFC0
7FFFFF80
01A55640
00000000
00000000
1AA6AA40
7FFFFFD0
2FFFFF40
0BFFFF40
02FFFE00
01FFFD00
00BFFF00
00BFFE00
00FFFE00
00FFFD00
00FFFD00
00FFFD00
00FFFC00
00FFF800
00FFF800
00BFF800
00BFF800
00BFF800
007FF400
007FF400
003FF400
003FF400
003FF400
002FF400
002FF400
001FF400
0018F400
00189400
00048000
ENDCHAR
STARTCHAR imacron
ENCODING 299
SWIDTH 411 0
DWIDTH 15 0
BBX 14 35 0 -1
BITMAP
2FEAAAC0
3FFFFFC0
3FFFFFC0
3FFFFFC0
01A55680
00000000
00000000
0169A400
7FFFFFE0
1FFFFFC0
0BFFFF80
02FFFF00
00FFFE00
00BFFE00
00BFFE00
00BFFD00
00BFFD00
00BFFC00
00BFFC00
00BFF800
00BFF800
00BFF800
007FF800
007FF800
003FF800
003FF400
002FF400
002FF000
002FF000
002FF000
001FF000
001FF000
001FF000
001DF000
0004B000
ENDCHAR
STARTCHAR Ibreve
ENCODING 300
SWIDTH 401 0
DWIDTH 14 0
BBX 15 42 0 -2
BITMAP
2A900000
2FD006A4
2FE00BF8
1FF00FF4
0FF96FF0
0FFFFFE0
07FFFFD0
017FFF80
0028BF40
00007540
00001140
00000000
00000000
1AA6AA40
7FFFFFD0
2FFFFF40
0BFFFF40
02FFFE00
01FFFD00
00BFFF00
00BFFE00
00FFFE00
00FFFD00
00FFFD00
00FFFD00
00FFFC00
00FFF800
00FFF800
00BFF800
00BFF800
00BFF800
007FF400
007FF400
003FF400
003FF400
003FF400
002FF400
002FF400
001FF400
0018F400
00189400
00048000
ENDCHAR
STARTCHAR ibreve
ENCODING 301
SWIDTH 411 0
DWIDTH 15 0
BBX 15 41 0 -1
BITMAP
2A900000
3FD00AA4
2FD00FF8
1FE01FF4
0FF96FF0
0FFFFFE0
0BFFFFD0
017FFF80
0028BF40
00007600
00001100
00000000
00000000
0169A400
7FFFFFE0
1FFFFFC0
0BFFFF80
02FFFF00
00FFFE00
00BFFE00
00BFFE00
00BFFD00
00BFFD00
00BFFC00
00BFFC00
00BFF800
00BFF800
00BFF800
007FF800
007FF800
003FF800
003FF400
002FF400
002FF000
002FF000
002FF000
001FF000
001FF000
001FF000
001DF000
0004B000
ENDCHAR
STARTCHAR Iogonek
ENCODING 302
SWIDTH 401 0
DWIDTH 14 0
BBX 14 41 0 -14
BITMAP
1AA6AA40
7FFFFFD0
2FFFFF40
0BFFFF40
02FFFE00
01FFFD00
00BFFF00
00BFFE00
00FFFE00
00FFFD00
00FFFD00
00FFFD00
00FFFC00
00FFF800
00BFF800
00BFF800
00BFF800
00BFF800
007FF400
007FF400
003FF400
003FF400
003FF400
002FF400
002FF400
001FF400
002FF400
002FE400
003F8000
003F4000
007F0000
00BF0000
00BE0000
00BE0000
00FF0000
00FF8000
00BFFA90
007FFFD0
003FFFD0
001FFFD0
0001BF80
ENDCHAR
STARTCHAR iogonek
ENCODING 303
SWIDTH 412 0
DWIDTH 15 0
BBX 14 41 0 -14
BITMAP
0169A400
7FFFFFE0
1FFFFFC0
0BFFFF80
02FFFF00
00FFFE00
00BFFE00
00BFFE00
00BFFD00
00BFFD00
00BFFC00
00BFFC00
00BFF800
00BFF800
00BFF800
007FF800
007FF800
003FF800
003FF400
002FF400
002FF000
002FF400
002FF000
001FF000
001FF000
001FF000
002FF000
002FE000
003F8000
007F8000
007F4000
00BF0000
00BF0000
00BF0000
00BF8000
00BFE540
007FFFE0
003FFFE0
001FFFD0
0002FFD0
00001500
ENDCHAR
STARTCHAR Idotaccent
ENCODING 304
SWIDTH 401 0
DWIDTH 14 0
BBX 14 43 0 -2
BITMAP
00015000
1ABFFD00
0FFFFD00
0BFFFD00
0BFFFD00
0BFFFD00
07FFFE00
07FFFE00
07FFFE00
07FFFD00
07FFFD00
02A51400
00000000
00000000
1AA6AA40
7FFFFFD0
2FFFFF40
0BFFFF40
02FFFE00
01FFFD00
00BFFF00
00BFFE00
00FFFE00
00FFFD00
00FFFD00
00FFFD00
00FFFC00
00FFF800
00FFF800
00BFF800
00BFF800
00BFF800
007FF400
007FF400
003FF400
003FF400
003FF400
002FF400
002FF400
001FF400
0018F400
00189400
00048000
ENDCHAR
STARTCHAR dotlessi
ENCODING 305
SWIDTH 411 0
DWIDTH 15 0
BBX 14 28 0 -1
BITMAP
0169A400
7FFFFFE0
1FFFFFC0
0BFFFF80
02FFFF00
00FFFE00
00BFFE00
00BFFE00
00BFFD00
00BFFD00
00BFFC00
00BFFC00
00BFF800
00BFF800
00BFF800
007FF800
007FF800
003FF800
003FF400
002FF400
002FF000
002FF000
002FF000
001FF000
001FF000
001FF000
001DF000
0004B000
ENDCHAR
STARTCHAR IJ
ENCODING 306
SWIDTH 908 0
DWIDTH 33 0
BBX 32 29 0 -2
BITMAP
1AA9AA9000055500
7FFFFFE0000FFFF9
2FFFFFC0000FFFF8
0BFFFF800007FFF4
02FFFF400003FFF0
01FFFF000003FFF0
00BFFF400002FFE0
00BFFF400002FFC0
00FFFF000003FFC0
00FFFF000003FF80
00FFFF000003FF80
00FFFE000007FF80
00FFFE000007FF80
00FFFD000007FF40
00BFFD000007FF40
00BFFD000003FF00
00BFFD000003FF00
007FFD000007FE00
007FFC005B47FE00
007FF801FF43FE00
003FFC02FF47FD00
003FFC01FF47FD00
002FFC00FF8BFC00
002FFC00FFEFFC00
001FF800BFFFF400
001FF8007FFFF000
001CBC001B9FB000
00086400008E1000
0004600000440000
ENDCHAR
STARTCHAR ij
ENCODING 307
SWIDTH 901 0
DWIDTH 32 0
BBX 32 29 0 -2
BITMAP
01696500005A9400
7FFFFFF000BFFFA4
1FFFFFD0003FFFF9
0BFFFFC0002FFFF4
02FFFF80001FFFF4
00FFFF40000FFFF0
00BFFF40000FFFE0
00BFFF00000BFFD0
00BFFF00000BFFC0
00BFFE00000BFFD0
00BFFE00000BFFD0
00BFFD00000BFFC0
00BFFD00000BFFC0
00BFFD00000BFFC0
00BFFC00000BFFC0
007FFD000007FFC0
007FFD000003FF80
003FFD000003FF40
003FFC005743FF40
002FFC01FF43FF40
002FF801FF83FF40
001FF800FF83FF40
001FF800BFC7FF00
001FF800BFFFFF00
001FF8007FFFFD00
001FF8002FFFFC00
000EB4000BFFFC00
0004740000179800
0000000000000400
ENDCHAR
STARTCHAR Jcircumflex
ENCODING 308
SWIDTH 455 0
DWIDTH 16 0
BBX 19 43 -1 -2
BITMAP
0001556000
0002FFF800
0007FFFC00
000BFFFE00
000FFFFF00
002FFFFF80
003FF6FFC0
007FD0BFE0
00FF803FF4
01FE001FF8
02F80007FC
02F00001F4
0040000040
0000000000
0001554000
0007FFFE00
0003FFFE00
0002FFFC00
0001FFFC00
0000FFF800
0000BFF400
0000BFE000
0000FFE000
0001FFE000
0001FFE000
0001FFE000
0001FFE000
0001FFD000
0001FFC000
0001FFC000
0000FF8000
0001FF8000
16C1FF4000
BFC1FF4000
BFC1FF4000
7FC2FF0000
7FD3FF0000
7FFBFE0000
3FFFFD0000
2FFFFC0000
06E7E80000
0053840000
0001000000
ENDCHAR
STARTCHAR jcircumflex
ENCODING 309
SWIDTH 458 0
DWIDTH 17 0
BBX 19 44 -1 -2
BITMAP
0001556000
0002FFF800
0003FFFC00
000BFFFE00
000FFFFF40
001FFFFF80
003FF6FFD0
007FE0BFE0
00BF803FF4
01FE000FF8
02FC0007FC
02F00001F4
0050000040
0000000000
0000000000
0016A50000
001FFFE900
000FFFFE40
0007FFFD00
0003FFFD00
0003FFFC00
0002FFF800
0001FFF400
0001FFF400
0001FFF400
0001FFF400
0001FFF400
0001FFF400
0001FFF000
0001FFF000
0000FFF000
0000FFE000
0010FFE000
1690FFE000
BFD0FFE000
BFE0BFE000
3FF0FFD000
2FF5FFD000
2FFFFFC000
1FFFFF8000
0BFFFF4000
02FFFF4000
0005B60000
0000010000
ENDCHAR
STARTCHAR Kcommaaccent
ENCODING 310
SWIDTH 580 0
DWIDTH 21 0
BBX 20 48 0 -21
BITMAP
0564101400
7FFFF0BFE9
1FFFF0BFFD
07FFF0BFF4
03FFF0FFD0
01FFF1FF40
00FFF1FD00
00BFF2FC00
007FF7FC00
007FFFF800
003FFFF400
003FFFF400
003FFFF800
003FFFF800
002FFFF800
002FFFF800
001FFFF800
001FFFF800
000FFFFC00
000FFFF800
000FFFFC00
000FFBFD00
000FE1FE00
000BE0FE00
000BF0BF00
000BF07F40
000BF0BF40
0002247640
0000140100
0000000000
0000000000
0000140000
0002FFFE00
0002FFFE00
0002FFFE00
0002FFFF00
0002FFFF00
0002FFFE00
0003FFFE00
0003FFFE00
000196FE00
000000FE00
000000FD00
000001FD00
000001FD00
000002FC00
000002FC00
0000015000
ENDCHAR
STARTCHAR kcommaaccent
ENCODING 311
SWIDTH 636 0
DWIDTH 23 0
BBX 22 47 0 -20
BITMAP
00014915A500
16FFEC1FFFE0
6FFFFC2FFF40
07FFF83FFD00
03FFF87FF400
02FFF87FE000
00FFFCBF8000
00BFFCBF8000
007FFCBF4000
003FFDFF4000
002FFDFF0000
002FFDFD0000
002FFEFC0000
001FFEF80000
001FFFF40000
001FFFF40000
001FFFF40000
000FFFF80000
000BFFFC0000
0007FFFE0000
0007FFFE0000
0007FDFF0000
0003FCBF8000
0003F83FC000
0003F82FD000
0003FC0FE000
0002FC1FF000
0001980AA000
000000010000
000000000000
000005000000
00007FFF8000
0000BFFF8000
0000BFFFC000
0000BFFFC000
0000BFFFC000
0000BFFFC000
0000BFFFC000
0000BFFFC000
000065BFC000
0000003F8000
0000003F8000
0000007F4000
0000007F4000
000000BF0000
000000BF0000
000000150000
ENDCHAR
STARTCHAR kgreenlandic
ENCODING 312
SWIDTH 636 0
DWIDTH 23 0
BBX 22 29 0 -2
BITMAP
00014915A500
16FFEC1FFFE0
6FFFFC2FFF40
07FFF83FFD00
03FFF87FF400
02FFF87FE000
00FFFCBF8000
00BFFCBF8000
007FFCBF4000
003FFDFF4000
002FFDFF0000
002FFDFD0000
002FFEFC0000
001FFEF80000
001FFFF40000
001FFFF40000
001FFFF40000
000FFFF80000
000BFFFC0000
0007FFFE0000
0007FFFE0000
0007FDFF0000
0003FCBF8000
0003F83FC000
0003F82FD000
0003FC0FE000
0002FC1FF000
0001980AA000
000000010000
ENDCHAR
STARTCHAR Lacute
ENCODING 313
SWIDTH 416 0
DWIDTH 15 0
BBX 20 40 0 -3
BITMAP
0000000780
0000001FC0
0000007FC0
000002FFE0
00000BFFF9
00007FFFF9
0000FFF940
0000FE4000
0000500000
0000000000
5555454000
6FFFFF0000
0FFFF80000
0BFFF40000
0BFFE00000
07FFE00000
07FFF00000
03FFF00000
03FFE00000
03FFE00000
03FFE00000
03FFD00000
02FFE00000
01FFE00000
01FFE00000
01FFE00000
01FFE00000
01FFE00000
00BFE00000
00BFE00000
00FFE00000
00BFF00000
00BFFFAB00
007FFFFE00
007FFFFE00
003FFFFD00
002FFBFD00
0019A7FD00
0004612800
0000001000
ENDCHAR
STARTCHAR lacute
ENCODING 314
SWIDTH 438 0
DWIDTH 16 0
BBX 19 41 1 -3
BITMAP
0000000B00
0000002F80
000000BF80
000007FFD0
00001FFFF8
0000BFFFE4
0002FFF900
0001FA4000
0000400000
0000000000
0000000000
01556BE000
6FFFFF4000
3FFFFC0000
1FFFF80000
0BFFF00000
0FFFE00000
0BFFF00000
07FFF00000
07FFE00000
07FFE00000
03FFE00000
03FFE00000
02FFE00000
01FFE00000
00FFE00000
00FFE00000
00FFE00000
00FFD00000
00FFD00000
00BFD00000
00BFE00000
00BFE40000
007FFFAE00
007FFFFD00
007FFFFC00
003FFFF800
003FDBF800
003846F400
002400A000
0010004000
ENDCHAR
STARTCHAR Lcommaaccent
ENCODING 315
SWIDTH 416 0
DWIDTH 15 0
BBX 16 48 0 -21
BITMAP
55554540
6FFFFF00
0FFFF800
0BFFF400
0BFFE000
07FFE000
07FFF000
03FFF000
03FFE000
03FFE000
03FFE000
03FFD000
02FFE000
01FFE000
01FFE000
01FFE000
01FFE000
01FFE000
00BFE000
00BFE000
00FFE000
00BFF000
00BFFFAB
007FFFFE
007FFFFE
003FFFFD
002FFBFD
0019A7FD
00046128
00000010
00000000
00150000
00BFFF80
00BFFF80
00BFFF80
00BFFF80
00BFFFC0
00FFFF80
00FFFF80
00FFFF80
0066BF80
00003F80
00007F40
00007F40
0000BF00
0000BF00
0000BE00
00005400
ENDCHAR
STARTCHAR lcommaaccent
ENCODING 316
SWIDTH 438 0
DWIDTH 16 0
BBX 16 48 1 -21
BITMAP
01556BE0
6FFFFF40
3FFFFC00
1FFFF800
0BFFF000
0FFFE000
0BFFF000
07FFF000
07FFE000
07FFE000
03FFE000
03FFE000
02FFE000
01FFE000
00FFE000
00FFE000
00FFE000
00FFD000
00FFD000
00BFD000
00BFE000
00BFE400
007FFFAE
007FFFFD
007FFFFC
003FFFF8
003FDBF8
003846F4
002400A0
00100040
00000000
00140000
00FFFF00
00FFFF40
01FFFF40
01FFFF40
01FFFF40
01FFFF40
01FFFF40
01FFFF40
0096FF40
00007F00
0000BF00
0000FE00
0000FE00
0001FE00
0001FD00
00005400
ENDCHAR
STARTCHAR Lcaron
ENCODING 317
SWIDTH 714 0
DWIDTH 26 0
BBX 25 30 0 -3
BITMAP
55554540540000
6FFFFF02FFFF00
0FFFF803FFFF40
07FFF403FFFF40
0BFFE003FFFF40
07FFE003FFFF40
07FFF003FFFF40
03FFF003FFFF40
03FFE003FFFF40
03FFE003FFFF40
03FFE003FFFF40
03FFD00145BF40
02FFE00000BF00
01FFE00000BF00
01FFE00000FE00
01FFE00000FE00
01FFE00001FD00
01FFE00001FD00
00BFE000005000
00BFE000000000
00BFE000000000
00BFF000000000
00BFFFAB000000
007FFFFE000000
007FFFFE000000
003FFFFD000000
002FFBFD000000
0019A7FD000000
00046128000000
00000010000000
ENDCHAR
STARTCHAR lcaron
ENCODING 318
SWIDTH 782 0
DWIDTH 28 0
BBX 26 30 1 -3
BITMAP
01556BE0050000
6FFFFF407FFFE0
3FFFFC007FFFE0
1FFFF8007FFFE0
0BFFF0007FFFE0
0FFFE0007FFFE0
0BFFF000BFFFF0
07FFF000BFFFE0
07FFE000BFFFE0
07FFE000BFFFE0
03FFE000BFFFE0
03FFE000145FE0
02FFE000000FE0
01FFE000001FD0
00FFE000001FD0
00FFE000002FC0
00FFE000002FC0
00FFD000002F80
00FFD000000400
00BFD000000000
00BFE000000000
00BFE400000000
007FFFAE000000
007FFFFD000000
007FFFFC000000
003FFFF8000000
003FDBF8000000
003846F4000000
002400A0000000
00100040000000
ENDCHAR
STARTCHAR Ldotaccent
ENCODING 319
SWIDTH 567 0
DWIDTH 20 0
BBX 22 30 0 -3
BITMAP
555545400000
6FFFFF000000
0FFFF8000000
0BFFF4000000
0BFFE0000000
07FFE0001500
07FFF06BFFF0
03FFF07FFFF0
03FFE07FFFF0
03FFE03FFFF0
03FFE03FFFF0
03FFD03FFFF0
02FFE03FFFF0
01FFE02FFFF0
01FFE02FFFF0
01FFE02FFFF0
01FFE02A5050
01FFE0000000
00BFE0000000
00BFE0000000
00FFE0000000
00BFF0000000
00BFFFAB0000
007FFFFE0000
007FFFFE0000
003FFFFD0000
002FFBFD0000
0019A7FD0000
000461280000
000000100000
ENDCHAR
STARTCHAR ldot
ENCODING 320
SWIDTH 660 0
DWIDTH 24 0
BBX 24 30 1 -3
BITMAP
01556BE00000
6FFFFF400000
3FFFFC000000
1FFFF8000000
0BFFF0000000
0FFFE0000000
0BFFF0000000
07FFF0000150
07FFE016BFFE
07FFE00BFFFE
03FFE00BFFFE
03FFE007FFFE
02FFE007FFFE
01FFE007FFFF
00FFE007FFFE
00FFE003FFFE
00FFE003FFFE
00FFD003FFFE
00FFD002A515
00BFD0000000
00BFE0000000
00BFE4000000
007FFFAE0000
007FFFFD0000
007FFFFC0000
003FFFF80000
003FDBF80000
003846F40000
002400A00000
001000400000
ENDCHAR
STARTCHAR Lslash
ENCODING 321
SWIDTH 428 0
DWIDTH 15 0
BBX 17 30 0 -3
BITMAP
1555554000
1FFFFF0000
0BFFF80000
03FFF40000
03FFE00000
03FFE00000
02FFF00000
01FFF00500
01FFE0BE00
01FFFBFE00
01FFFFFE00
01FFFFFF00
1BFFFFFF40
BFFFFFFF80
7FFFFFF900
3FFFFF4000
2FFFF40000
1FFFE00000
0ABFE00000
007FE00000
007FE00000
003FF00000
003FFFAB00
003FFFFE00
002FFFFE00
002FFFFD00
001FFBFD00
000967FC00
0004612800
0000001000
ENDCHAR
STARTCHAR lslash
ENCODING 322
SWIDTH 457 0
DWIDTH 16 0
BBX 17 30 1 -3
BITMAP
01556BE000
6FFFFF8000
2FFFFD0000
0FFFFC0000
07FFF40000
0BFFF40000
07FFF40100
03FFF42E00
03FFF6FF00
03FFFFFF00
02FFFFFF40
02FFFFFF80
1BFFFFFFC0
FFFFFFFE80
FFFFFFE000
BFFFFE0000
7FFFF00000
2FFFE00000
1EFFE00000
047FE00000
007FF00000
007FF40000
003FFFEF00
003FFFFE00
003FFFFD00
002FFFFC00
002FE7FC00
002952F800
001800B400
0004001000
ENDCHAR
STARTCHAR Nacute
ENCODING 323
SWIDTH 610 0
DWIDTH 22 0
BBX 23 45 1 -6
BITMAP
000000000400
000000001D00
000000007F00
00000002FF00
0000000BFF80
0000003FFFE4
000001FFFFE0
000007FFE400
000003F90000
000001400000
000000000000
000000000000
000582500000
7FFFC2FFE500
BFFFC1FFFD00
6FFFD0FFF800
0FFFE0FFE000
0FFFF0FFD000
0BFFF8FFD000
0BFFFCFFD000
0BFFFDFFD000
0BFFFEFFC000
07FFFFFFC000
07FFFFFFC000
07FFFFFF8000
03FFFFFF8000
03FFFFFF4000
03FFFFFF4000
02FFFFFF4000
01FFFFFF0000
01FFBFFF0000
00FF7FFF0000
00FF6FFF0000
00FF5FFF0000
00BF4FFE0000
00BF4BFE0000
00BF47FE0000
00BF87FD0000
007F83FD0000
007F82ED0000
007982E80000
006081980000
006041000000
002081000000
001040000000
ENDCHAR
STARTCHAR nacute
ENCODING 324
SWIDTH 664 0
DWIDTH 24 0
BBX 24 42 1 -4
BITMAP
000000000740
000000001FC0
00000000BFC0
00000002FFE0
0000000BFFF9
0000007FFFF9
000001FFF940
000000FE4000
000000500000
000000000000
000000000000
556AA0540050
FFFFF03FFFF0
7FFFF43FFFD0
3FFFF82FFFC0
1FFFFC1FFF40
0FFFFD1FFF00
0FFFFE2FFE00
0FFFFF2FFD00
0FFFFF2FFD00
0BFFFF7FFC00
0BFFFFFFFC00
0BFFFFFFF800
0BFFFFFFF800
07FFFFFFF800
07FFFFFFF400
07FFFFFFF400
03FFFFFFF000
03FFFFFFF000
02FFBFFFE000
01FFAFFFE000
01FF9FFFD000
01FF4FFFD000
01FF4FFFC000
00FF4BFF8000
00FF4BFF8000
00FF47FF0000
00BF43FF0000
00BF43FE0000
00A843F50000
000001590000
000000100000
ENDCHAR
STARTCHAR Ncommaaccent
ENCODING 325
SWIDTH 610 0
DWIDTH 22 0
BBX 20 52 1 -25
BITMAP
0005825000
7FFFC2FFE5
BFFFC1FFFD
6FFFD0FFF8
0FFFE0FFE0
0FFFF0FFD0
0BFFF8FFD0
0BFFFCFFD0
0BFFFDFFD0
0BFFFEFFC0
07FFFFFFC0
07FFFFFFC0
07FFFFFF80
03FFFFFF80
03FFFFFF40
03FFFFFF40
02FFFFFF40
01FFFFFF00
01FFBFFF00
00FF7FFF00
00FF6FFF00
00FF5FFF00
00BF4FFE00
00BF4BFE00
00BF47FE00
00BF87FD00
007F83FD00
007F82ED00
007982E800
0060819800
0060410000
0020810000
0010400000
0000000000
0000000000
0000140000
0002FFFE00
0002FFFE00
0002FFFF00
0002FFFF00
0002FFFF00
0002FFFF00
0002FFFF00
0002FFFF00
000196FF00
000000FE00
000000FE00
000001FD00
000001FD00
000002FC00
000002FC00
0000015000
ENDCHAR
STARTCHAR ncommaaccent
ENCODING 326
SWIDTH 664 0
DWIDTH 24 0
BBX 22 50 1 -23
BITMAP
556AA0540050
FFFFF03FFFF0
7FFFF43FFFD0
3FFFF82FFFC0
1FFFFC1FFF40
0FFFFD1FFF00
0FFFFE2FFE00
0FFFFF2FFD00
0FFFFF2FFD00
0BFFFF7FFC00
0BFFFFFFFC00
0BFFFFFFF800
0BFFFFFFF800
07FFFFFFF800
07FFFFFFF400
07FFFFFFF400
03FFFFFFF000
03FFFFFFF000
02FFBFFFE000
01FFAFFFE000
01FF9FFFD000
01FF4FFFD000
01FF4FFFC000
00FF4BFF8000
00FF4BFF8000
00FF47FF0000
00BF43FF0000
00BF43FE0000
00A843F50000
000001590000
000000100000
000000000000
000000000000
000005000000
0000BFFF8000
0000BFFF8000
0000BFFF8000
0000BFFFC000
0000BFFFC000
0000BFFF8000
0000FFFF8000
0000FFFF8000
000065BF8000
0000003F8000
0000003F4000
0000007F4000
0000007F4000
000000BF0000
000000BF0000
000000540000
ENDCHAR
STARTCHAR Ncaron
ENCODING 327
SWIDTH 610 0
DWIDTH 22 0
BBX 20 48 1 -6
BITMAP
00B0000780
07FC001FE0
07FE002FF4
03FF407FF0
01FF80FFD0
00FFD2FFC0
00BFF7FF40
003FFFFF00
002FFFFD00
001FFFFC00
000BFFF400
0007FFF000
0001559000
0000000000
0000000000
0005825000
7FFFC2FFE5
BFFFC1FFFD
6FFFD0FFF8
0FFFE0FFE0
0FFFF0FFD0
0BFFF8FFD0
0BFFFCFFD0
0BFFFDFFD0
0BFFFEFFC0
07FFFFFFC0
07FFFFFFC0
07FFFFFF80
03FFFFFF80
03FFFFFF40
03FFFFFF40
02FFFFFF40
01FFFFFF00
01FFBFFF00
00FF7FFF00
00FF6FFF00
00FF5FFF00
00BF4FFE00
00BF4BFE00
00BF47FE00
00BF87FD00
007F83FD00
007F82ED00
007982E800
0060819800
0060410000
0020810000
0010400000
ENDCHAR
STARTCHAR ncaron
ENCODING 328
SWIDTH 664 0
DWIDTH 24 0
BBX 22 46 1 -4
BITMAP
001E0000B000
00BF4002FC00
00FFC007FE00
007FE00FFD00
003FF02FFC00
002FF87FF400
000FFDFFF000
000BFFFFD000
0007FFFFC000
0002FFFF4000
0001FFFF0000
0000FFFD0000
000055580000
000000000000
000000000000
556AA0540050
FFFFF03FFFF0
7FFFF43FFFD0
3FFFF82FFFC0
1FFFFC1FFF40
0FFFFD1FFF00
0FFFFE2FFE00
0FFFFF2FFD00
0FFFFF2FFD00
0BFFFF7FFC00
0BFFFFFFFC00
0BFFFFFFF800
0BFFFFFFF800
07FFFFFFF800
07FFFFFFF400
07FFFFFFF400
03FFFFFFF000
03FFFFFFF000
02FFBFFFE000
01FFAFFFE000
01FF9FFFD000
01FF4FFFD000
01FF4FFFC000
00FF4BFF8000
00FF4BFF8000
00FF47FF0000
00BF43FF0000
00BF43FE0000
00A843F50000
000001590000
000000100000
ENDCHAR
STARTCHAR Omacron
ENCODING 332
SWIDTH 504 0
DWIDTH 18 0
BBX 17 37 1 -3
BITMAP
1FFAAAA000
1FFFFFE000
1FFFFFE000
1FFFFFE000
00A9559000
0000000000
0000000000
0005540000
00BFFE4000
07FFFFF000
1FFFFFF900
3FFFFFFE00
BFFFFFFF00
FFFFFFFF00
FFFFFFFF00
BFFFFFFF40
BFFFFFFF00
BFFFFFFF00
BFFFFFFF00
7FFD3FFF40
7FF82FFF40
3FF81FFF00
3FF41FFF00
2FF41FFF00
2FF41FFF00
2FF81FFD00
1FF81FFC00
1FF82FFC00
0FFC2FFC00
0BFD2FF400
0BFE7FF400
0BFFFFF000
03FFFFD000
01FFFFC000
002D3EC000
000C388000
0004340000
ENDCHAR
STARTCHAR omacron
ENCODING 333
SWIDTH 545 0
DWIDTH 20 0
BBX 18 37 1 -3
BITMAP
07FAAAA400
0BFFFFF400
0BFFFFF400
0BFFFFF400
006A556000
0000000000
0000000000
0006554000
00BFFFE000
07FFFFFD00
1FFFFFFF00
3FFFFFFF80
BFFFFFFFE0
BFFFFFFFE0
FFFFFFFFE0
FFFFFFFFE0
BFFFFFFFF0
BFFFFFFFE0
7FFFFFFFE0
7FFE1FFFF0
7FFD0FFFE0
3FFC0BFFE0
3FFC0BFFD0
2FFC0BFFD0
2FFC07FFC0
1FFC0BFF80
1FFC0BFF40
0FFC0FFF00
0BFD0FFE00
07FE1FFD00
07FF6FFD00
03FFFFFC00
02FFFFF400
015FFFF000
000A2FD000
00001D5000
0000045000
ENDCHAR
STARTCHAR Obreve
ENCODING 334
SWIDTH 504 0
DWIDTH 18 0
BBX 17 43 1 -3
BITMAP
0AA4000000
0FF402A900
0BF402FE00
07F803FD00
03FE5BFC00
03FFFFF800
02FFFFF400
005FFFE000
000A2FD000
00001D9000
0000044000
0000000000
0000000000
0005540000
00BFFE4000
07FFFFF000
1FFFFFF900
3FFFFFFE00
BFFFFFFF00
FFFFFFFF00
FFFFFFFF00
BFFFFFFF40
BFFFFFFF00
BFFFFFFF00
BFFFFFFF00
7FFD3FFF40
7FF82FFF40
3FF81FFF00
3FF41FFF00
2FF41FFF00
2FF41FFF00
2FF81FFD00
1FF81FFC00
1FF82FFC00
0FFC2FFC00
0BFD2FF400
0BFE7FF400
0BFFFFF000
03FFFFD000
01FFFFC000
002D3EC000
000C388000
0004340000
ENDCHAR
STARTCHAR obreve
ENCODING 335
SWIDTH 545 0
DWIDTH 20 0
BBX 18 43 1 -3
BITMAP
06A4000000
0BF801AA00
07FC01FF00
03FD02FE00
02FF5BFD00
02FFFFFC00
01FFFFF800
005BFFF000
00071FE000
00000D2000
0000041000
0000000000
0000000000
0006554000
00BFFFE000
07FFFFFD00
1FFFFFFF00
3FFFFFFF80
BFFFFFFFE0
BFFFFFFFE0
FFFFFFFFE0
FFFFFFFFE0
BFFFFFFFF0
BFFFFFFFE0
7FFFFFFFE0
7FFE1FFFF0
7FFD0FFFE0
3FFC0BFFE0
3FFC0BFFD0
2FFC0BFFD0
2FFC07FFC0
1FFC0BFF80
1FFC0BFF40
0FFC0FFF00
0BFD0FFE00
07FE1FFD00
07FF6FFD00
03FFFFFC00
02FFFFF400
015FFFF000
000A2FD000
00001D5000
0000045000
ENDCHAR
STARTCHAR Ohungarumlaut
ENCODING 336
SWIDTH 504 0
DWIDTH 18 0
BBX 18 44 1 -3
BITMAP
0040004000
00E000E000
02FD02FA00
03FF43FFE0
07FF87FF80
0BFE0BFF00
0FF80FFC00
2FF01FF400
3FC02FD000
BF403F4000
FD00BD0000
B400780000
1000100000
0000000000
0005540000
00BFFE4000
07FFFFF000
1FFFFFF900
3FFFFFFE00
BFFFFFFF00
FFFFFFFF00
FFFFFFFF00
BFFFFFFF40
BFFFFFFF00
BFFFFFFF00
BFFFFFFF00
7FFD3FFF40
7FF82FFF40
3FF81FFF00
3FF41FFF00
2FF41FFF00
2FF41FFF00
2FF81FFD00
1FF81FFC00
1FF82FFC00
0FFC2FFC00
0BFD2FF400
0BFE7FF400
0BFFFFF000
03FFFFD000
01FFFFC000
002D3EC000
000C388000
0004340000
ENDCHAR
STARTCHAR ohungarumlaut
ENCODING 337
SWIDTH 545 0
DWIDTH 20 0
BBX 19 45 1 -3
BITMAP
0010000000
0078007800
00BE00BD40
00FFC0FFF4
02FFD1FFE0
03FF83FF80
07FE07FE00
0BF80BFC00
1FE00FF000
2FC01FC000
3F002F0000
3D002D0000
0400040000
0000000000
0000000000
0006554000
00BFFFE000
07FFFFFD00
1FFFFFFF00
3FFFFFFF80
BFFFFFFFE0
BFFFFFFFE0
FFFFFFFFE0
FFFFFFFFE0
BFFFFFFFF0
BFFFFFFFE0
7FFFFFFFE0
7FFE1FFFF0
7FFD0FFFE0
3FFC0BFFE0
3FFC0BFFD0
2FFC0BFFD0
2FFC07FFC0
1FFC0BFF80
1FFC0BFF40
0FFC0FFF00
0BFD0FFE00
07FE1FFD00
07FF6FFD00
03FFFFFC00
02FFFFF400
015FFFF000
000A2FD000
00001D5000
0000045000
ENDCHAR
STARTCHAR OE
ENCODING 338
SWIDTH 789 0
DWIDTH 28 0
BBX 26 33 1 -6
BITMAP
00055555554000
00BFFFFFFFFFA0
07FFFFFFFFFFE0
1FFFFFFFFFFFD0
3FFFFFFFFFFFC0
BFFFFFFFFFFF40
FFFFFFFFFFFF00
FFFFFFFFFFFE00
BFFFFFFFFFFD00
BFFFFFFFFFFD00
BFFFFFFFFFFC00
BFFFFFFFFFFC00
7FFD3FFF41BC00
7FF82FFF400000
3FF42FFF400000
3FF41FFFFF8000
2FF41FFFFFC000
2FF41FFFFFC000
2FF41FFFFFC000
2FF81FFFFF8000
1FF82FFF400000
0FFC2FFF000000
0BFD3FFF6A4000
0BFEBFFFFFE000
0BFFFFFFFFD000
03FFFFFBFFD000
01FFFFC3FAC000
002D7EC3B0C000
000C3883508000
000C3483408000
00083443418000
00042003014000
00000001000000
ENDCHAR
STARTCHAR oe
ENCODING 339
SWIDTH 778 0
DWIDTH 28 0
BBX 26 30 1 -3
BITMAP
00165505550000
01BFFFFFFFFA50
07FFFFFFFFFFD0
1FFFFFFFFFFF80
3FFFFFFFFFFF40
BFFFFFFFFFFE00
BFFFFFFFFFFD00
FFFFFFFFFFFC00
FFFFFFFFFFFC00
BFFFFFFFFFF800
BFFFFFFFFFF800
7FFFBFFFFFF800
3FFE2FFFEBF400
3FFC1FFF806000
2FF81FFF800000
2FF80FFF400000
1FF80FFFFF4000
1FF80BFFFF4000
0FF80FFFFF4000
0FF80FFFFF4000
0BFC1FFFFF0000
0BFC1FFE010000
07FD2FFE000000
07FF7FFEA54000
07FFFFFFFFC000
02FFFFFFFF8000
016FFFFFFF8000
000D3FD7FF8000
00002881418000
00000040004000
ENDCHAR
STARTCHAR Racute
ENCODING 340
SWIDTH 599 0
DWIDTH 22 0
BBX 22 41 1 -3
BITMAP
000000002C00
00000000BD00
00000007FD00
0000001FFF40
0000007FFFE0
000002FFFF90
00000BFFE400
00000BE50000
000001000000
000000000000
000000000000
0006A9540000
5BBFFFFE0000
FFFFFFFFD000
2FFFFFFFF800
1FFFFFFFFD00
07FFFFFFFE00
03FFFFFFFE00
01FFFFFFFE00
01FFFFFFFE00
01FFFFFFFE00
01FFFFFFFE00
01FFF5BFFE00
00FFF02FFD00
00FFF02FFD00
00BFF02FFD00
00BFF47FFC00
007FFFFFF400
007FFFFFF000
003FFFFFF000
002FFFFF8000
002FFEFF8000
002FF4FFC000
002FF0BFD000
001FF4BFD000
001FF4BFD000
000FF47FD000
000FF47FE000
000AD42FE000
00008419A000
000040000000
ENDCHAR
STARTCHAR racute
ENCODING 341
SWIDTH 616 0
DWIDTH 22 0
BBX 23 42 1 -3
BITMAP
000000000400
000000001D00
000000007F00
00000002FF00
0000000BFF80
0000003FFFE4
000002FFFFE0
000007FFE400
000007F90000
000001400000
000000000000
000000000000
000665500000
5AFFFFFE4000
BFFFFFFFF400
3FFFFFFFFE00
1FFFFFFFFF40
07FFFFFFFF80
02FFFFFFFF40
01FFFFFFFF40
01FFFFFFFF40
01FFFFFFFF00
01FFFFFFFE00
00FFF9BFFE00
00FFF42FFD00
00FFF41FFD00
00BFF42FFC00
00FFF42FFC00
00BFFEBFF800
00BFFFFFF400
007FFFFFF000
003FFFFFE000
007FFFFF4000
003FF5FF4000
003FF0FF4000
003FF0FF8000
003FF4FF8000
003FF4FF4000
003FF0FF8000
003FA0FF8000
0025006B8000
000000018000
ENDCHAR
STARTCHAR Rcommaaccent
ENCODING 342
SWIDTH 599 0
DWIDTH 22 0
BBX 20 48 1 -21
BITMAP
0006A95400
5BBFFFFE00
FFFFFFFFD0
2FFFFFFFF8
1FFFFFFFFD
07FFFFFFFE
03FFFFFFFE
01FFFFFFFE
01FFFFFFFE
01FFFFFFFE
01FFFFFFFE
01FFF5BFFE
00FFF02FFD
00FFF02FFD
00BFF02FFD
00BFF47FFC
007FFFFFF4
007FFFFFF0
003FFFFFF0
002FFFFF80
002FFEFF80
002FF4FFC0
002FF0BFD0
001FF4BFD0
001FF4BFD0
000FF47FD0
000FF47FE0
000AD42FE0
00008419A0
0000400000
0000000000
0000500000
0007FFFC00
0007FFFC00
0007FFFC00
0007FFFC00
0007FFFD00
000BFFFC00
000BFFFC00
000BFFFC00
00025BFC00
000002FC00
000003F800
000003F800
000007F400
000007F400
000007F000
0000015000
ENDCHAR
STARTCHAR rcommaaccent
ENCODING 343
SWIDTH 616 0
DWIDTH 22 0
BBX 21 49 1 -22
BITMAP
000665500000
5AFFFFFE4000
BFFFFFFFF400
3FFFFFFFFE00
1FFFFFFFFF40
07FFFFFFFF80
02FFFFFFFF40
01FFFFFFFF40
01FFFFFFFF40
01FFFFFFFF00
01FFFFFFFE00
00FFF9BFFE00
00FFF42FFD00
00FFF41FFD00
00BFF42FFC00
00FFF42FFC00
00BFFEBFF800
00BFFFFFF400
007FFFFFF000
003FFFFFE000
007FFFFF4000
003FF5FF4000
003FF0FF4000
003FF0FF8000
003FF4FF8000
003FF4FF4000
003FF0FF8000
003FA0FF8000
0025006B8000
000000018000
000000000000
000000000000
000050000000
0002FFFD0000
0002FFFE0000
0003FFFE0000
0003FFFE0000
0003FFFE0000
0003FFFE0000
0003FFFE0000
0003FFFE0000
00019AFE0000
000000FD0000
000001FD0000
000002FC0000
000002FC0000
000003FC0000
000003F80000
000001500000
ENDCHAR
STARTCHAR Rcaron
ENCODING 344
SWIDTH 599 0
DWIDTH 22 0
BBX 20 45 1 -3
BITMAP
00780002D0
02FE0007F4
02FF400FFC
00FFC02FF8
00BFD07FF4
007FF0FFE0
002FFAFFD0
001FFFFF80
000FFFFF40
0007FFFE00
0003FFFD00
0002FFF800
0000556000
0000000000
0000000000
0006A95400
5BBFFFFE00
FFFFFFFFD0
2FFFFFFFF8
1FFFFFFFFD
07FFFFFFFE
03FFFFFFFE
01FFFFFFFE
01FFFFFFFE
01FFFFFFFE
01FFFFFFFE
01FFF5BFFE
00FFF02FFD
00FFF02FFD
00BFF02FFD
00BFF47FFC
007FFFFFF4
007FFFFFF0
003FFFFFF0
002FFFFF80
002FFEFF80
002FF4FFC0
002FF0BFD0
001FF4BFD0
001FF4BFD0
000FF47FD0
000FF47FE0
000AD42FE0
00008419A0
0000400000
ENDCHAR
STARTCHAR rcaron
ENCODING 345
SWIDTH 616 0
DWIDTH 22 0
BBX 21 45 1 -3
BITMAP
00780002D000
02FE000BF400
02FF401FFC00
01FF802FF800
00FFD07FF000
007FE0FFE000
003FF6FFC000
002FFFFF8000
000FFFFF0000
000BFFFE0000
0007FFFC0000
0002FFF80000
000155600000
000000000000
000000000000
000665500000
5AFFFFFE4000
BFFFFFFFF400
3FFFFFFFFE00
1FFFFFFFFF40
07FFFFFFFF80
02FFFFFFFF40
01FFFFFFFF40
01FFFFFFFF40
01FFFFFFFF00
01FFFFFFFE00
00FFF9BFFE00
00FFF42FFD00
00FFF41FFD00
00BFF42FFC00
00FFF42FFC00
00BFFEBFF800
00BFFFFFF400
007FFFFFF000
003FFFFFE000
007FFFFF4000
003FF5FF4000
003FF0FF4000
003FF0FF8000
003FF4FF8000
003FF4FF4000
003FF0FF8000
003FA0FF8000
0025006B8000
000000018000
ENDCHAR
STARTCHAR Sacute
ENCODING 346
SWIDTH 504 0
DWIDTH 18 0
BBX 20 41 1 -3
BITMAP
00000002C0
0000000BE0
0000007FE0
000001FFF4
000007FFFE
00002FFFF9
0000BFFE40
0000BE5000
0000100000
0000000000
0000000000
0001640000
006FFF8000
02FFFFF400
0FFFFFFD00
2FFFFFFF40
2FFFFFFF40
7FFFFFFF40
BFFFFFFF40
FFFFFFFF00
FFFFFFFF00
FFFFFFFF00
FFFFFFFF00
FFFD2FFF00
FFFC2FFF00
BFFE055600
7FFFE40000
3FFFFF4000
1FFFFFE000
02FFFFF400
006FFFFC00
00017FFC00
06A82FFC00
3FFD1FF800
2FFE7FF800
1FFFFFF000
0BFFFFD000
07FFFFC000
01FAEA8000
0044510000
0000100000
ENDCHAR
STARTCHAR sacute
ENCODING 347
SWIDTH 481 0
DWIDTH 17 0
BBX 20 40 1 -2
BITMAP
0000000380
0000001FD0
0000007FD0
000002FFF4
00000BFFFD
00007FFFF9
0000FFFA40
0000FE4000
0000500000
0000000000
0000000000
0005940000
00BFFF4000
03FFFFE000
0FFFFFF800
2FFFFFFD00
3FFFFFFE00
BFFFFFFD00
BFFFFFFD00
FFFFFFFD00
FFFFFFFC00
FFFFFFFC00
FFFFFFFC00
FFFCBFFC00
FFF83FF800
BFFC1AB800
7FFE501400
3FFFFD0000
2FFFFF4000
0BFFFF8000
01BFFFC000
000AFFD000
00007FE000
1BF83FE000
2FFC7FD000
0FFEBFC000
0BFFFF4000
03FFFF0000
02FFFD0000
00B9140000
ENDCHAR
STARTCHAR Scircumflex
ENCODING 348
SWIDTH 504 0
DWIDTH 18 0
BBX 17 45 1 -3
BITMAP
0015560000
002FFF8000
003FFFD000
00BFFFE000
00FFFFF400
01FFFFF800
03FF6FFD00
07FE0BFE00
0BF802FF40
1FE000FF80
2FC0007FC0
2F00001F40
0500000400
0000000000
0000000000
0001640000
006FFF8000
02FFFFF400
0FFFFFFD00
2FFFFFFF40
2FFFFFFF40
7FFFFFFF40
BFFFFFFF40
FFFFFFFF00
FFFFFFFF00
FFFFFFFF00
FFFFFFFF00
FFFD2FFF00
FFFC2FFF00
BFFE055600
7FFFE40000
3FFFFF4000
1FFFFFE000
02FFFFF400
006FFFFC00
00017FFC00
06A82FFC00
3FFD1FF800
2FFE7FF800
1FFFFFF000
0BFFFFD000
07FFFFC000
01FAEA8000
0044510000
0000100000
ENDCHAR
STARTCHAR scircumflex
ENCODING 349
SWIDTH 481 0
DWIDTH 17 0
BBX 17 44 1 -2
BITMAP
0015590000
007FFF0000
00BFFF8000
00FFFFC000
02FFFFE000
03FFFFF400
07FE7FF800
0FFC1FFD00
1FF407FE00
2FD002FF40
7F4000BF80
7E00002E00
0400000400
0000000000
0000000000
0005940000
00BFFF4000
03FFFFE000
0FFFFFF800
2FFFFFFD00
3FFFFFFE00
BFFFFFFD00
BFFFFFFD00
FFFFFFFD00
FFFFFFFC00
FFFFFFFC00
FFFFFFFC00
FFFCBFFC00
FFF83FF800
BFFC1AB800
7FFE501400
3FFFFD0000
2FFFFF4000
0BFFFF8000
01BFFFC000
000AFFD000
00007FE000
1BF83FE000
2FFC7FD000
0FFEBFC000
0BFFFF4000
03FFFF0000
02FFFD0000
00B9140000
ENDCHAR
STARTCHAR Scedilla
ENCODING 350
SWIDTH 504 0
DWIDTH 18 0
BBX 17 39 1 -12
BITMAP
0001640000
006FFF8000
02FFFFF400
0FFFFFFD00
2FFFFFFF40
2FFFFFFF40
7FFFFFFF40
BFFFFFFF40
FFFFFFFF00
FFFFFFFF00
FFFFFFFF00
FFFFFFFF00
FFFD2FFF00
FFFC2FFF00
BFFE055600
7FFFE40000
3FFFFF4000
1FFFFFE000
02FFFFF400
006FFFFC00
00017FFC00
06A82FFC00
3FFD1FF800
2FFE7FF800
1FFFFFF000
0BFFFFD000
07FFFFC000
01FAFE8000
0045F90000
0002F00000
0003E00000
0007E54000
0007FFC000
0006AFC000
00000FC000
00000BC000
0001AFC000
0007FFC000
0006AF8000
ENDCHAR
STARTCHAR scedilla
ENCODING 351
SWIDTH 481 0
DWIDTH 17 0
BBX 16 40 1 -13
BITMAP
00059400
00BFFF40
03FFFFE0
0FFFFFF8
2FFFFFFD
3FFFFFFE
BFFFFFFD
BFFFFFFD
FFFFFFFD
FFFFFFFC
FFFFFFFC
FFFFFFFC
FFFCBFFC
FFF83FF8
BFFC1AB8
7FFE5014
3FFFFD00
2FFFFF40
0BFFFF80
01BFFFC0
000AFFD0
00007FE0
1BF83FE0
2FFC7FD0
0FFEBFC0
0BFFFF40
03FFFF00
02FFFD00
00BFE400
000BD000
000F8000
001F4000
002F5500
002FFE00
001ABE00
00003E00
00003E00
0016BE00
002FFE00
001ABD00
ENDCHAR
STARTCHAR Scaron
ENCODING 352
SWIDTH 503 0
DWIDTH 18 0
BBX 17 49 1 -3
BITMAP
0100001000
1F4000B800
7FC001FE00
7FE003FF40
3FF40BFE00
1FF81FFD00
0FFD2FF800
0BFFBFF400
03FFFFE000
02FFFFD000
01FFFF8000
00BFFF4000
007FFE0000
0010040000
0000000000
0000000000
0000000000
0000000000
0000000000
0001640000
006FFF8000
02FFFFF400
0FFFFFFD00
2FFFFFFF40
2FFFFFFF40
7FFFFFFF40
BFFFFFFF00
FFFFFFFF00
FFFFFFFF00
FFFFFFFF00
FFFFFFFF00
FFFD2FFF00
FFFC2FFF00
BFFD055600
7FFFE40000
3FFFFF4000
1FFFFFE000
02FFFFF400
006FFFFC00
00017FFC00
06A42FFC00
3FFD1FF800
2FFD7FF800
1FFFFFF000
0BFFFFD000
07FFFFC000
01FAEA4000
0044510000
0000100000
ENDCHAR
STARTCHAR scaron
ENCODING 353
SWIDTH 479 0
DWIDTH 17 0
BBX 16 47 1 -2
BITMAP
1D0000A0
BF4002F8
FFC007FE
7FE00FFE
3FF01FFC
2FF83FF8
0FFDBFF0
0BFFFFE0
07FFFFC0
02FFFF40
01FFFF00
00FFFD00
00656800
00000000
00000000
00000000
00000000
00000000
00059400
00BFFF40
03FFFFD0
0FFFFFF4
2FFFFFFD
3FFFFFFE
BFFFFFFD
BFFFFFFD
FFFFFFFC
FFFFFFFC
FFFFFFFC
FFFFFFFC
FFFCBFF8
FFF83FF8
BFFC1AF8
7FFE5014
3FFFFD00
2FFFFF00
0BFFFF80
01BFFFC0
001AFFD0
00007FD0
1BF83FD0
2FFC7FC0
1FFEBF80
0BFFFF40
03FFFE00
02FFFD00
00B91400
ENDCHAR
STARTCHAR Tcommaaccent
ENCODING 354
SWIDTH 622 0
DWIDTH 22 0
BBX 20 41 1 -14
BITMAP
0015555000
6BFFFFFF95
7FFFFFFFFF
2FFFFFFFFE
1FFFFFFFFC
0FFFFFFFF4
0BFFFFFFF8
07FFFFFFF8
07FFFFFFF8
07FFFFFFF4
07FFFFFFF4
03FFFFFFF0
03FFFFFBF0
0251FFE060
0000FFE000
0000FFE000
0000FFE000
0000FFE000
0000FFD000
0000FFE000
0000FFD000
0000FFD000
0000FFD000
0000BFD000
0000BFD000
0000BFD000
0000BFD000
0000BFD000
0000BFD000
0000BFC000
0000AF4000
00002F0000
00003D0000
00007E5400
00007FFC00
00006AFC00
000000FC00
000000F800
00005AF800
00007FF800
00006AF800
ENDCHAR
STARTCHAR tcommaaccent
ENCODING 355
SWIDTH 683 0
DWIDTH 25 0
BBX 22 42 1 -15
BITMAP
0016AAAA9400
1AFFFFFFFFA0
FFFFFFFFFFF0
7FFFFFFFFFD0
2FFFFFFFFFC0
0FFFFFFFFF40
0BFFFFFFFF40
07FFFFFFFF40
03FFFFFFFF00
03FFFFFFFF00
02FFFFFFFF00
02FFFFFFFF00
02FFBFFDFE00
02A47FFC0500
01003FFC0000
00003FFD0000
00003FFD0000
00002FFD0000
00002FFD0000
00002FFD0000
00002FFD0000
00002FFC0000
00001FFC0000
00001FFC0000
00000FFC0000
00000FFC0000
00001FFC0000
00000FFC0000
00000FFC0000
00000FFC0000
000002F80000
000003F40000
000007D00000
00000BC00000
00000F950000
00000FFF4000
00000ABF4000
0000002F4000
0000001F4000
000005BF4000
00000FFF4000
00000AAF4000
ENDCHAR
STARTCHAR Tcaron
ENCODING 356
SWIDTH 622 0
DWIDTH 22 0
BBX 20 45 1 -4
BITMAP
01F0000740
07F8001FD0
07FE003FF4
03FF00BFF0
02FF80FFD0
00FFD2FFC0
00BFE7FF40
007FFFFF00
002FFFFD00
001FFFF800
000FFFF400
0007FFE000
0001559000
0000000000
0015555000
6BFFFFFF95
7FFFFFFFFF
2FFFFFFFFE
1FFFFFFFFC
0FFFFFFFF4
0BFFFFFFF8
07FFFFFFF8
07FFFFFFF8
07FFFFFFF4
07FFFFFFF4
03FFFFFFF0
03FFFFFBF0
0251FFE060
0000FFE000
0000FFE000
0000FFE000
0000FFE000
0000FFD000
0000FFE000
0000FFD000
0000FFD000
0000FFD000
0000BFD000
0000BFD000
0000BFD000
0000BFD000
0000BFD000
0000BFD000
0000BE4000
0000810000
ENDCHAR
STARTCHAR tcaron
ENCODING 357
SWIDTH 622 0
DWIDTH 22 0
BBX 20 45 1 -4
BITMAP
00780002D0
02FE0007F4
02FF400FFC
01FFC02FF8
00BFD07FF4
007FF0FFE0
003FFAFFD0
001FFFFF80
000FFFFF00
000BFFFE00
0003FFFC00
0002FFF800
0000556000
0000000000
0015555000
6BFFFFFF95
7FFFFFFFFF
2FFFFFFFFE
1FFFFFFFFC
0FFFFFFFF4
0BFFFFFFF8
07FFFFFFF8
07FFFFFFF8
07FFFFFFF4
07FFFFFFF4
03FFFFFFF0
03FFFFFBF0
0251FFE060
0000FFE000
0000FFE000
0000FFE000
0000FFE000
0000FFD000
0000FFE000
0000FFD000
0000FFD000
0000FFD000
0000BFD000
0000BFD000
0000BFD000
0000BFD000
0000BFD000
0000BFD000
0000BE4000
0000810000
ENDCHAR
STARTCHAR Utilde
ENCODING 360
SWIDTH 637 0
DWIDTH 23 0
BBX 22 39 0 -2
BITMAP
0018006E4000
00BE01BFD000
03FF5BFFF400
03FFFFFFF800
01FFFFFFFC00
007FFFFFF400
002FFD0BD000
000690010000
000000000000
000000000000
005AA4100000
6FFFF02FFA40
0BFFF02FFFE0
07FFF02FFF80
03FFF03FFF40
03FFE02FFF00
03FFF02FFF00
02FFF43FFE00
02FFF43FFD00
01FFF43FFC00
01FFF43FFC00
00FFF43FF800
00FFF03FF400
00FFF03FF400
00BFE07FF000
00BFE07FF000
00FFE07FF000
00FFF07FF000
00BFF07FE000
00BFF4BFE000
007FF4BFE000
003FF4BFD000
003FFEFFD000
002FFFFFC000
002FFFFF8000
001FF6FF4000
0007B1540000
000241140000
000100200000
ENDCHAR
STARTCHAR utilde
ENCODING 361
SWIDTH 708 0
DWIDTH 26 0
BBX 25 38 1 -1
BITMAP
0018001E400000
007E00BFE00000
02FF9BFFF40000
02FFFFFFFD0000
00FFFFFFFD0000
007FFFFFF80000
001FFE07D00000
00019000400000
00000000000000
00000000000000
00155400000000
6BFFF40BE64000
3FFFF40BFFF900
1FFFF40BFFFF40
0FFFF40FFFFC00
0BFFF40FFFF400
0BFFF40FFFF000
07FFF80BFFE000
03FFF80BFFD000
03FFF80FFFC000
02FFFC0FFF8000
01FFFC0FFF4000
01FFFC0FFF4000
00FFF80FFF0000
00FFF40FFF0000
00FFF41FFE0000
00FFF41FFE0000
00FFF81FFE0000
00FFF81FFE0000
007FFC2FFD0000
007FFC2FFC0000
002FFC3FFC0000
001FFEBFFC0000
001FFFFFF80000
000FFFFFF40000
000BFDBFE00000
0000A82A900000
00000004000000
ENDCHAR
STARTCHAR Umacron
ENCODING 362
SWIDTH 637 0
DWIDTH 23 0
BBX 22 36 0 -2
BITMAP
001FEAAA9000
002FFFFFE000
002FFFFFD000
002FFFFFD000
0001A9559000
000000000000
000000000000
005AA4100000
6FFFF02FFA40
0BFFF02FFFE0
07FFF02FFF80
03FFF03FFF40
03FFE02FFF00
03FFF02FFF00
02FFF43FFE00
02FFF43FFD00
01FFF43FFC00
01FFF43FFC00
00FFF43FF800
00FFF03FF400
00FFF03FF400
00BFE07FF000
00BFE07FF000
00FFE07FF000
00FFF07FF000
00BFF07FE000
00BFF4BFE000
007FF4BFE000
003FF4BFD000
003FFEFFD000
002FFFFFC000
002FFFFF8000
001FF6FF4000
0007B1540000
000241140000
000100200000
ENDCHAR
STARTCHAR umacron
ENCODING 363
SWIDTH 708 0
DWIDTH 26 0
BBX 25 35 1 -1
BITMAP
001FFAAAA00000
001FFFFFE00000
001FFFFFE00000
001FFFFFE00000
0000A955900000
00000000000000
00000000000000
00155400000000
6BFFF40BE64000
3FFFF40BFFF900
1FFFF40BFFFF40
0FFFF40FFFFC00
0BFFF40FFFF400
0BFFF40FFFF000
07FFF80BFFE000
03FFF80BFFD000
03FFF80FFFC000
02FFFC0FFF8000
01FFFC0FFF4000
01FFFC0FFF4000
00FFF80FFF0000
00FFF40FFF0000
00FFF41FFE0000
00FFF41FFE0000
00FFF81FFE0000
00FFF81FFE0000
007FFC2FFD0000
007FFC2FFC0000
002FFC3FFC0000
001FFEBFFC0000
001FFFFFF80000
000FFFFFF40000
000BFDBFE00000
0000A82A900000
00000004000000
ENDCHAR
STARTCHAR Ubreve
ENCODING 364
SWIDTH 637 0
DWIDTH 23 0
BBX 22 42 0 -2
BITMAP
001AA0000000
001FF002A900
000FF403FD00
000BF807FC00
0007FE5FF800
0007FFFFF400
0003FFFFF000
00015FFFD000
00000D3FC000
000000288000
000000004000
000000000000
000000000000
005AA4100000
6FFFF02FFA40
0BFFF02FFFE0
07FFF02FFF80
03FFF03FFF40
03FFE02FFF00
03FFF02FFF00
02FFF43FFE00
02FFF43FFD00
01FFF43FFC00
01FFF43FFC00
00FFF43FF800
00FFF03FF400
00FFF03FF400
00BFE07FF000
00BFE07FF000
00FFE07FF000
00FFF07FF000
00BFF07FE000
00BFF4BFE000
007FF4BFE000
003FF4BFD000
003FFEFFD000
002FFFFFC000
002FFFFF8000
001FF6FF4000
0007B1540000
000241140000
000100200000
ENDCHAR
STARTCHAR ubreve
ENCODING 365
SWIDTH 708 0
DWIDTH 26 0
BBX 25 41 1 -1
BITMAP
0006A400000000
000BF801A90000
0007F802FF0000
0007FC03FE0000
0003FF5BFD0000
0003FFFFFC0000
0001FFFFF40000
00005FFFE00000
0000061FD00000
0000001D500000
00000004500000
00000000000000
00000000000000
00155400000000
6BFFF40BE64000
3FFFF40BFFF900
1FFFF40BFFFF40
0FFFF40FFFFC00
0BFFF40FFFF400
0BFFF40FFFF000
07FFF80BFFE000
03FFF80BFFD000
03FFF80FFFC000
02FFFC0FFF8000
01FFFC0FFF4000
01FFFC0FFF4000
00FFF80FFF0000
00FFF40FFF0000
00FFF41FFE0000
00FFF41FFE0000
00FFF81FFE0000
00FFF81FFE0000
007FFC2FFD0000
007FFC2FFC0000
002FFC3FFC0000
001FFEBFFC0000
001FFFFFF80000
000FFFFFF40000
000BFDBFE00000
0000A82A900000
00000004000000
ENDCHAR
STARTCHAR Uring
ENCODING 366
SWIDTH 637 0
DWIDTH 23 0
BBX 22 42 0 -2
BITMAP
000006900000
0000BFFD0000
0001FFFF4000
0002F9BF8000
0002F01F8000
0002F00F8000
0001F00F4000
0000F97E0000
0000FFFC0000
00005FF40000
000001800000
000000000000
000000000000
005AA4100000
6FFFF02FFA40
0BFFF02FFFE0
07FFF02FFF80
03FFF03FFF40
03FFE02FFF00
03FFF02FFF00
02FFF43FFE00
02FFF43FFD00
01FFF43FFC00
01FFF43FFC00
00FFF43FF800
00FFF03FF400
00FFF03FF400
00BFE07FF000
00BFE07FF000
00FFE07FF000
00FFF07FF000
00BFF07FE000
00BFF4BFE000
007FF4BFE000
003FF4BFD000
003FFEFFD000
002FFFFFC000
002FFFFF8000
001FF6FF4000
0007B1540000
000241140000
000100200000
ENDCHAR
STARTCHAR uring
ENCODING 367
SWIDTH 708 0
DWIDTH 26 0
BBX 25 41 1 -1
BITMAP
00000694000000
00002FFE000000
0000BFFF800000
0000FE6FD00000
0000F807D00000
0000F807D00000
0000B807C00000
00007E6F400000
00007FFE000000
00002BF9000000
00000160000000
00000000000000
00000000000000
00155400000000
6BFFF40BE64000
3FFFF40BFFF900
1FFFF40BFFFF40
0FFFF40FFFFC00
0BFFF40FFFF400
0BFFF40FFFF000
07FFF80BFFE000
03FFF80BFFD000
03FFF80FFFC000
02FFFC0FFF8000
01FFFC0FFF4000
01FFFC0FFF4000
00FFF80FFF0000
00FFF40FFF0000
00FFF41FFE0000
00FFF41FFE0000
00FFF81FFE0000
00FFF81FFE0000
007FFC2FFD0000
007FFC2FFC0000
002FFC3FFC0000
001FFEBFFC0000
001FFFFFF80000
000FFFFFF40000
000BFDBFE00000
0000A82A900000
00000004000000
ENDCHAR
STARTCHAR Uhungarumlaut
ENCODING 368
SWIDTH 637 0
DWIDTH 23 0
BBX 22 44 0 -2
BITMAP
000040004000
0001E001E000
0002F802F500
0003FF03FFD0
0007FF47FF80
000FFE0BFE00
001FF81FF800
002FE02FF000
007F803FC000
00BF007F0000
00FD00BD0000
00F400B40000
001000100000
000000000000
000000000000
005AA4100000
6FFFF02FFA40
0BFFF02FFFE0
07FFF02FFF80
03FFF03FFF40
03FFE02FFF00
03FFF02FFF00
02FFF43FFE00
02FFF43FFD00
01FFF43FFC00
01FFF43FFC00
00FFF43FF800
00FFF03FF400
00FFF03FF400
00BFE07FF000
00BFE07FF000
00FFE07FF000
00FFF07FF000
00BFF07FE000
00BFF4BFE000
007FF4BFE000
003FF4BFD000
003FFEFFD000
002FFFFFC000
002FFFFF8000
001FF6FF4000
0007B1540000
000241140000
000100200000
ENDCHAR
STARTCHAR uhungarumlaut
ENCODING 369
SWIDTH 708 0
DWIDTH 26 0
BBX 25 43 1 -1
BITMAP
00004000400000
0000E000E00000
0001FD01FA4000
0002FF42FFE000
0007FF87FFC000
000BFE0BFF0000
000FFC0FFD0000
001FF01FF40000
003FD02FD00000
007F403F400000
00FD007D000000
00B40078000000
00100010000000
00000000000000
00000000000000
00155400000000
6BFFF40BE64000
3FFFF40BFFF900
1FFFF40BFFFF40
0FFFF40FFFFC00
0BFFF40FFFF400
0BFFF40FFFF000
07FFF80BFFE000
03FFF80BFFD000
03FFF80FFFC000
02FFFC0FFF8000
01FFFC0FFF4000
01FFFC0FFF4000
00FFF80FFF0000
00FFF40FFF0000
00FFF41FFE0000
00FFF41FFE0000
00FFF81FFE0000
00FFF81FFE0000
007FFC2FFD0000
007FFC2FFC0000
002FFC3FFC0000
001FFEBFFC0000
001FFFFFF80000
000FFFFFF40000
000BFDBFE00000
0000A82A900000
00000004000000
ENDCHAR
STARTCHAR Uogonek
ENCODING 370
SWIDTH 637 0
DWIDTH 23 0
BBX 22 39 0 -12
BITMAP
005AA4100000
6FFFF02FFA40
0BFFF02FFFE0
07FFF02FFF80
03FFF03FFF40
03FFE02FFF00
03FFF02FFF00
02FFF43FFE00
02FFF43FFD00
01FFF43FFC00
01FFF43FFC00
00FFF43FF800
00FFF03FF400
00FFF03FF400
00BFE07FF000
00BFE07FF000
00FFE07FF000
00FFF07FF000
00BFF07FE000
00BFF4BFE000
007FF4BFE000
003FF4BFD000
003FFEFFD000
002FFFFFC000
002FFFFF8000
001FF7FF4000
0007B3FC0000
000243F80000
000107F40000
000007F00000
00000BF00000
00000BF40000
00000BF80000
000007FE5500
000003FFFE00
000002FFFE00
000000BFFE00
0000001BFE00
000000001000
ENDCHAR
STARTCHAR uogonek
ENCODING 371
SWIDTH 662 0
DWIDTH 24 0
BBX 26 38 0 -11
BITMAP
00055500000000
5AFFFD03F99000
0FFFFD02FFFE40
07FFFC03FFFFD0
03FFFD07FFFE00
03FFFD03FFFC00
02FFFD03FFFC00
01FFFE03FFF800
00FFFE03FFF000
00FFFE03FFE000
00BFFE03FFE000
00BFFE03FFD000
007FFE03FFC000
007FFE03FFC000
003FFD07FF8000
003FFD0BFF8000
003FFD0BFF8000
003FFD07FF8000
003FFE0BFF4000
002FFF0BFF4000
001FFF0FFF0000
000BFF0FFE0000
000BFFAFFE0000
0007FFFFFD0000
0003FFFFFC0000
0002FFFFF80000
00002FFA640000
00000FE1000000
00000FE0000000
00001FD0000000
00001FE0000000
00000FF0000000
00000FFD540000
00000BFFFD0000
000007FFFC0000
000001FFFC0000
0000006FFC0000
00000000400000
ENDCHAR
STARTCHAR Wcircumflex
ENCODING 372
SWIDTH 777 0
DWIDTH 28 0
BBX 28 43 0 -1
BITMAP
00000556800000
00000FFFD00000
00001FFFF00000
00003FFFF40000
00007FFFFC0000
0000BFFFFD0000
0001FFDBFF0000
0002FF43FF4000
0003FD01FFC000
000BF8007FD000
000FE0001FE000
000B80000B8000
00010000010000
00000000000000
00000015000000
0000007F025400
005BE07F02FF90
1BFFF0BF42FFFE
6FFFE0FF43FFF4
07FFF0FF8BFFC0
01FFF1FFCBFF40
00BFF6FFCFFE00
003FF6FFEFFC00
002FFAFFFFF800
002FFBFFFFF000
001FFFFFFFE000
001FFFFFFFD000
000BFFFFFFC000
0003FFFFFF8000
0002FFFFFFC000
0001FFFFFFC000
0000FFFFFF8000
0000BFFFFF4000
0000BFFBFF0000
00007FEBFF0000
00003FEBFF0000
00003FD7FE0000
00002FD7FC0000
00001FC7F80000
00000FC3F40000
00000BC3F40000
00000595B00000
00000040000000
ENDCHAR
STARTCHAR wcircumflex
ENCODING 373
SWIDTH 704 0
DWIDTH 25 0
BBX 26 42 0 0
BITMAP
0000155A000000
00003FFF400000
00007FFFC00000
0000FFFFD00000
0001FFFFF00000
0002FFFFF40000
0007FF6FFC0000
000BFD0FFD0000
000FF407FF0000
002FE001FF4000
003F80007F8000
002E00002E0000
00040000040000
00000000000000
00000000000000
000001A4100000
06AF82F42BA400
7FFFC2F81FFF90
1FFFC3FC2FFE00
02FFD3FD3FFC00
00FFD7FE3FF800
00BFD7FE3FF400
007FE7FF7FE000
003FFBFFFFD000
003FFBFFFFC000
002FFFFFFF8000
001FFFFFFF4000
000FFFFFFF0000
0007FFFFFF0000
0003FFFFFE0000
0002FFFFFF0000
0002FFFFFD0000
0001FFFFFD0000
0000FFEFFD0000
0000BFDFFD0000
0000BFDFFD0000
00007FDBFD0000
00003FCBF80000
00002FCBF80000
00001F87F80000
00000FC7F80000
00000506B40000
ENDCHAR
STARTCHAR Ycircumflex
ENCODING 374
SWIDTH 688 0
DWIDTH 25 0
BBX 25 44 0 -2
BITMAP
00001559000000
00007FFF000000
0000BFFF800000
0000FFFFC00000
0002FFFFE00000
0003FFFFF00000
0007FE7FF80000
000FFC1FFC0000
001FF407FE0000
002FD002FF4000
007F4000BF4000
007D00002E0000
00040000040000
00000000000000
00000000000000
0056A001800000
6FFFF802FA5000
0BFFFC03FFFE40
01FFFE03FFFE40
002FFF47FFF400
000BFF8FFFD000
0007FFEFFF4000
0000FFFFFE0000
00007FFFF80000
00003FFFF40000
00002FFFF40000
00000FFFF00000
00000FFFF00000
00000BFFE00000
000003FFE00000
000002FFE00000
000001FFE00000
000000FFD00000
000000FFD00000
000000BFD00000
000000BFD00000
0000007FD00000
0000007FD00000
0000007FD00000
0000007FC00000
0000003FC00000
0000003FC00000
0000003E400000
00000010000000
ENDCHAR
STARTCHAR ycircumflex
ENCODING 375
SWIDTH 604 0
DWIDTH 22 0
BBX 20 44 1 -2
BITMAP
0005568000
000FFFD000
001FFFE000
003FFFF400
007FFFF800
00BFFFFD00
01FFDFFF00
02FF43FF40
03FD01FFC0
0BF4007FD0
0FE0002FE0
0B80000B80
0100000100
0000000000
0000000000
0115005000
6FFF00BE50
2FFF81FFFD
0BFFC1FFF8
01FFD2FFE0
007FE7FF80
003FFBFF00
002FFFFD00
000BFFF800
000BFFF400
0007FFF400
0003FFF000
0003FFF000
0002FFF000
0001FFE000
0000FFE000
0000FFE000
0000BFE000
0000BFD000
00007FD000
00007FD000
0000BFD000
0000BFD000
0000BFD000
0000BFC000
0000BF8000
0000BF8000
00007F8000
0000744000
ENDCHAR
STARTCHAR Ydieresis
ENCODING 376
SWIDTH 688 0
DWIDTH 25 0
BBX 25 41 0 -2
BITMAP
000400001A4000
00BFFC0BFFE000
00FFFC0BFFE000
00FFFC0BFFE000
00FFFC0BFFD000
00FFFC0BFFE000
00FFFC0BFFE000
00FFFC0BFFE000
00BFFC0BFA9000
00000000000000
00000000000000
00000000000000
0056A001800000
6FFFF802FA5000
0BFFFC03FFFE40
01FFFE03FFFE40
002FFF47FFF400
000BFF8FFFD000
0007FFEFFF4000
0000FFFFFE0000
00007FFFF80000
00003FFFF40000
00002FFFF40000
00000FFFF00000
00000FFFF00000
00000BFFE00000
000003FFE00000
000002FFE00000
000001FFE00000
000000FFD00000
000000FFD00000
000000BFD00000
000000BFD00000
0000007FD00000
0000007FD00000
0000007FD00000
0000007FC00000
0000003FC00000
0000003FC00000
0000003E400000
00000010000000
ENDCHAR
STARTCHAR Zacute
ENCODING 377
SWIDTH 695 0
DWIDTH 25 0
BBX 25 39 1 -1
BITMAP
0000000001D000
0000000007F000
000000002FF000
00000000BFF800
00000002FFFE40
0000001FFFFE40
0000007FFE5000
0000003F900000
00000014000000
00000000000000
00000000000000
005A9AA5400000
1BFFFFFFEA4000
BFFFFFFFFFF900
7FFFFFFFFFF800
2FFFFFFFFFF000
1FFFFFFFFFE000
0BFFFFFFFFC000
07FFFFFFFF8000
03FFFFFFFF4000
02FFFFFFFE0000
01FFFFFFFD0000
01FFFFFFF80000
01FE5BFFF00000
01E00FFF800000
00402FFE000000
00007FF8000000
0000BFF4000000
0000FFD0000000
0001FF80000000
0001FF40000000
0003FE00000000
0007FC00000000
000FFFFA000000
001FFFFF400000
002FFFFE000000
003FFFFD000000
002EBFFC000000
000411B4000000
ENDCHAR
STARTCHAR zacute
ENCODING 378
SWIDTH 622 0
DWIDTH 22 0
BBX 23 40 1 -2
BITMAP
000000001D00
000000007F00
00000002FF00
0000000BFF80
0000002FFFE4
000001FFFFE4
000007FFE500
000003F90000
000001400000
000000000000
000000000000
006A6AA50000
6FFFFFFFF900
BFFFFFFFFF00
3FFFFFFFFE00
2FFFFFFFFD00
0FFFFFFFF800
0BFFFFFFF400
03FFFFFFF000
02FFFFFFE000
02FFFFFFE000
01FFFFFFD000
01FFFFFFC000
00FE5FFF4000
00E02FFD0000
00403FF40000
00007FE00000
0000BFD00000
0000BF800000
0001FF400000
0001FE000000
0002FD000000
0007FD000000
0007FAA40000
000BFFFE0000
001FFFFD0000
001FFFFC0000
001FFFFD0000
000A2ABC0000
000400080000
ENDCHAR
STARTCHAR Zdotaccent
ENCODING 379
SWIDTH 695 0
DWIDTH 25 0
BBX 24 42 1 -1
BITMAP
000000540000
0005AFFF8000
0002FFFF8000
0002FFFF8000
0001FFFF8000
0001FFFF8000
0001FFFFC000
0001FFFF8000
0000FFFF8000
0000FFFF8000
0000FFFF8000
0000A9454000
000000000000
000000000000
005A9AA54000
1BFFFFFFEA40
BFFFFFFFFFF9
7FFFFFFFFFF8
2FFFFFFFFFF0
1FFFFFFFFFE0
0BFFFFFFFFC0
07FFFFFFFF80
03FFFFFFFF40
02FFFFFFFE00
01FFFFFFFD00
01FFFFFFF800
01FE5BFFF000
01E00FFF8000
00402FFE0000
00007FF80000
0000BFF40000
0000FFD00000
0001FF800000
0001FF400000
0003FE000000
0007FC000000
000FFFFA0000
001FFFFF4000
002FFFFE0000
003FFFFD0000
002EBFFC0000
000411B40000
ENDCHAR
STARTCHAR zdotaccent
ENCODING 380
SWIDTH 622 0
DWIDTH 22 0
BBX 20 43 1 -2
BITMAP
0000054000
005AFFF800
002FFFF800
002FFFF800
001FFFF800
001FFFF800
001FFFF800
001FFFF800
000FFFF800
000FFFF800
000FFFF800
000A945000
0000000000
0000000000
006A6AA500
6FFFFFFFF9
BFFFFFFFFF
3FFFFFFFFE
2FFFFFFFFD
0FFFFFFFF8
0BFFFFFFF4
03FFFFFFF0
02FFFFFFE0
02FFFFFFE0
01FFFFFFD0
01FFFFFFC0
00FE5FFF40
00E02FFD00
00403FF400
00007FE000
0000BFD000
0000BF8000
0001FF4000
0001FE0000
0002FD0000
0007FD0000
0007FAA400
000BFFFE00
001FFFFD00
001FFFFC00
001FFFFD00
000A2ABC00
0004000800
ENDCHAR
STARTCHAR Zcaron
ENCODING 381
SWIDTH 693 0
DWIDTH 25 0
BBX 24 47 1 -1
BITMAP
000400001000
001F0000F400
007F8002FC00
007FD007FE00
003FF00FFD00
001FF42FF800
000FFC3FF400
000BFEBFE000
0007FFFFD000
0002FFFF8000
0001FFFF4000
0000FFFF0000
0000BFFD0000
000010140000
000000000000
000000000000
000000000000
000000000000
000000000000
005A9AA54000
1BFFFFFFEA40
BFFFFFFFFFF9
7FFFFFFFFFF8
2FFFFFFFFFF0
1FFFFFFFFFE0
0BFFFFFFFFC0
07FFFFFFFF80
03FFFFFFFF40
02FFFFFFFE00
02FFFFFFFD00
01FFFFFFF800
01FE5BFFF000
01E00FFF8000
00402FFE0000
00007FF80000
0000BFF40000
0000FFD00000
0001FF800000
0001FF400000
0003FE000000
0007FC000000
000FFFFA0000
001FFFFF4000
002FFFFE0000
003FFFFD0000
002EBFFC0000
000411B40000
ENDCHAR
STARTCHAR zcaron
ENCODING 382
SWIDTH 621 0
DWIDTH 22 0
BBX 20 48 1 -2
BITMAP
0050000100
01F4000B80
07FC002FE0
03FE007FF0
02FF40BFE0
01FF81FFC0
00FFD3FF80
007FFBFF00
003FFFFE00
002FFFFC00
000FFFF800
000BFFF000
0007FFE000
0000004000
0000000000
0000000000
0000000000
0000000000
0000000000
006A6AA500
6FFFFFFFF9
BFFFFFFFFF
3FFFFFFFFE
2FFFFFFFFC
0FFFFFFFF8
0BFFFFFFF0
03FFFFFFF0
02FFFFFFE0
02FFFFFFE0
01FFFFFFD0
01FFFFFFC0
00FE5FFF40
00E02FFD00
00403FF400
00007FE000
0000BFD000
0000FF8000
0001FF4000
0002FE0000
0002FD0000
0007FD0000
0007FAA400
000BFFFE00
001FFFFD00
001FFFFC00
001FFFFC00
000A2ABC00
0004000800
ENDCHAR
STARTCHAR DZ
ENCODING 497
SWIDTH 194 0
DWIDTH 7 0
BBX 1 1 0 0
BITMAP
00
ENDCHAR
STARTCHAR Dz
ENCODING 498
SWIDTH 194 0
DWIDTH 7 0
BBX 1 1 0 0
BITMAP
00
ENDCHAR
STARTCHAR dotlessj
ENCODING 567
SWIDTH 458 0
DWIDTH 17 0
BBX 17 29 -1 -2
BITMAP
0016A50000
001FFFE900
000FFFFE40
0007FFFD00
0003FFFD00
0003FFFC00
0002FFF800
0001FFF400
0001FFF400
0001FFF400
0001FFF400
0001FFF400
0001FFF400
0001FFF000
0001FFF000
0000FFF000
0000FFE000
0010FFE000
1690FFE000
BFD0FFE000
BFE0BFE000
3FF0FFD000
2FF5FFD000
2FFFFFC000
1FFFFF8000
0BFFFF4000
02FFFF4000
0005B60000
0000010000
ENDCHAR
STARTCHAR circumflex
ENCODING 710
SWIDTH 528 0
DWIDTH 19 0
BBX 17 13 1 25
BITMAP
0015590000
007FFF0000
00BFFF8000
00FFFFC000
02FFFFE000
03FFFFF000
07FE7FF800
0FFC1FFD00
1FF407FE00
2FD002FF40
7F4000BF40
7D00002E00
0400000400
ENDCHAR
STARTCHAR caron
ENCODING 711
SWIDTH 486 0
DWIDTH 18 0
BBX 16 13 1 25
BITMAP
2D0000E0
BF4002F8
FFC007FE
BFE00FFD
3FF02FFC
2FF87FF4
1FFDFFE0
0BFFFFD0
07FFFF80
03FFFF40
01FFFE00
00FFFD00
00555400
ENDCHAR
STARTCHAR breve
ENCODING 728
SWIDTH 464 0
DWIDTH 17 0
BBX 15 11 1 -3
BITMAP
6A400000
7FC00AA0
3FC01FF4
3FD02FF0
2FF97FE0
2FFFFFD0
0FFFFF80
05BFFF40
0034FE00
0000E200
00004100
ENDCHAR
STARTCHAR dotaccent
ENCODING 729
SWIDTH 388 0
DWIDTH 14 0
BBX 11 12 1 8
BITMAP
000540
5AFFF8
2FFFF8
2FFFF8
1FFFF8
1FFFF8
1FFFF8
1FFFF8
0FFFF8
0FFFF8
0FFFF8
0A9450
ENDCHAR
STARTCHAR ring
ENCODING 730
SWIDTH 370 0
DWIDTH 13 0
BBX 10 11 2 10
BITMAP
069400
2FFE00
BFFF80
FE6FD0
F807D0
F807D0
B807C0
7E6F40
7FFE00
2BF900
016000
ENDCHAR
STARTCHAR ogonek
ENCODING 731
SWIDTH 360 0
DWIDTH 13 0
BBX 10 14 2 -1
BITMAP
150000
7F4000
7F0000
BF0000
FE0000
FE0000
FE0000
FF4000
BFE540
7FFFD0
3FFFD0
1FFFD0
02FFC0
000500
ENDCHAR
STARTCHAR tilde
ENCODING 732
SWIDTH 535 0
DWIDTH 19 0
BBX 17 8 1 -3
BITMAP
024006E000
1FD01FFC00
7FF5FFFE00
7FFFFFFF80
2FFFFFFF80
0BFFFFFF00
03FF90B800
0069001000
ENDCHAR
STARTCHAR hungarumlaut
ENCODING 733
SWIDTH 554 0
DWIDTH 20 0
BBX 18 12 1 25
BITMAP
00B400B400
00FE00FD40
01FF81FFF0
02FFD2FFD0
07FF43FF80
0BFD07FE00
0FF80BF800
1FE01FE000
3F802F8000
7E003F0000
7C002C0000
1000040000
ENDCHAR
STARTCHAR dotaccentcmb
ENCODING 775
SWIDTH 396 0
DWIDTH 14 0
BBX 10 12 2 13
BITMAP
15AA90
BFFFE0
BFFFE0
7FFFE0
7FFFE0
7FFFF0
3FFFF0
3FFFF0
3FFFE0
3FFFE0
3FEAE0
140000
ENDCHAR
STARTCHAR uni030F
ENCODING 783
SWIDTH 549 0
DWIDTH 20 0
BBX 19 13 0 25
BITMAP
0000001000
00B400B400
05F802F800
7FFC0FFD00
2FFE1FFE00
0BFF07FF00
02FF42FF40
00BF80BFC0
002FC02FD0
000FD00FE0
0003F003F4
0001E000F0
0000400040
ENDCHAR
STARTCHAR uni0311
ENCODING 785
SWIDTH 490 0
DWIDTH 18 0
BBX 14 10 2 13
BITMAP
00154000
06FFF400
1FFFFD00
2FFFFF00
3FFFFF80
7FE5FFC0
7F807FD0
BF403FD0
FF402FE0
AA400000
ENDCHAR
STARTCHAR uni0326
ENCODING 806
SWIDTH 360 0
DWIDTH 13 0
BBX 9 17 2 -4
BITMAP
050000
7FFF80
7FFFC0
7FFFC0
BFFFC0
BFFFC0
BFFFC0
BFFFC0
BFFFC0
65BFC0
002F80
003F80
007F80
007F40
007F40
00BF00
001500
ENDCHAR
STARTCHAR endash
ENCODING 8211
SWIDTH 478 0
DWIDTH 17 0
BBX 13 8 2 10
BITMAP
55454540
FFFFFFC0
FFFFFF80
FFFFFF40
FFFFFF40
FFFFFF40
FFFFFF40
06A15600
ENDCHAR
STARTCHAR emdash
ENCODING 8212
SWIDTH 567 0
DWIDTH 20 0
BBX 17 8 2 10
BITMAP
5540550500
FFFFFFFF40
FFFFFFFF00
FFFFFFFE00
FFFFFFFE00
FFFFFFFE00
FFFFFFFE00
06A0695900
ENDCHAR
STARTCHAR quoteleft
ENCODING 8216
SWIDTH 373 0
DWIDTH 13 0
BBX 10 18 2 9
BITMAP
154000
3F8000
3F8000
7F4000
7F4000
BF0000
BF0000
FFA580
BFFFE0
BFFFE0
FFFFD0
FFFFD0
FFFFD0
FFFFD0
FFFFD0
BFFFD0
BFFFD0
BABFD0
ENDCHAR
STARTCHAR quoteright
ENCODING 8217
SWIDTH 369 0
DWIDTH 13 0
BBX 10 18 1 9
BITMAP
154040
3FFFF0
3FFFF0
3FFFF0
7FFFF0
7FFFF0
7FFFF0
7FFFF0
7FFFF0
7FFFF0
7FFFF0
145BF0
000FE0
000FE0
001FE0
001FD0
001FD0
001FC0
ENDCHAR
STARTCHAR quotesinglbase
ENCODING 8218
SWIDTH 369 0
DWIDTH 13 0
BBX 10 18 1 9
BITMAP
154040
3FFFF0
3FFFF0
3FFFF0
7FFFF0
7FFFF0
7FFFF0
7FFFF0
7FFFF0
7FFFF0
7FFFF0
145BF0
000FE0
000FE0
001FE0
001FD0
001FD0
001FC0
ENDCHAR
STARTCHAR quotedblleft
ENCODING 8220
SWIDTH 687 0
DWIDTH 25 0
BBX 21 18 2 9
BITMAP
154000550000
3F8000BF0000
3F8000BF0000
7F4000FE0000
7F4000FE0000
BF0001FD0000
BF0001FD0000
BFA582FE9640
BFFFE2FFFFC0
BFFFE2FFFFC0
FFFFD2FFFF80
BFFFD2FFFF80
FFFFD2FFFF80
FFFFD2FFFF80
FFFFD2FFFF80
BFFFD1FFFF80
BFFFD1FFFF80
BABFD1AAFF80
ENDCHAR
STARTCHAR quotedblright
ENCODING 8221
SWIDTH 677 0
DWIDTH 24 0
BBX 22 18 1 9
BITMAP
155540150100
3FFFD0BFFFC0
3FFFD0BFFFC0
3FFFD0BFFFC0
7FFFE0BFFFC0
7FFFE0BFFFD0
7FFFE0BFFFD0
7FFFD0BFFFC0
7FFFD0BFFFC0
7FFFD0BFFFC0
7FFFD0BFFFC0
155FD0116FC0
000FD0002FC0
000FC0003F80
001FC0003F80
001FC0007F40
002F80007F40
002F80007F00
ENDCHAR
STARTCHAR quotedblbase
ENCODING 8222
SWIDTH 697 0
DWIDTH 25 0
BBX 23 18 1 -11
BITMAP
1A55501A9550
3FFFF03FFFF0
3FFFF03FFFF0
3FFFF03FFFF4
3FFFF03FFFF4
7FFFF03FFFF4
7FFFF03FFFF4
7FFFF03FFFF4
7FFFF03FFFF4
7FFFF07FFFF0
7EFFF03EFFF4
001BF0000BF0
000BE0000BF0
000FE0000FE0
001FE0000FE0
001FD0001FE0
001FD0001FD0
001F80001F90
ENDCHAR
STARTCHAR ellipsis
ENCODING 8230
SWIDTH 1462 0
DWIDTH 53 0
BBX 50 12 1 1
BITMAP
056A900000056A500000056A50
7FFFF000007FFFE00000BFFFE0
2FFFF000002FFFE000003FFFE0
2FFFF000002FFFE000003FFFE0
2FFFE000002FFFD000003FFFD0
1FFFF000001FFFE000002FFFF0
1FFFF000001FFFE000002FFFF0
1FFFF000001FFFE000002FFFE0
1FFFF000001FFFE000002FFFE0
1FFFF000001FFFE000002FFFE0
1FFAE000001FFAD000002FEBE0
05400000000500000000150000
ENDCHAR
STARTCHAR guilsinglleft
ENCODING 8249
SWIDTH 459 0
DWIDTH 17 0
BBX 15 20 1 2
BITMAP
007FFFF4
007FFFE0
00BFFF80
00FFFE00
02FFFD00
07FFF400
1FFFF000
7FFFD000
BFFF4000
BFFF0000
7FFF8000
2FFFD000
1FFFD000
07FFF000
02FFF800
00BFFE00
003FFF80
000FFFE0
0002FFF4
00000580
ENDCHAR
STARTCHAR guilsinglright
ENCODING 8250
SWIDTH 432 0
DWIDTH 16 0
BBX 14 20 1 3
BITMAP
00010000
BFFFC000
7FFFC000
2FFFD000
0BFFE000
03FFF400
01FFFC00
00BFFF00
003FFF80
000FFFD0
000BFFD0
002FFF80
002FFF80
007FFF40
00FFF800
03FFF400
1FFFE000
7FFFD000
BFFF4000
7FFE0000
ENDCHAR
STARTCHAR fraction
ENCODING 8260
SWIDTH 371 0
DWIDTH 13 0
BBX 13 28 0 -1
BITMAP
05A69400
BFFFFFC0
3FFFFF40
1FFFFF00
07FFFE00
02FFFC00
01FFFD00
01FFFC00
01FFF800
01FFF800
01FFF400
01FFF400
01FFF000
01FFF000
01FFF000
00FFF000
00FFF000
00BFF000
00BFE000
007FE000
007FD000
007FE000
003FD000
003FD000
003FD000
003FD000
002AD000
0011D000
ENDCHAR
STARTCHAR Euro
ENCODING 8364
SWIDTH 587 0
DWIDTH 21 0
BBX 20 35 0 -8
BITMAP
00005AA800
0002FFFF40
000BFFFFE0
002FFFFFF4
007FFFFFFC
00BFFFFFFE
00FFFFFFFD
01FFFFFFFE
01FFFFFFFE
00FFFFFFFE
00FFFFFFFD
00FFFFFFFD
00BFFD7FFD
00BFF83FFD
10BFFA1FFD
7FFFFE1FBC
6FFFF90000
007FF40000
157FF50000
3FFFFF0000
2ABFFE2F90
001FF83FF0
001FF87FE0
000FFDBFE0
000BFFFFD0
000BFFFF80
0007FFFE00
00007ABD00
0000212400
0000212000
0000252000
0000260000
0000124000
0000024000
0000010000
ENDCHAR
STARTCHAR trademark
ENCODING 8482
SWIDTH 785 0
DWIDTH 28 0
BBX 27 20 0 8
BITMAP
00000000041000
1AAA941AFC3FA4
7FFFFF4FFD3FF8
2FFFFE0BFE7FF0
1FFFFD07FFBFF0
1FFFFD07FFFFE0
0FFFFD03FFFFE0
0FFFFD03FFFFE0
0FBFAC02FFFFE0
002F8002FFFFE0
002F8002FFFFE0
002F8001FBEFE0
002F8001F7EFD0
002F4000FBDBD0
002F4000FADBC0
002F8000F9CFC0
002F8000A89AC0
002F8000900040
002E4000000000
00100000000000
ENDCHAR
STARTCHAR minus
ENCODING 8722
SWIDTH 478 0
DWIDTH 17 0
BBX 13 8 2 10
BITMAP
55454540
FFFFFFC0
FFFFFF80
FFFFFF40
FFFFFF40
FFFFFF40
FFFFFF40
06A15600
ENDCHAR
STARTCHAR commaaccent
ENCODING 63171
SWIDTH 360 0
DWIDTH 13 0
BBX 10 19 1 -6
BITMAP
050000
3FFFE0
3FFFF0
3FFFF0
3FFFF0
7FFFF0
7FFFF0
7FFFF0
7FFFF0
7FFFF0
7FFFF0
145BF0
000BF0
000FE0
000FE0
001FD0
001FD0
001FC0
000400
ENDCHAR
STARTCHAR .notdef
ENCODING -1
SWIDTH 365 0
DWIDTH 13 0
BBX 10 24 1 0
BITMAP
BFFFE0
A555A0
900060
900060
900060
900060
900060
900060
900060
900060
900060
900060
900060
900060
900060
900060
900060
900060
900060
900060
900060
900060
A555A0
BFFFE0
ENDCHAR
STARTCHAR .null
ENCODING -1
SWIDTH 0 0
DWIDTH 0 0
BBX 1 1 0 0
BITMAP
00
ENDCHAR
STARTCHAR nonmarkingreturn
ENCODING -1
SWIDTH 333 0
DWIDTH 12 0
BBX 1 1 0 0
BITMAP
00
ENDCHAR
ENDFONT
